<?xml version="1.0" encoding="utf-8"?>
<!-- Generator: Adobe Illustrator 17.0.0, SVG Export Plug-In . SVG Version: 6.00 Build 0)  -->
<!DOCTYPE svg PUBLIC "-//W3C//DTD SVG 1.1//EN" "http://www.w3.org/Graphics/SVG/1.1/DTD/svg11.dtd">
<svg version="1.1" id="Capa_1" xmlns="http://www.w3.org/2000/svg" xmlns:xlink="http://www.w3.org/1999/xlink" x="0px" y="0px"
	 width="300px" height="300px" viewBox="0 0 300 300" enable-background="new 0 0 300 300" xml:space="preserve">
<g>
	<g>
		<path fill="#FFFFFF" d="M34.844,269.385c0,0.853-0.493,1.279-1.477,1.279c-0.48,0-0.822-0.06-1.028-0.179
			c-0.42-0.247-0.629-0.614-0.629-1.1c0-0.409,0.183-0.742,0.55-0.998c0.171-0.119,0.256-0.196,0.256-0.23
			c0-0.034-0.102-0.124-0.307-0.269c-0.333-0.179-0.499-0.508-0.499-0.985c0-0.546,0.209-0.913,0.627-1.1
			c0.119-0.043,0.179-0.09,0.179-0.141s-0.102-0.136-0.307-0.256c-0.333-0.188-0.499-0.52-0.499-0.998
			c0-0.512,0.217-0.879,0.652-1.1c0.102-0.051,0.154-0.102,0.154-0.154c0-0.043-0.094-0.124-0.281-0.243
			c-0.35-0.213-0.525-0.554-0.525-1.024c0-0.503,0.226-0.878,0.678-1.126c0.102-0.051,0.154-0.094,0.154-0.128
			c0-0.026-0.043-0.068-0.128-0.128c-0.469-0.239-0.704-0.623-0.704-1.151c0-0.503,0.2-0.853,0.601-1.049
			c0.136-0.068,0.205-0.132,0.205-0.192c-0.009-0.043-0.026-0.077-0.051-0.102l-0.333-0.205c-0.281-0.171-0.422-0.486-0.422-0.947
			c0-0.836,0.492-1.254,1.477-1.254c0.488,0,0.835,0.06,1.041,0.179c0.411,0.239,0.617,0.597,0.617,1.075
			c0,0.503-0.226,0.87-0.676,1.1c-0.087,0.051-0.13,0.102-0.13,0.154c0,0.043,0.1,0.124,0.299,0.243
			c0.338,0.205,0.507,0.554,0.507,1.049c0,0.435-0.234,0.802-0.702,1.1c-0.061,0.017-0.096,0.051-0.104,0.102
			c0,0.085,0.061,0.154,0.182,0.205c0.416,0.196,0.624,0.537,0.624,1.023c0,0.52-0.169,0.87-0.507,1.049
			c-0.199,0.111-0.299,0.2-0.299,0.269c0.009,0.043,0.026,0.077,0.052,0.102l0.247,0.128c0.338,0.188,0.507,0.529,0.507,1.023
			c0,0.418-0.152,0.742-0.455,0.972c-0.234,0.128-0.351,0.213-0.351,0.256s0.091,0.132,0.273,0.269
			c0.355,0.188,0.533,0.52,0.533,0.998c0,0.469-0.169,0.806-0.507,1.011c-0.199,0.128-0.299,0.209-0.299,0.243
			c0,0.051,0.009,0.085,0.026,0.102l0.403,0.269C34.718,268.69,34.844,268.976,34.844,269.385z M43.608,271.905
			c0,0.367-0.12,0.667-0.358,0.902c-0.239,0.235-0.55,0.352-0.934,0.352h-6.73c-0.392,0-0.719-0.117-0.979-0.352
			c-0.26-0.235-0.39-0.527-0.39-0.876c0-0.375,0.141-0.682,0.422-0.921c0.23-0.188,0.686-0.281,1.369-0.281h6.256
			c0.392,0,0.714,0.111,0.966,0.333C43.482,271.283,43.608,271.564,43.608,271.905z"/>
		<path fill="#FFFFFF" d="M52.755,271.88c0,0.375-0.13,0.682-0.39,0.921c-0.26,0.239-0.595,0.358-1.004,0.358h-5.425
			c-0.35,0-0.646-0.119-0.889-0.358c-0.243-0.239-0.365-0.529-0.365-0.87c0-0.307,0.109-0.584,0.326-0.832
			c0.217-0.247,0.458-0.371,0.723-0.371h1.702c0.179,0,0.281-0.017,0.307-0.051c0.026-0.034,0.038-0.072,0.038-0.115
			c0-0.06-0.085-0.154-0.254-0.281c-0.249-0.205-0.373-0.495-0.373-0.87c0-0.461,0.233-0.827,0.7-1.1
			c0.088-0.051,0.132-0.094,0.132-0.128c-0.009-0.051-0.026-0.077-0.053-0.077l-0.356-0.243c-0.282-0.154-0.422-0.465-0.422-0.934
			c0-0.495,0.216-0.861,0.648-1.1h0.053c0.07-0.051,0.106-0.098,0.106-0.141c0-0.043-0.119-0.137-0.357-0.282
			c-0.3-0.196-0.449-0.53-0.449-1c0-0.478,0.198-0.829,0.594-1.051c0.141-0.06,0.212-0.111,0.212-0.154
			c0-0.034-0.017-0.068-0.051-0.103l-0.32-0.218c-0.29-0.196-0.435-0.513-0.435-0.948c0-0.478,0.162-0.807,0.486-0.987
			c0.213-0.12,0.32-0.209,0.32-0.269c0-0.026-0.009-0.051-0.026-0.077l-0.32-0.179c-0.307-0.188-0.461-0.513-0.461-0.974
			c0-0.316,0.094-0.581,0.281-0.794l0.294-0.308c0.017-0.008,0.026-0.034,0.026-0.077c0-0.068-0.047-0.102-0.141-0.102h-1.727
			c-0.341,0-0.631-0.121-0.87-0.363c-0.239-0.242-0.358-0.533-0.358-0.872c0-0.348,0.122-0.643,0.365-0.884
			c0.243-0.242,0.548-0.363,0.915-0.363h5.271c1.015,0,1.522,0.407,1.522,1.222c0,0.84-0.482,1.26-1.446,1.26h-1.446
			c-0.136,0-0.205,0.034-0.205,0.102c0,0.043,0.104,0.154,0.313,0.333c0.209,0.18,0.313,0.461,0.313,0.845
			c0,0.427-0.243,0.803-0.729,1.127c-0.051,0.051-0.077,0.094-0.077,0.128c0,0.043,0.051,0.085,0.154,0.128
			c0.435,0.188,0.653,0.546,0.653,1.076c0,0.478-0.158,0.811-0.473,0.999l-0.256,0.167c-0.034,0.026-0.051,0.06-0.051,0.102
			c0,0.043,0.111,0.136,0.333,0.282c0.299,0.196,0.448,0.521,0.448,0.973c0,0.47-0.2,0.828-0.601,1.076
			c-0.128,0.069-0.196,0.12-0.205,0.154c0,0.051,0.017,0.098,0.051,0.141l0.256,0.128c0.333,0.162,0.499,0.495,0.499,0.999
			c0,0.487-0.235,0.871-0.704,1.152c-0.051,0.035-0.077,0.069-0.077,0.103c0,0.06,0.051,0.111,0.154,0.154
			c0.418,0.222,0.627,0.581,0.627,1.076c0,0.376-0.1,0.651-0.301,0.826c-0.2,0.175-0.301,0.275-0.301,0.301
			c0,0.128,0.098,0.192,0.294,0.192h1.574C52.346,270.728,52.755,271.112,52.755,271.88z"/>
		<path fill="#FFFFFF" d="M64.257,264.485c0,0.367-0.128,0.672-0.384,0.915c-0.256,0.243-0.58,0.365-0.972,0.365h-5.45
			c-0.034,0.043-0.051,0.081-0.051,0.115c0,0.009,0.009,0.026,0.027,0.051l0.32,0.306c0.187,0.179,0.28,0.434,0.28,0.765
			c0,0.51-0.229,0.876-0.686,1.096c-0.105,0.077-0.158,0.128-0.158,0.153c0,0.034,0.026,0.077,0.077,0.128l0.243,0.166
			c0.315,0.17,0.473,0.489,0.473,0.956c0,0.501-0.205,0.858-0.614,1.071c-0.136,0.076-0.205,0.14-0.205,0.191
			c0,0.051,0.051,0.102,0.153,0.153c0.443,0.195,0.665,0.552,0.665,1.071c0,0.833-0.473,1.25-1.42,1.25
			c-0.52,0-0.878-0.051-1.075-0.154c-0.418-0.23-0.627-0.589-0.627-1.075c0-0.452,0.183-0.793,0.55-1.023
			c0.187-0.119,0.281-0.196,0.281-0.23c0-0.051-0.12-0.149-0.358-0.294c-0.316-0.188-0.473-0.512-0.473-0.972
			c0-0.452,0.175-0.785,0.525-0.998l0.256-0.154c0.034-0.034,0.051-0.06,0.051-0.077c0-0.034-0.017-0.068-0.051-0.102l-0.281-0.154
			c-0.333-0.239-0.499-0.58-0.499-1.023c0-0.461,0.175-0.793,0.525-0.998c0.205-0.128,0.307-0.209,0.307-0.243
			c-0.009-0.043-0.026-0.068-0.053-0.077l-0.264-0.179c-0.343-0.23-0.515-0.563-0.515-0.998c0-0.52,0.216-0.887,0.647-1.1
			c0.123-0.06,0.185-0.111,0.185-0.154c0-0.06-0.053-0.111-0.158-0.154c-0.449-0.205-0.673-0.584-0.673-1.139
			c0-0.52,0.233-0.887,0.7-1.1c0.088-0.026,0.132-0.068,0.132-0.128c0-0.026-0.132-0.128-0.396-0.307
			c-0.29-0.196-0.436-0.512-0.436-0.947c0-0.35,0.15-0.665,0.451-0.947c0.223-0.205,0.645-0.307,1.264-0.307
			c0.971,0,1.457,0.418,1.457,1.254c0,0.452-0.248,0.836-0.742,1.151c-0.043,0.026-0.068,0.06-0.077,0.102
			c0,0.043,0.026,0.077,0.079,0.102c0.493,0.264,0.74,0.652,0.74,1.164c0,0.358-0.102,0.627-0.307,0.806l-0.32,0.294v0.051
			c0,0.043,0.015,0.075,0.045,0.096c0.03,0.021,0.117,0.032,0.262,0.032h5.028C63.749,263.257,64.257,263.666,64.257,264.485z
			 M65.536,256.937c0,0.844-0.452,1.267-1.356,1.267h-5.45c-0.384,0-0.702-0.117-0.953-0.352c-0.252-0.235-0.377-0.531-0.377-0.889
			c0-0.853,0.503-1.279,1.51-1.279h5.373C65.118,255.683,65.536,256.101,65.536,256.937z"/>
		<path fill="#FFFFFF" d="M76.974,264.408c0,0.375-0.128,0.678-0.384,0.908c-0.256,0.23-0.584,0.345-0.985,0.345h-4.951
			c-0.281,0-0.444,0.021-0.486,0.064c-0.026,0.009-0.038,0.034-0.038,0.077c0,0.043,0.059,0.102,0.179,0.179
			c0.281,0.247,0.422,0.571,0.422,0.972c0,0.469-0.184,0.806-0.55,1.011c-0.171,0.102-0.256,0.175-0.256,0.217
			c0,0.034,0.085,0.102,0.256,0.205c0.367,0.222,0.55,0.563,0.55,1.024c0,0.836-0.481,1.254-1.445,1.254
			c-1.109,0-1.664-0.409-1.664-1.228c0-0.486,0.242-0.861,0.726-1.126c0.07-0.068,0.106-0.111,0.106-0.128
			c0-0.051-0.106-0.132-0.317-0.243c-0.343-0.171-0.515-0.507-0.515-1.011c0-0.554,0.216-0.913,0.647-1.075
			c0.123-0.051,0.185-0.107,0.185-0.166c-0.009-0.043-0.026-0.068-0.053-0.077l-0.356-0.205c-0.282-0.171-0.422-0.503-0.422-0.998
			c0-0.461,0.181-0.802,0.542-1.023l0.211-0.102c0.035-0.017,0.053-0.043,0.053-0.077c0-0.034-0.017-0.068-0.051-0.102l-0.345-0.243
			c-0.273-0.196-0.409-0.512-0.409-0.947c0-0.444,0.162-0.763,0.486-0.96l0.269-0.166c0.034-0.017,0.051-0.043,0.051-0.077
			c0-0.068-0.009-0.102-0.026-0.102l-0.397-0.256c-0.256-0.179-0.384-0.478-0.384-0.896c0-0.853,0.52-1.279,1.561-1.279
			c1.032,0,1.548,0.418,1.548,1.254c0,0.426-0.128,0.734-0.384,0.921l-0.371,0.256c-0.034,0.017-0.051,0.043-0.051,0.077
			c0,0.034,0.017,0.068,0.051,0.102l0.307,0.192c0.299,0.171,0.448,0.49,0.448,0.96c0,0.444-0.158,0.768-0.473,0.972
			c-0.085,0.06-0.128,0.115-0.128,0.166c0,0.085,0.175,0.128,0.525,0.128h5.028C76.543,263.206,76.974,263.607,76.974,264.408z
			 M79.456,256.905c0,0.306-0.124,0.592-0.371,0.859c-0.248,0.267-0.507,0.401-0.78,0.401h-6.832c-0.392,0-0.715-0.116-0.966-0.35
			c-0.252-0.233-0.377-0.528-0.377-0.884c0-0.339,0.119-0.632,0.358-0.878c0.239-0.246,0.52-0.369,0.844-0.369h6.819
			c0.367,0,0.676,0.117,0.928,0.35C79.33,256.266,79.456,256.557,79.456,256.905z M79.481,271.905c0,0.316-0.122,0.603-0.365,0.864
			c-0.243,0.26-0.514,0.39-0.812,0.39h-6.73c-0.964,0-1.446-0.409-1.446-1.228c0-0.316,0.115-0.595,0.345-0.838
			c0.23-0.243,0.49-0.365,0.78-0.365l7.369,0.051c0.23,0.034,0.431,0.166,0.601,0.397C79.396,271.406,79.481,271.649,79.481,271.905
			z"/>
		<path fill="#FFFFFF" d="M84.535,262.003c0,0.443-0.223,0.789-0.668,1.036c-0.18,0.111-0.475,0.166-0.886,0.166h-0.218
			c-0.385,0-0.709-0.122-0.97-0.365c-0.261-0.243-0.392-0.544-0.392-0.902c0-0.443,0.158-0.763,0.473-0.96l0.281-0.192
			c0.034-0.034,0.051-0.06,0.051-0.077c-0.009-0.043-0.026-0.077-0.051-0.102l-0.333-0.205c-0.281-0.179-0.422-0.495-0.422-0.947
			c0-0.836,0.501-1.254,1.503-1.254c1.087,0,1.631,0.426,1.631,1.279c0,0.444-0.169,0.768-0.507,0.972l-0.273,0.154
			c-0.035,0.034-0.052,0.068-0.052,0.102c0.009,0.026,0.017,0.051,0.026,0.077l0.377,0.243
			C84.392,261.21,84.535,261.534,84.535,262.003z M84.535,269.411c0,0.486-0.216,0.844-0.648,1.075
			c-0.19,0.102-0.488,0.154-0.893,0.154c-0.466,0-0.812-0.068-1.036-0.205c-0.371-0.23-0.557-0.546-0.557-0.947
			c0-0.87,0.496-1.305,1.489-1.305c0.466,0,0.807,0.06,1.023,0.179C84.328,268.592,84.535,268.941,84.535,269.411z M91.981,264.408
			c0,0.367-0.124,0.672-0.371,0.915c-0.248,0.243-0.559,0.365-0.934,0.365h-5.169c-1.083,0-1.625-0.418-1.625-1.254
			c0-0.461,0.213-0.819,0.64-1.075c0.171-0.102,0.448-0.154,0.832-0.154h5.322c0.375,0,0.686,0.115,0.934,0.345
			C91.857,263.781,91.981,264.067,91.981,264.408z M91.981,271.899c0,0.84-0.461,1.26-1.382,1.26h-5.425
			c-0.367,0-0.674-0.12-0.921-0.36c-0.248-0.24-0.371-0.532-0.371-0.875c0-0.48,0.2-0.836,0.601-1.067
			c0.196-0.12,0.55-0.18,1.062-0.18h5.079c0.392,0,0.716,0.114,0.972,0.341C91.853,271.245,91.981,271.539,91.981,271.899z
			 M91.981,256.911c0,0.861-0.593,1.292-1.778,1.292c-0.188,0-0.328-0.009-0.422-0.026h-4.452c-0.938,0-1.407-0.414-1.407-1.241
			c0-0.495,0.209-0.853,0.627-1.075c0.23-0.119,0.597-0.179,1.1-0.179h4.503c0.631,0,1.049,0.06,1.254,0.179
			C91.789,256.092,91.981,256.442,91.981,256.911z M94.514,259.431c0,0.495-0.219,0.861-0.655,1.1
			c-0.197,0.102-0.505,0.154-0.925,0.154c-1.036,0-1.554-0.418-1.554-1.254c0-0.819,0.501-1.228,1.503-1.228
			C93.97,258.203,94.514,258.613,94.514,259.431z M94.514,269.411c0,0.367-0.142,0.691-0.427,0.972
			c-0.19,0.188-0.613,0.281-1.27,0.281c-0.958,0-1.438-0.409-1.438-1.228c0-0.478,0.183-0.819,0.55-1.023
			c0.179-0.094,0.269-0.162,0.269-0.205c0-0.068-0.034-0.111-0.102-0.128c-0.478-0.264-0.716-0.631-0.716-1.1
			c0-0.844,0.548-1.267,1.645-1.267c0.993,0,1.489,0.414,1.489,1.241c0,0.452-0.157,0.772-0.469,0.96l-0.295,0.192
			c-0.045,0.034-0.067,0.06-0.067,0.077c0,0.077,0.076,0.145,0.228,0.205C94.313,268.575,94.514,268.916,94.514,269.411z"/>
		<path fill="#FFFFFF" d="M109.227,256.905c0,0.84-0.491,1.26-1.471,1.26h-3.531c-0.401,0-0.601,0.043-0.601,0.128
			c0,0.017,0.009,0.035,0.026,0.051l0.313,0.307c0.183,0.179,0.274,0.452,0.274,0.82c0,0.521-0.213,0.879-0.637,1.076
			c-0.113,0.051-0.169,0.102-0.169,0.154c0,0.051,0.009,0.085,0.026,0.102l0.325,0.218c0.303,0.196,0.455,0.512,0.455,0.948
			c0,0.521-0.212,0.875-0.637,1.063c-0.13,0.077-0.195,0.141-0.195,0.192c0,0.051,0.065,0.102,0.195,0.154
			c0.424,0.188,0.637,0.555,0.637,1.102c0,0.478-0.23,0.845-0.689,1.101c-0.095,0.051-0.143,0.102-0.143,0.154
			c0,0.043,0.056,0.09,0.169,0.141c0.442,0.197,0.663,0.572,0.663,1.127c0,0.521-0.186,0.871-0.559,1.05
			c-0.182,0.077-0.273,0.136-0.273,0.179c0,0.06,0.071,0.119,0.214,0.179c0.411,0.205,0.617,0.564,0.617,1.075
			c0,0.453-0.155,0.777-0.466,0.973c-0.227,0.145-0.34,0.243-0.34,0.295c0,0.043,0.063,0.094,0.189,0.154
			c0.411,0.197,0.617,0.555,0.617,1.076c0,0.836-0.51,1.255-1.529,1.255c-0.454,0-0.788-0.06-1.002-0.179
			c-0.403-0.239-0.604-0.589-0.604-1.05c0-0.478,0.163-0.811,0.488-0.999l0.277-0.154c0.053-0.034,0.079-0.059,0.079-0.077
			c0-0.068-0.026-0.115-0.079-0.141l-0.303-0.18c-0.308-0.188-0.462-0.512-0.462-0.973c0-0.469,0.18-0.811,0.541-1.024
			c0.202-0.111,0.303-0.18,0.303-0.205c-0.009-0.043-0.026-0.077-0.053-0.102l-0.382-0.243c-0.273-0.162-0.409-0.465-0.409-0.909
			c0-0.461,0.154-0.786,0.462-0.974l0.303-0.179c0.044-0.026,0.07-0.064,0.079-0.115c0-0.034-0.132-0.136-0.397-0.307
			c-0.299-0.197-0.448-0.521-0.448-0.973c0-0.512,0.235-0.879,0.704-1.102c0.094-0.059,0.141-0.102,0.141-0.128
			c-0.009-0.051-0.034-0.085-0.077-0.102l-0.243-0.141c-0.35-0.188-0.525-0.525-0.525-1.011c0-0.47,0.166-0.803,0.499-0.999
			c0.213-0.128,0.32-0.218,0.32-0.269c0-0.051-0.017-0.077-0.051-0.077l-0.269-0.179c-0.333-0.239-0.499-0.563-0.499-0.973
			c0-0.41,0.158-0.743,0.473-0.999c0.102-0.059,0.154-0.119,0.154-0.179c0-0.085-0.175-0.128-0.525-0.128h-3.8
			c-0.375,0-0.691-0.116-0.947-0.35c-0.256-0.233-0.384-0.528-0.384-0.884c0-0.365,0.13-0.664,0.39-0.897
			c0.26-0.233,0.595-0.35,1.004-0.35h10.286c0.358,0,0.631,0.051,0.819,0.153C109.009,256.082,109.227,256.438,109.227,256.905z"/>
		<path fill="#FFFFFF" d="M114.139,261.884c0,0.513-0.211,0.881-0.632,1.104c-0.198,0.111-0.542,0.167-1.032,0.167
			c-0.989,0-1.483-0.415-1.483-1.245c0-0.513,0.229-0.881,0.687-1.104c0.088-0.043,0.132-0.094,0.132-0.154
			c-0.009-0.051-0.043-0.094-0.102-0.128c-0.478-0.308-0.716-0.693-0.716-1.155c0-0.47,0.175-0.804,0.525-1.001
			c0.196-0.111,0.294-0.192,0.294-0.244c0-0.034-0.064-0.085-0.192-0.154c-0.418-0.223-0.627-0.582-0.627-1.078
			c0-0.855,0.473-1.284,1.42-1.284c0.512,0,0.861,0.051,1.049,0.154c0.435,0.249,0.653,0.616,0.653,1.104
			c0,0.505-0.184,0.847-0.55,1.027c-0.179,0.12-0.269,0.197-0.269,0.231c0.017,0.052,0.038,0.081,0.064,0.09l0.23,0.154
			c0.367,0.197,0.55,0.539,0.55,1.027c0,0.505-0.226,0.873-0.678,1.104c-0.085,0.043-0.128,0.086-0.128,0.128
			c0,0.06,0.068,0.128,0.205,0.206C113.939,261.053,114.139,261.404,114.139,261.884z M114.191,269.411
			c0,0.478-0.217,0.844-0.652,1.1c-0.213,0.119-0.546,0.179-0.998,0.179c-0.998,0-1.497-0.409-1.497-1.228
			c0-0.495,0.213-0.861,0.64-1.1c0.179-0.102,0.499-0.154,0.96-0.154C113.674,268.208,114.191,268.609,114.191,269.411z
			 M124.17,269.359c0,0.853-0.55,1.279-1.65,1.279c-0.955,0-1.433-0.416-1.433-1.247c0-0.501,0.192-0.849,0.576-1.044
			c0.136-0.068,0.205-0.127,0.205-0.178c0-0.034-0.017-0.068-0.051-0.102l-0.23-0.14c-0.35-0.187-0.525-0.535-0.525-1.044
			c0-0.382,0.179-0.721,0.537-1.018c0.043-0.034,0.064-0.076,0.064-0.128c-0.009-0.009-0.015-0.019-0.019-0.032
			c-0.005-0.013-0.006-0.028-0.006-0.045h-0.051h-0.294h-6.499c-0.341,0-0.635-0.128-0.883-0.384
			c-0.248-0.256-0.371-0.554-0.371-0.896c0-0.333,0.117-0.625,0.352-0.876c0.235-0.252,0.501-0.377,0.8-0.377h6.845
			c0.068,0,0.102-0.038,0.102-0.115c0-0.06-0.058-0.119-0.173-0.179c-0.302-0.23-0.454-0.554-0.454-0.972
			c0-0.486,0.18-0.819,0.541-0.998c0.193-0.094,0.29-0.179,0.29-0.256c0-0.026-0.018-0.051-0.053-0.077l-0.356-0.243
			c-0.282-0.188-0.422-0.499-0.422-0.934c0-0.495,0.189-0.836,0.568-1.023c0.176-0.094,0.264-0.166,0.264-0.217
			c-0.009-0.043-0.026-0.068-0.051-0.077l-0.23-0.154c-0.367-0.247-0.55-0.589-0.55-1.024c0-0.836,0.503-1.254,1.51-1.254
			c0.503,0,0.853,0.068,1.049,0.205c0.367,0.256,0.55,0.597,0.55,1.024c0,0.503-0.2,0.87-0.601,1.1
			c-0.12,0.043-0.179,0.094-0.179,0.154c0,0.068,0.053,0.132,0.158,0.192c0.449,0.239,0.673,0.606,0.673,1.1
			c0,0.469-0.189,0.81-0.568,1.024c-0.176,0.094-0.264,0.162-0.264,0.205c0,0.068,0.044,0.111,0.132,0.128
			c0.466,0.23,0.7,0.606,0.7,1.126c0,0.486-0.207,0.844-0.621,1.075c-0.123,0.077-0.185,0.141-0.185,0.192
			c0,0.043,0.034,0.085,0.102,0.128c0.469,0.29,0.704,0.665,0.704,1.126c0,0.401-0.175,0.734-0.525,0.998l-0.205,0.154
			c-0.051,0.026-0.077,0.051-0.077,0.077c0,0.034,0.017,0.068,0.051,0.102l0.371,0.269c0.256,0.188,0.384,0.495,0.384,0.921
			c0,0.452-0.136,0.755-0.409,0.908l-0.371,0.269c-0.009,0.009-0.017,0.026-0.026,0.051c0,0.051,0.077,0.111,0.23,0.179
			C123.978,268.472,124.17,268.822,124.17,269.359z M121.688,271.88c0,0.35-0.122,0.65-0.365,0.902
			c-0.243,0.252-0.539,0.377-0.889,0.377h-5.54c-0.376,0-0.691-0.117-0.947-0.352c-0.256-0.235-0.384-0.527-0.384-0.876
			c0-0.324,0.123-0.606,0.371-0.844c0.247-0.239,0.533-0.358,0.857-0.358l5.821-0.038c0.273-0.017,0.52,0.098,0.742,0.345
			C121.577,271.283,121.688,271.564,121.688,271.88z"/>
		<path fill="#FFFFFF" d="M130.439,269.385c0,0.853-0.493,1.279-1.477,1.279c-0.48,0-0.822-0.06-1.028-0.179
			c-0.42-0.247-0.629-0.614-0.629-1.1c0-0.409,0.183-0.742,0.55-0.998c0.171-0.119,0.256-0.196,0.256-0.23
			c0-0.034-0.102-0.124-0.307-0.269c-0.333-0.179-0.499-0.508-0.499-0.985c0-0.546,0.209-0.913,0.627-1.1
			c0.119-0.043,0.179-0.09,0.179-0.141s-0.102-0.136-0.307-0.256c-0.333-0.188-0.499-0.52-0.499-0.998
			c0-0.512,0.218-0.879,0.653-1.1c0.102-0.051,0.153-0.102,0.153-0.154c0-0.043-0.094-0.124-0.281-0.243
			c-0.35-0.213-0.525-0.554-0.525-1.024c0-0.503,0.226-0.878,0.678-1.126c0.102-0.051,0.153-0.094,0.153-0.128
			c0-0.026-0.043-0.068-0.128-0.128c-0.469-0.239-0.704-0.623-0.704-1.151c0-0.503,0.2-0.853,0.601-1.049
			c0.136-0.068,0.205-0.132,0.205-0.192c-0.009-0.043-0.026-0.077-0.051-0.102l-0.333-0.205c-0.281-0.171-0.422-0.486-0.422-0.947
			c0-0.836,0.492-1.254,1.477-1.254c0.488,0,0.835,0.06,1.041,0.179c0.411,0.239,0.617,0.597,0.617,1.075
			c0,0.503-0.226,0.87-0.676,1.1c-0.087,0.051-0.13,0.102-0.13,0.154c0,0.043,0.1,0.124,0.299,0.243
			c0.338,0.205,0.507,0.554,0.507,1.049c0,0.435-0.234,0.802-0.702,1.1c-0.061,0.017-0.096,0.051-0.104,0.102
			c0,0.085,0.061,0.154,0.182,0.205c0.416,0.196,0.624,0.537,0.624,1.023c0,0.52-0.169,0.87-0.507,1.049
			c-0.199,0.111-0.299,0.2-0.299,0.269c0.009,0.043,0.026,0.077,0.052,0.102l0.247,0.128c0.338,0.188,0.507,0.529,0.507,1.023
			c0,0.418-0.152,0.742-0.455,0.972c-0.234,0.128-0.351,0.213-0.351,0.256s0.091,0.132,0.273,0.269
			c0.355,0.188,0.533,0.52,0.533,0.998c0,0.469-0.169,0.806-0.507,1.011c-0.199,0.128-0.299,0.209-0.299,0.243
			c0,0.051,0.009,0.085,0.026,0.102l0.403,0.269C130.313,268.69,130.439,268.976,130.439,269.385z M139.202,271.905
			c0,0.367-0.12,0.667-0.358,0.902c-0.239,0.235-0.55,0.352-0.934,0.352h-6.729c-0.392,0-0.719-0.117-0.979-0.352
			c-0.26-0.235-0.39-0.527-0.39-0.876c0-0.375,0.141-0.682,0.422-0.921c0.23-0.188,0.686-0.281,1.369-0.281h6.256
			c0.392,0,0.714,0.111,0.966,0.333C139.076,271.283,139.202,271.564,139.202,271.905z"/>
		<path fill="#FFFFFF" d="M150.473,264.408c0,0.375-0.128,0.678-0.384,0.908c-0.256,0.23-0.584,0.345-0.985,0.345h-4.951
			c-0.281,0-0.443,0.021-0.486,0.064c-0.026,0.009-0.038,0.034-0.038,0.077c0,0.043,0.06,0.102,0.179,0.179
			c0.281,0.247,0.422,0.571,0.422,0.972c0,0.469-0.183,0.806-0.55,1.011c-0.171,0.102-0.256,0.175-0.256,0.217
			c0,0.034,0.085,0.102,0.256,0.205c0.367,0.222,0.55,0.563,0.55,1.024c0,0.836-0.481,1.254-1.444,1.254
			c-1.109,0-1.664-0.409-1.664-1.228c0-0.486,0.242-0.861,0.726-1.126c0.07-0.068,0.106-0.111,0.106-0.128
			c0-0.051-0.106-0.132-0.317-0.243c-0.343-0.171-0.515-0.507-0.515-1.011c0-0.554,0.216-0.913,0.647-1.075
			c0.123-0.051,0.185-0.107,0.185-0.166c-0.009-0.043-0.026-0.068-0.053-0.077l-0.356-0.205c-0.282-0.171-0.422-0.503-0.422-0.998
			c0-0.461,0.181-0.802,0.542-1.023l0.211-0.102c0.035-0.017,0.053-0.043,0.053-0.077c0-0.034-0.017-0.068-0.051-0.102l-0.345-0.243
			c-0.273-0.196-0.409-0.512-0.409-0.947c0-0.444,0.162-0.763,0.486-0.96l0.269-0.166c0.034-0.017,0.051-0.043,0.051-0.077
			c0-0.068-0.009-0.102-0.026-0.102l-0.397-0.256c-0.256-0.179-0.384-0.478-0.384-0.896c0-0.853,0.52-1.279,1.561-1.279
			c1.032,0,1.548,0.418,1.548,1.254c0,0.426-0.128,0.734-0.384,0.921l-0.371,0.256c-0.034,0.017-0.051,0.043-0.051,0.077
			c0,0.034,0.017,0.068,0.051,0.102l0.307,0.192c0.299,0.171,0.448,0.49,0.448,0.96c0,0.444-0.158,0.768-0.473,0.972
			c-0.085,0.06-0.128,0.115-0.128,0.166c0,0.085,0.175,0.128,0.525,0.128h5.028C150.043,263.206,150.473,263.607,150.473,264.408z
			 M152.955,256.905c0,0.306-0.124,0.592-0.371,0.859s-0.507,0.401-0.78,0.401h-6.832c-0.392,0-0.714-0.116-0.965-0.35
			c-0.252-0.233-0.378-0.528-0.378-0.884c0-0.339,0.119-0.632,0.358-0.878c0.239-0.246,0.52-0.369,0.844-0.369h6.819
			c0.367,0,0.676,0.117,0.928,0.35S152.955,256.557,152.955,256.905z M152.981,271.905c0,0.316-0.121,0.603-0.364,0.864
			c-0.243,0.26-0.514,0.39-0.813,0.39h-6.73c-0.964,0-1.446-0.409-1.446-1.228c0-0.316,0.115-0.595,0.345-0.838
			c0.23-0.243,0.49-0.365,0.78-0.365l7.369,0.051c0.23,0.034,0.431,0.166,0.601,0.397
			C152.896,271.406,152.981,271.649,152.981,271.905z"/>
		<path fill="#FFFFFF" d="M168.551,259.355c0,0.375-0.13,0.687-0.39,0.934c-0.26,0.247-0.586,0.371-0.979,0.371h-1.676
			c-0.068,0-0.102,0.034-0.102,0.102c0,0.043,0.071,0.115,0.213,0.217c0.293,0.205,0.439,0.516,0.439,0.934
			c0,0.469-0.163,0.793-0.488,0.972l-0.316,0.192c-0.026,0.017-0.04,0.051-0.04,0.102c0,0.06,0.075,0.119,0.224,0.179
			c0.413,0.222,0.62,0.563,0.62,1.023c0,0.503-0.18,0.861-0.541,1.075c-0.203,0.085-0.304,0.162-0.304,0.23
			c0.009,0.026,0.021,0.051,0.038,0.077l0.281,0.192c0.316,0.196,0.473,0.529,0.473,0.998c0,0.461-0.149,0.78-0.448,0.96
			c-0.23,0.145-0.345,0.243-0.345,0.294c0,0.034,0.124,0.141,0.371,0.32c0.281,0.196,0.422,0.507,0.422,0.934
			c0,0.486-0.166,0.819-0.499,0.998c-0.196,0.128-0.294,0.217-0.294,0.269c0,0.043,0.098,0.128,0.294,0.256
			c0.333,0.222,0.499,0.546,0.499,0.972c0,0.853-0.516,1.279-1.548,1.279c-0.452,0-0.776-0.06-0.972-0.179
			c-0.401-0.255-0.601-0.621-0.601-1.099c0-0.502,0.209-0.852,0.627-1.047c0.128-0.06,0.192-0.119,0.192-0.179
			c0-0.051-0.064-0.106-0.192-0.166c-0.418-0.187-0.627-0.554-0.627-1.099c0-0.443,0.166-0.775,0.499-0.997l0.243-0.153
			c0.043-0.026,0.068-0.06,0.077-0.102c-0.009-0.051-0.026-0.077-0.051-0.077l-0.32-0.217c-0.298-0.196-0.448-0.515-0.448-0.958
			c0-0.494,0.175-0.835,0.525-1.022c0.179-0.119,0.269-0.2,0.269-0.243c0-0.051-0.09-0.128-0.269-0.23
			c-0.35-0.212-0.525-0.562-0.525-1.047c0-0.528,0.226-0.894,0.678-1.099c0.094-0.043,0.141-0.085,0.141-0.128
			c0-0.059-0.124-0.166-0.371-0.319c-0.298-0.179-0.448-0.502-0.448-0.971c0-0.511,0.2-0.86,0.601-1.047
			c0.145-0.085,0.218-0.145,0.218-0.179c0-0.068-0.073-0.136-0.218-0.204c-0.401-0.204-0.601-0.562-0.601-1.073
			c0-0.443,0.158-0.775,0.473-0.996l0.294-0.154c0.034-0.034,0.051-0.073,0.051-0.115c-0.009-0.043-0.026-0.068-0.051-0.077
			l-0.269-0.154c-0.333-0.196-0.499-0.536-0.499-1.022c0-0.835,0.473-1.252,1.42-1.252c0.648,0,1.102,0.122,1.363,0.368
			c0.26,0.245,0.39,0.536,0.39,0.873c0,0.389-0.166,0.718-0.499,0.988c-0.085,0.084-0.128,0.144-0.128,0.177
			c0,0.068,0.111,0.101,0.333,0.101h1.548c0.333,0,0.623,0.119,0.87,0.358C168.427,258.736,168.551,259.022,168.551,259.355z
			 M171.059,261.888c0,0.861-0.508,1.292-1.522,1.292c-0.443,0-0.763-0.064-0.96-0.192c-0.444-0.264-0.665-0.623-0.665-1.075
			c0-0.836,0.49-1.254,1.471-1.254C170.5,260.66,171.059,261.069,171.059,261.888z M176.086,271.982c0,0.495-0.217,0.861-0.652,1.1
			c-0.188,0.102-0.49,0.154-0.908,0.154c-1.049,0-1.574-0.418-1.574-1.254c0-0.486,0.192-0.836,0.576-1.049
			c0.153-0.085,0.23-0.145,0.23-0.179c0-0.051-0.111-0.149-0.333-0.294c-0.316-0.196-0.473-0.52-0.473-0.972
			c0-0.452,0.158-0.772,0.473-0.96l0.281-0.217c0.034-0.017,0.051-0.043,0.051-0.077c-0.009-0.043-0.026-0.077-0.051-0.102
			l-0.32-0.217c-0.29-0.196-0.435-0.516-0.435-0.96c0-0.392,0.136-0.699,0.409-0.921c0.111-0.085,0.175-0.154,0.192-0.205
			c0-0.094-0.081-0.141-0.243-0.141h-1.305c-1.049,0-1.574-0.409-1.574-1.228c0-0.316,0.119-0.603,0.358-0.864
			c0.239-0.26,0.495-0.39,0.768-0.39h1.893c0.068,0,0.102-0.034,0.102-0.102c0-0.077-0.064-0.158-0.192-0.243
			c-0.273-0.188-0.409-0.503-0.409-0.947c0-0.495,0.175-0.832,0.525-1.011c0.188-0.102,0.281-0.175,0.281-0.218
			c0-0.051-0.009-0.085-0.026-0.102l-0.422-0.294c-0.239-0.162-0.358-0.448-0.358-0.857c0-0.495,0.166-0.836,0.499-1.023
			c0.222-0.128,0.333-0.218,0.333-0.269c-0.009-0.043-0.026-0.077-0.053-0.102l-0.264-0.154c-0.343-0.196-0.515-0.529-0.515-0.998
			c0-0.836,0.537-1.254,1.612-1.254c1.015,0,1.522,0.418,1.522,1.254c0,0.478-0.145,0.802-0.435,0.972l-0.32,0.179
			c-0.034,0.034-0.051,0.068-0.051,0.102c0.009,0.051,0.034,0.09,0.077,0.115l0.23,0.128c0.333,0.239,0.499,0.58,0.499,1.023
			c0,0.435-0.243,0.819-0.729,1.151c-0.051,0.051-0.077,0.085-0.077,0.102c0,0.06,0.115,0.158,0.345,0.294
			c0.307,0.179,0.461,0.508,0.461,0.985c0,0.452-0.153,0.776-0.461,0.972l-0.294,0.192c-0.034,0.034-0.051,0.06-0.051,0.077
			c0,0.043,0.094,0.119,0.281,0.23c0.35,0.213,0.525,0.546,0.525,0.998c0,0.452-0.128,0.768-0.384,0.947
			c-0.281,0.188-0.422,0.307-0.422,0.358c0.009,0.051,0.034,0.09,0.077,0.115l0.32,0.205c0.273,0.188,0.409,0.503,0.409,0.947
			c0,0.444-0.166,0.772-0.499,0.985l-0.23,0.166c-0.051,0.026-0.077,0.06-0.077,0.102c0.009,0.051,0.034,0.085,0.077,0.102
			l0.32,0.218c0.273,0.179,0.409,0.482,0.409,0.908c0,0.486-0.166,0.827-0.499,1.023c-0.205,0.128-0.307,0.218-0.307,0.269
			c0,0.043,0.06,0.102,0.179,0.179c0.026,0.009,0.051,0.026,0.077,0.051C175.903,271.232,176.086,271.564,176.086,271.982z"/>
		<path fill="#FFFFFF" d="M188.573,264.408c0,0.375-0.128,0.678-0.384,0.908c-0.256,0.23-0.584,0.345-0.985,0.345h-4.951
			c-0.281,0-0.443,0.021-0.486,0.064c-0.026,0.009-0.038,0.034-0.038,0.077c0,0.043,0.06,0.102,0.179,0.179
			c0.281,0.247,0.422,0.571,0.422,0.972c0,0.469-0.183,0.806-0.55,1.011c-0.171,0.102-0.256,0.175-0.256,0.217
			c0,0.034,0.085,0.102,0.256,0.205c0.367,0.222,0.55,0.563,0.55,1.024c0,0.836-0.481,1.254-1.445,1.254
			c-1.109,0-1.664-0.409-1.664-1.228c0-0.486,0.242-0.861,0.726-1.126c0.071-0.068,0.106-0.111,0.106-0.128
			c0-0.051-0.106-0.132-0.317-0.243c-0.343-0.171-0.515-0.507-0.515-1.011c0-0.554,0.215-0.913,0.647-1.075
			c0.123-0.051,0.185-0.107,0.185-0.166c-0.009-0.043-0.026-0.068-0.053-0.077l-0.357-0.205c-0.281-0.171-0.422-0.503-0.422-0.998
			c0-0.461,0.18-0.802,0.542-1.023l0.212-0.102c0.035-0.017,0.053-0.043,0.053-0.077c0-0.034-0.017-0.068-0.051-0.102l-0.345-0.243
			c-0.273-0.196-0.409-0.512-0.409-0.947c0-0.444,0.162-0.763,0.486-0.96l0.269-0.166c0.034-0.017,0.051-0.043,0.051-0.077
			c0-0.068-0.009-0.102-0.026-0.102l-0.397-0.256c-0.256-0.179-0.384-0.478-0.384-0.896c0-0.853,0.52-1.279,1.561-1.279
			c1.032,0,1.548,0.418,1.548,1.254c0,0.426-0.128,0.734-0.384,0.921l-0.371,0.256c-0.034,0.017-0.051,0.043-0.051,0.077
			c0,0.034,0.017,0.068,0.051,0.102l0.307,0.192c0.299,0.171,0.448,0.49,0.448,0.96c0,0.444-0.158,0.768-0.473,0.972
			c-0.085,0.06-0.128,0.115-0.128,0.166c0,0.085,0.175,0.128,0.525,0.128h5.028C188.142,263.206,188.573,263.607,188.573,264.408z
			 M191.055,256.905c0,0.306-0.124,0.592-0.371,0.859s-0.507,0.401-0.78,0.401h-6.832c-0.392,0-0.714-0.116-0.966-0.35
			c-0.252-0.233-0.377-0.528-0.377-0.884c0-0.339,0.119-0.632,0.358-0.878c0.239-0.246,0.52-0.369,0.844-0.369h6.819
			c0.367,0,0.676,0.117,0.928,0.35C190.929,256.266,191.055,256.557,191.055,256.905z M191.081,271.905
			c0,0.316-0.122,0.603-0.365,0.864s-0.514,0.39-0.812,0.39h-6.73c-0.964,0-1.446-0.409-1.446-1.228
			c0-0.316,0.115-0.595,0.345-0.838c0.23-0.243,0.49-0.365,0.78-0.365l7.369,0.051c0.23,0.034,0.431,0.166,0.601,0.397
			C190.995,271.406,191.081,271.649,191.081,271.905z"/>
		<path fill="#FFFFFF" d="M205.627,256.905c0,0.84-0.49,1.26-1.471,1.26h-3.531c-0.401,0-0.601,0.043-0.601,0.128
			c0,0.017,0.009,0.035,0.026,0.051l0.313,0.307c0.183,0.179,0.275,0.452,0.275,0.82c0,0.521-0.212,0.879-0.637,1.076
			c-0.113,0.051-0.169,0.102-0.169,0.154c0,0.051,0.009,0.085,0.026,0.102l0.325,0.218c0.303,0.196,0.455,0.512,0.455,0.948
			c0,0.521-0.212,0.875-0.637,1.063c-0.13,0.077-0.195,0.141-0.195,0.192c0,0.051,0.065,0.102,0.195,0.154
			c0.424,0.188,0.637,0.555,0.637,1.102c0,0.478-0.23,0.845-0.689,1.101c-0.095,0.051-0.143,0.102-0.143,0.154
			c0,0.043,0.056,0.09,0.169,0.141c0.442,0.197,0.663,0.572,0.663,1.127c0,0.521-0.186,0.871-0.559,1.05
			c-0.182,0.077-0.273,0.136-0.273,0.179c0,0.06,0.071,0.119,0.214,0.179c0.412,0.205,0.617,0.564,0.617,1.075
			c0,0.453-0.155,0.777-0.466,0.973c-0.226,0.145-0.34,0.243-0.34,0.295c0,0.043,0.063,0.094,0.189,0.154
			c0.412,0.197,0.617,0.555,0.617,1.076c0,0.836-0.51,1.255-1.529,1.255c-0.454,0-0.788-0.06-1.002-0.179
			c-0.403-0.239-0.604-0.589-0.604-1.05c0-0.478,0.163-0.811,0.488-0.999l0.277-0.154c0.053-0.034,0.079-0.059,0.079-0.077
			c0-0.068-0.026-0.115-0.079-0.141l-0.303-0.18c-0.308-0.188-0.462-0.512-0.462-0.973c0-0.469,0.18-0.811,0.541-1.024
			c0.203-0.111,0.304-0.18,0.304-0.205c-0.009-0.043-0.026-0.077-0.053-0.102l-0.383-0.243c-0.273-0.162-0.409-0.465-0.409-0.909
			c0-0.461,0.154-0.786,0.462-0.974l0.303-0.179c0.044-0.026,0.07-0.064,0.079-0.115c0-0.034-0.132-0.136-0.397-0.307
			c-0.299-0.197-0.448-0.521-0.448-0.973c0-0.512,0.235-0.879,0.704-1.102c0.094-0.059,0.141-0.102,0.141-0.128
			c-0.009-0.051-0.034-0.085-0.077-0.102l-0.243-0.141c-0.35-0.188-0.525-0.525-0.525-1.011c0-0.47,0.166-0.803,0.499-0.999
			c0.213-0.128,0.32-0.218,0.32-0.269c0-0.051-0.017-0.077-0.051-0.077l-0.269-0.179c-0.333-0.239-0.499-0.563-0.499-0.973
			c0-0.41,0.158-0.743,0.473-0.999c0.102-0.059,0.154-0.119,0.154-0.179c0-0.085-0.175-0.128-0.525-0.128h-3.8
			c-0.375,0-0.691-0.116-0.947-0.35c-0.256-0.233-0.384-0.528-0.384-0.884c0-0.365,0.13-0.664,0.39-0.897
			c0.26-0.233,0.595-0.35,1.004-0.35h10.286c0.358,0,0.631,0.051,0.819,0.153C205.41,256.082,205.627,256.438,205.627,256.905z"/>
		<path fill="#FFFFFF" d="M210.898,259.4c0,0.511-0.239,0.886-0.716,1.124c-0.077,0.051-0.119,0.093-0.128,0.128
			c0,0.06,0.084,0.128,0.251,0.204c0.396,0.204,0.594,0.553,0.594,1.047c0,0.528-0.22,0.903-0.66,1.124
			c-0.123,0.051-0.185,0.107-0.185,0.166c0,0.051,0.061,0.102,0.185,0.154c0.44,0.187,0.66,0.553,0.66,1.098
			c0,0.485-0.171,0.818-0.515,0.996l-0.277,0.179c-0.035,0.009-0.053,0.034-0.053,0.077c0,0.043,0.128,0.141,0.383,0.294
			c0.308,0.179,0.462,0.494,0.462,0.945c0,0.426-0.136,0.737-0.409,0.932l-0.435,0.319v0.026c0,0.06,0.044,0.111,0.132,0.153
			c0.475,0.213,0.713,0.571,0.713,1.073c0,0.86-0.486,1.29-1.458,1.29c-0.533,0-0.894-0.064-1.083-0.191
			c-0.421-0.221-0.632-0.579-0.632-1.073c0-0.468,0.166-0.8,0.499-0.996c0.205-0.119,0.307-0.204,0.307-0.255
			c0-0.051-0.094-0.132-0.281-0.243c-0.35-0.187-0.525-0.524-0.525-1.009c0-0.502,0.2-0.86,0.601-1.073
			c0.136-0.059,0.205-0.123,0.205-0.191c0-0.051-0.111-0.145-0.333-0.281c-0.316-0.187-0.473-0.519-0.473-0.996
			c0-0.494,0.209-0.851,0.627-1.073c0.119-0.068,0.179-0.119,0.179-0.154v-0.051l-0.333-0.243c-0.316-0.213-0.473-0.536-0.473-0.971
			c0-0.451,0.166-0.779,0.499-0.983l0.281-0.191c0.034-0.034,0.051-0.06,0.051-0.077c0-0.034-0.017-0.068-0.053-0.102l-0.369-0.243
			c-0.273-0.162-0.409-0.473-0.409-0.932c0-0.494,0.224-0.86,0.673-1.099c0.105-0.059,0.158-0.115,0.158-0.166
			c0-0.026-0.009-0.051-0.026-0.077l-0.211-0.102c-0.396-0.187-0.594-0.545-0.594-1.073c0-0.835,0.529-1.252,1.586-1.252
			c0.438,0,0.757,0.06,0.954,0.179c0.421,0.264,0.632,0.63,0.632,1.099c0,0.502-0.239,0.877-0.716,1.124
			c-0.077,0.026-0.119,0.059-0.128,0.102c0,0.06,0.043,0.107,0.128,0.141C210.659,258.506,210.898,258.88,210.898,259.4z
			 M213.355,272.02c0,0.827-0.525,1.241-1.574,1.241c-1.032,0-1.548-0.431-1.548-1.292c0-0.457,0.196-0.802,0.589-1.034
			c0.222-0.138,0.567-0.207,1.036-0.207C212.856,270.728,213.355,271.159,213.355,272.02z M215.888,269.462
			c0,0.392-0.157,0.716-0.471,0.972c-0.196,0.196-0.629,0.294-1.3,0.294c-0.909,0-1.363-0.422-1.363-1.267
			c0-0.469,0.158-0.793,0.473-0.972l0.281-0.154c0.06-0.026,0.09-0.068,0.09-0.128c0-0.043-0.075-0.094-0.224-0.154
			c-0.413-0.179-0.62-0.537-0.62-1.075c0-0.52,0.218-0.887,0.655-1.1c0.171-0.111,0.505-0.166,1.002-0.166
			c0.985,0,1.477,0.431,1.477,1.292c0,0.486-0.197,0.827-0.592,1.023c-0.143,0.06-0.214,0.119-0.214,0.179
			c0,0.085,0.071,0.162,0.214,0.23C215.69,268.651,215.888,268.993,215.888,269.462z M218.383,272.033
			c-0.034,0.819-0.584,1.228-1.65,1.228c-0.972,0-1.458-0.435-1.458-1.305c0-0.802,0.503-1.203,1.51-1.203
			C217.892,270.754,218.425,271.18,218.383,272.033z M220.954,261.913c0,0.52-0.218,0.896-0.653,1.126
			c-0.119,0.051-0.179,0.107-0.179,0.166c0,0.043,0.07,0.102,0.211,0.179c0.414,0.222,0.62,0.58,0.62,1.075
			c0,0.461-0.154,0.785-0.462,0.972l-0.291,0.179c-0.035,0.034-0.053,0.06-0.053,0.077c0,0.068,0.097,0.166,0.291,0.294
			c0.343,0.179,0.515,0.512,0.515,0.998c0,0.495-0.224,0.861-0.673,1.1c-0.105,0.051-0.158,0.102-0.158,0.154
			c0,0.06,0.07,0.119,0.211,0.179c0.414,0.196,0.62,0.546,0.62,1.049c0,0.861-0.537,1.292-1.612,1.292
			c-0.447,0-0.766-0.064-0.955-0.192c-0.404-0.256-0.606-0.623-0.606-1.1c0-0.452,0.222-0.802,0.665-1.049
			c0.119-0.085,0.179-0.145,0.179-0.179c-0.061-0.085-0.198-0.192-0.409-0.32c-0.29-0.171-0.435-0.499-0.435-0.985
			c0-0.435,0.171-0.759,0.515-0.972c0.22-0.136,0.33-0.217,0.33-0.243c-0.009-0.009-0.015-0.019-0.02-0.032
			c-0.005-0.013-0.007-0.028-0.007-0.045l-0.409-0.256c-0.273-0.179-0.409-0.478-0.409-0.896c0-0.503,0.171-0.844,0.515-1.023
			c0.22-0.136,0.33-0.23,0.33-0.281c0-0.043-0.101-0.115-0.304-0.217c-0.36-0.222-0.541-0.563-0.541-1.024
			c0-0.486,0.22-0.853,0.66-1.1c0.123-0.068,0.185-0.128,0.185-0.179c0-0.043-0.072-0.102-0.217-0.179
			c-0.384-0.222-0.576-0.571-0.576-1.049c0-0.495,0.175-0.844,0.525-1.049c0.196-0.111,0.294-0.192,0.294-0.243
			s-0.068-0.102-0.205-0.154c-0.409-0.196-0.614-0.537-0.614-1.023c0-0.887,0.49-1.331,1.471-1.331c0.529,0,0.878,0.06,1.049,0.179
			c0.401,0.23,0.601,0.589,0.601,1.075c0,0.52-0.183,0.87-0.55,1.049c-0.171,0.085-0.256,0.154-0.256,0.205
			c0,0.06,0.068,0.124,0.205,0.192c0.401,0.188,0.601,0.546,0.601,1.075c0,0.495-0.183,0.844-0.55,1.049
			c-0.188,0.102-0.281,0.171-0.281,0.205c0,0.06,0.077,0.128,0.23,0.205C220.754,261.078,220.954,261.427,220.954,261.913z"/>
		<path fill="#FFFFFF" d="M227.031,269.411c0,0.367-0.128,0.663-0.384,0.889c-0.256,0.226-0.589,0.339-0.998,0.339h-0.243
			c-0.989,0-1.484-0.409-1.484-1.228c0-0.444,0.154-0.768,0.461-0.972l0.294-0.179c0.034-0.034,0.051-0.06,0.051-0.077
			c0-0.068-0.026-0.102-0.079-0.102l-0.251-0.166c-0.317-0.205-0.476-0.533-0.476-0.985c0-0.461,0.15-0.793,0.449-0.998l0.304-0.166
			c0.035-0.026,0.053-0.06,0.053-0.102c-0.009-0.043-0.026-0.068-0.053-0.077l-0.409-0.307c-0.229-0.188-0.344-0.469-0.344-0.844
			c0-0.503,0.159-0.836,0.476-0.998c0.22-0.128,0.33-0.213,0.33-0.256c0-0.051-0.017-0.085-0.053-0.102l-0.304-0.217
			c-0.299-0.213-0.449-0.529-0.449-0.947c0-0.478,0.18-0.815,0.542-1.011c0.176-0.102,0.264-0.183,0.264-0.243
			c0-0.026-0.009-0.051-0.026-0.077l-0.357-0.23c-0.282-0.196-0.423-0.503-0.423-0.921c0-0.375,0.133-0.691,0.4-0.947
			c0.267-0.256,0.589-0.371,0.967-0.345l0.323,0.038c0.946,0.077,1.419,0.486,1.419,1.228c0,0.469-0.119,0.785-0.358,0.947
			l-0.371,0.23c-0.034,0.034-0.051,0.06-0.051,0.077c0.009,0.043,0.026,0.077,0.051,0.102l0.307,0.217
			c0.281,0.188,0.422,0.499,0.422,0.934c0,0.444-0.141,0.759-0.422,0.947l-0.307,0.217c-0.034,0.034-0.051,0.06-0.051,0.077
			c0,0.06,0.111,0.154,0.333,0.281c0.299,0.179,0.448,0.503,0.448,0.972c0,0.461-0.149,0.785-0.448,0.972l-0.281,0.179
			c-0.034,0.034-0.051,0.068-0.051,0.102c0.009,0.043,0.026,0.077,0.051,0.102l0.256,0.166c0.316,0.188,0.473,0.52,0.473,0.998
			c0,0.529-0.218,0.896-0.653,1.1c-0.085,0.051-0.128,0.094-0.128,0.128c0,0.051,0.06,0.111,0.179,0.179
			C226.831,268.566,227.031,268.924,227.031,269.411z M234.528,271.905c0,0.367-0.126,0.667-0.377,0.902
			c-0.252,0.235-0.582,0.352-0.992,0.352h-5.527c-0.316,0-0.595-0.124-0.838-0.371c-0.243-0.247-0.365-0.533-0.365-0.857
			c0-0.341,0.124-0.627,0.371-0.857c0.247-0.23,0.563-0.345,0.947-0.345h5.45C234.085,270.728,234.528,271.121,234.528,271.905z
			 M234.554,256.911c0,0.819-0.482,1.228-1.446,1.228h-4.58c-0.785,0-1.275-0.051-1.471-0.154c-0.401-0.213-0.601-0.571-0.601-1.075
			c0-0.324,0.113-0.61,0.339-0.857c0.226-0.247,0.488-0.371,0.787-0.371h5.668c0.375,0,0.687,0.117,0.934,0.352
			C234.43,256.269,234.554,256.561,234.554,256.911z M237.061,264.434c0,0.461-0.152,0.785-0.455,0.972l-0.351,0.205
			c-0.017,0.009-0.026,0.034-0.026,0.077c0.009,0.043,0.027,0.081,0.054,0.115l0.308,0.179c0.313,0.188,0.47,0.495,0.47,0.921
			c0,0.486-0.165,0.823-0.496,1.011c-0.223,0.128-0.335,0.217-0.335,0.269c0,0.06,0.103,0.145,0.308,0.256
			c0.349,0.196,0.523,0.52,0.523,0.972c0,0.836-0.496,1.254-1.49,1.254c-1.096,0-1.645-0.409-1.645-1.228
			c0-0.486,0.175-0.827,0.525-1.023c0.171-0.094,0.256-0.171,0.256-0.23c-0.009-0.043-0.026-0.077-0.051-0.102l-0.307-0.217
			c-0.281-0.188-0.422-0.499-0.422-0.934c0-0.52,0.192-0.87,0.576-1.049l0.051-0.026c0.119-0.06,0.179-0.107,0.179-0.141
			c0-0.051-0.111-0.145-0.333-0.281c-0.316-0.188-0.473-0.52-0.473-0.998c0-0.478,0.175-0.819,0.525-1.023
			c0.188-0.111,0.281-0.188,0.281-0.23c-0.009-0.051-0.026-0.077-0.051-0.077l-0.256-0.192c-0.333-0.162-0.499-0.495-0.499-0.998
			c0-0.426,0.158-0.738,0.473-0.934l0.281-0.192c0.034-0.034,0.051-0.068,0.051-0.102c0-0.051-0.119-0.145-0.358-0.281
			c-0.299-0.179-0.448-0.486-0.448-0.921c0-0.853,0.493-1.279,1.477-1.279c0.514,0,0.852,0.051,1.015,0.154
			c0.428,0.264,0.642,0.623,0.642,1.075c0,0.486-0.178,0.827-0.533,1.024c-0.2,0.128-0.299,0.205-0.299,0.23
			c0,0.034,0.017,0.068,0.052,0.102l0.351,0.217c0.286,0.205,0.429,0.516,0.429,0.934c0,0.512-0.195,0.861-0.585,1.049
			c-0.165,0.085-0.247,0.149-0.247,0.192c0,0.06,0.043,0.111,0.13,0.154C236.828,263.564,237.061,263.931,237.061,264.434z"/>
		<path fill="#FFFFFF" d="M250.827,256.905c0,0.357-0.124,0.655-0.371,0.898c-0.247,0.242-0.554,0.363-0.921,0.363h-6.41
			c-0.264,0-0.397,0.034-0.397,0.102c0,0.068,0.042,0.137,0.125,0.205c0.309,0.29,0.464,0.598,0.464,0.922
			c0,0.495-0.172,0.845-0.516,1.05c-0.193,0.111-0.29,0.188-0.29,0.23c0.017,0.068,0.039,0.102,0.065,0.102l0.312,0.243
			c0.286,0.205,0.429,0.508,0.429,0.909c0,0.435-0.143,0.751-0.429,0.947l-0.377,0.269c0,0.009-0.002,0.015-0.007,0.019
			c-0.004,0.004-0.011,0.015-0.019,0.032c0,0.043,0.117,0.136,0.351,0.282c0.32,0.205,0.481,0.529,0.481,0.973
			c0,0.487-0.169,0.828-0.507,1.024c-0.2,0.111-0.299,0.188-0.299,0.23c0,0.06,0.082,0.132,0.247,0.217
			c0.373,0.188,0.559,0.538,0.559,1.05c0,0.453-0.238,0.832-0.715,1.14c-0.061,0.034-0.091,0.072-0.091,0.115
			s0.125,0.149,0.377,0.32c0.286,0.188,0.429,0.499,0.429,0.934c0,0.496-0.212,0.854-0.636,1.076
			c-0.139,0.068-0.212,0.124-0.221,0.166c0,0.06,0.03,0.102,0.091,0.128l0.26,0.18c0.338,0.23,0.507,0.546,0.507,0.948
			c0,0.82-0.484,1.229-1.452,1.229c-0.471,0-0.784-0.034-0.938-0.102c-0.497-0.213-0.745-0.597-0.745-1.151
			c0-0.554,0.209-0.913,0.627-1.075c0.111-0.043,0.166-0.094,0.166-0.154s-0.115-0.158-0.345-0.294
			c-0.299-0.179-0.448-0.503-0.448-0.972c0-0.444,0.149-0.768,0.448-0.972c0.23-0.119,0.345-0.205,0.345-0.256
			s-0.009-0.085-0.026-0.102l-0.371-0.243c-0.264-0.162-0.397-0.465-0.397-0.908c0-0.469,0.166-0.81,0.499-1.023l0.269-0.128
			c0.034-0.043,0.051-0.081,0.051-0.115c0-0.043-0.081-0.102-0.243-0.179c-0.384-0.239-0.576-0.597-0.576-1.075
			c0-0.469,0.183-0.81,0.55-1.024c0.179-0.119,0.269-0.196,0.269-0.23c0-0.034-0.047-0.077-0.141-0.128
			c-0.452-0.213-0.678-0.593-0.678-1.139c0-0.503,0.192-0.849,0.576-1.036c0.162-0.085,0.243-0.158,0.243-0.218
			c0-0.043-0.09-0.111-0.269-0.205c-0.367-0.196-0.55-0.537-0.55-1.023c0-0.478,0.158-0.81,0.473-0.998
			c0.213-0.128,0.32-0.213,0.32-0.256c0-0.06-0.017-0.107-0.051-0.141l-0.32-0.205c-0.281-0.188-0.422-0.495-0.422-0.921
			c0-0.554,0.226-0.93,0.678-1.126c0.205-0.085,0.712-0.128,1.522-0.128h7.203c0.341,0,0.633,0.121,0.876,0.363
			C250.706,256.288,250.827,256.574,250.827,256.905z M250.827,264.434c0,0.853-0.482,1.279-1.446,1.279h-1.574
			c-0.068,0-0.102,0.038-0.102,0.115c0,0.051,0.06,0.119,0.179,0.205c0.281,0.188,0.422,0.495,0.422,0.921
			c0,0.853-0.482,1.279-1.446,1.279c-0.503,0-0.861-0.06-1.075-0.179c-0.401-0.239-0.601-0.597-0.601-1.075
			c0-0.333,0.107-0.606,0.32-0.819l0.281-0.23c0.009-0.017,0.015-0.032,0.019-0.045c0.004-0.013,0.011-0.023,0.019-0.032
			c0-0.094-0.038-0.141-0.115-0.141h-0.576c-0.299,0-0.569-0.126-0.812-0.377c-0.243-0.252-0.365-0.535-0.365-0.851
			c0-0.35,0.117-0.642,0.352-0.876c0.235-0.235,0.527-0.352,0.876-0.352h4.196c0.452,0,0.785,0.085,0.998,0.256
			C250.678,263.76,250.827,264.067,250.827,264.434z M250.827,269.462c0,0.495-0.209,0.861-0.627,1.1
			c-0.188,0.111-0.495,0.166-0.921,0.166c-0.418,0-0.716-0.047-0.896-0.141c-0.452-0.222-0.678-0.58-0.678-1.075
			c0-0.495,0.218-0.861,0.653-1.1c0.196-0.102,0.495-0.154,0.896-0.154c0.452,0,0.776,0.051,0.972,0.154
			C250.627,268.634,250.827,268.984,250.827,269.462z M253.335,261.939c0,0.384-0.136,0.695-0.409,0.934
			c-0.273,0.239-0.623,0.358-1.049,0.358c-1.1,0-1.65-0.431-1.65-1.292c0-0.426,0.136-0.729,0.409-0.908l0.294-0.192
			c0.051-0.043,0.077-0.085,0.077-0.128v-0.051l-0.051-0.051l-0.294-0.179c-0.29-0.188-0.435-0.486-0.435-0.896
			c0-0.87,0.512-1.305,1.535-1.305c1.049,0,1.574,0.409,1.574,1.228c0,0.426-0.158,0.751-0.473,0.972l-0.256,0.179
			c-0.043,0.026-0.068,0.06-0.077,0.102c0,0.06,0.077,0.132,0.23,0.217C253.143,261.116,253.335,261.453,253.335,261.939z
			 M253.309,271.944c0,0.844-0.495,1.266-1.484,1.266c-1.066,0-1.599-0.405-1.599-1.215c0-0.827,0.478-1.241,1.433-1.241
			C252.759,270.754,253.309,271.151,253.309,271.944z"/>
		<path fill="#FFFFFF" d="M262.431,264.434c0,0.853-0.473,1.279-1.42,1.279h-2.252c-0.051,0-0.077,0.03-0.077,0.09
			c0,0.051,0.058,0.128,0.175,0.23c0.276,0.222,0.413,0.537,0.413,0.947c0,0.478-0.164,0.806-0.491,0.985l-0.277,0.166
			c-0.017,0.017-0.029,0.043-0.038,0.077c0,0.051,0.013,0.085,0.038,0.102l0.327,0.243c0.294,0.205,0.441,0.516,0.441,0.934
			c0,0.452-0.231,0.827-0.693,1.126c-0.067,0.026-0.105,0.064-0.113,0.115c0,0.051,0.096,0.136,0.29,0.256
			c0.344,0.213,0.516,0.546,0.516,0.998c0,0.512-0.225,0.887-0.675,1.126c-0.17,0.085-0.493,0.128-0.968,0.128
			c-0.994,0-1.491-0.417-1.491-1.252c0-0.485,0.239-0.852,0.716-1.099c0.068-0.051,0.102-0.093,0.102-0.128
			c0-0.059-0.064-0.123-0.192-0.191c-0.418-0.221-0.627-0.579-0.627-1.073c0-0.494,0.192-0.843,0.576-1.048
			c0.162-0.076,0.243-0.145,0.243-0.204c-0.009-0.042-0.026-0.077-0.051-0.102l-0.345-0.217c-0.281-0.204-0.422-0.524-0.422-0.958
			c0-0.503,0.239-0.877,0.716-1.125c0.043-0.034,0.085-0.072,0.128-0.115c0-0.043-0.026-0.077-0.077-0.102l-0.217-0.128
			c-0.367-0.187-0.55-0.536-0.55-1.047c0-0.536,0.217-0.903,0.652-1.099c0.111-0.043,0.166-0.094,0.166-0.154
			c0-0.043-0.09-0.115-0.269-0.217c-0.367-0.196-0.55-0.545-0.55-1.048c0-0.511,0.183-0.86,0.55-1.047
			c0.179-0.085,0.269-0.153,0.269-0.204c0-0.017-0.009-0.043-0.026-0.077l-0.32-0.179c-0.316-0.188-0.473-0.52-0.473-0.997
			c0-0.468,0.158-0.8,0.473-0.996l0.294-0.179c0.034-0.017,0.051-0.047,0.051-0.089c0-0.034-0.017-0.068-0.051-0.102l-0.32-0.179
			c-0.299-0.17-0.448-0.494-0.448-0.971c0-0.852,0.522-1.278,1.567-1.278c1.045,0,1.567,0.417,1.567,1.25
			c0,0.493-0.206,0.858-0.618,1.096c-0.134,0.077-0.206,0.128-0.214,0.153c0,0.068,0.021,0.107,0.063,0.115l0.302,0.204
			c0.31,0.212,0.466,0.536,0.466,0.969c0,0.544-0.214,0.91-0.642,1.096c-0.109,0.043-0.164,0.085-0.164,0.128
			c0,0.051,0.013,0.085,0.039,0.102l0.312,0.191c0.303,0.229,0.455,0.566,0.455,1.007c0,0.374-0.098,0.646-0.294,0.816
			c-0.196,0.17-0.294,0.276-0.294,0.319c0,0.085,0.034,0.128,0.102,0.128h2.405c0.333,0,0.623,0.119,0.87,0.358
			S262.431,264.093,262.431,264.434z M264.312,261.862c0,0.878-0.525,1.318-1.574,1.318c-1.049,0-1.574-0.422-1.574-1.267
			c0-0.836,0.525-1.254,1.574-1.254C263.787,260.66,264.312,261.061,264.312,261.862z M264.312,266.929
			c0,0.87-0.516,1.305-1.548,1.305c-1.066,0-1.599-0.418-1.599-1.254c0-0.861,0.516-1.292,1.548-1.292
			C263.779,265.688,264.312,266.101,264.312,266.929z M266.832,259.38c0,0.853-0.499,1.279-1.497,1.279
			c-0.452,0-0.793-0.06-1.023-0.179c-0.418-0.23-0.627-0.589-0.627-1.075c0-0.844,0.533-1.267,1.599-1.267
			C266.316,258.139,266.832,258.553,266.832,259.38z M266.832,269.462c0,0.367-0.141,0.691-0.422,0.972
			c-0.188,0.196-0.64,0.294-1.356,0.294c-0.392,0-0.714-0.117-0.966-0.352c-0.252-0.235-0.377-0.531-0.377-0.889
			c0-0.836,0.55-1.254,1.65-1.254c0.435,0,0.789,0.113,1.062,0.339C266.696,268.799,266.832,269.095,266.832,269.462z
			 M269.34,256.86c0,0.384-0.145,0.708-0.435,0.972c-0.213,0.188-0.635,0.281-1.267,0.281c-0.938,0-1.407-0.401-1.407-1.203
			c0-0.554,0.226-0.938,0.678-1.151c0.188-0.085,0.486-0.128,0.896-0.128C268.828,255.632,269.34,256.041,269.34,256.86z
			 M269.34,271.982c0,0.52-0.2,0.887-0.601,1.1c-0.196,0.102-0.507,0.154-0.934,0.154c-0.35,0-0.623-0.034-0.819-0.102
			c-0.503-0.196-0.755-0.571-0.755-1.126c0-0.324,0.113-0.606,0.339-0.844c0.226-0.239,0.497-0.367,0.812-0.384
			C268.687,270.703,269.34,271.104,269.34,271.982z"/>
	</g>
	<path fill="none" d="M125.357,150.907c0.741-2.828,0.606-4.105,0.606-4.105c-0.259-2.174-1.727-1.977-1.727-1.977
		c-1.015,0.149-1.16,1.533-1.16,1.533c-0.771,3.191,1.33,4.5,1.33,4.5c0.199,0.122,0.363,0.211,0.536,0.296
		C124.995,151.174,125.262,151.258,125.357,150.907z"/>
	<path fill="none" d="M124.236,144.824c-1.015,0.149-1.16,1.533-1.16,1.533c-0.771,3.191,1.33,4.5,1.33,4.5
		c0.199,0.122,0.363,0.211,0.536,0.296c0.053,0.021,0.32,0.105,0.415-0.246c0.741-2.828,0.606-4.105,0.606-4.105
		C125.704,144.627,124.236,144.824,124.236,144.824z"/>
	<path fill="none" d="M124.236,144.824c-0.849,0.142-1.16,1.533-1.16,1.533c-0.771,3.191,1.33,4.5,1.33,4.5
		c0.199,0.122,0.363,0.211,0.536,0.296c0.053,0.021,0.32,0.105,0.415-0.246c0.741-2.828,0.606-4.105,0.606-4.105
		C125.704,144.627,124.236,144.824,124.236,144.824z"/>
	<path fill="none" d="M124.236,144.824c-0.849,0.142-1.16,1.533-1.16,1.533c-0.771,3.191,1.33,4.5,1.33,4.5
		c0.199,0.122,0.363,0.211,0.536,0.296c0.053,0.021,0.32,0.105,0.415-0.246c0.741-2.828,0.606-4.105,0.606-4.105
		C125.704,144.627,124.236,144.824,124.236,144.824z"/>
	<path fill="none" d="M124.236,144.824c-0.849,0.142-1.16,1.533-1.16,1.533c-0.771,3.191,1.33,4.5,1.33,4.5
		c0.199,0.122,0.363,0.211,0.536,0.296c0.053,0.021,0.32,0.105,0.415-0.246c0.741-2.828,0.606-4.105,0.606-4.105
		C125.704,144.627,124.236,144.824,124.236,144.824z"/>
	<path fill="none" d="M154.618,142.477c0.062-0.636-0.345-0.761-0.709-0.613c-0.353,0.142-0.76,0.509-0.76,0.509
		c-4.094,3.738-6.92,12.256-7.128,12.896c0,0.001-0.049,0.126,0.036,0.176c0.036,0.021,0.091,0.018,0.194-0.07
		c0,0-0.002,0.004-0.003,0.006C154.107,148.594,154.618,142.477,154.618,142.477z"/>
	<path fill="none" d="M124.236,144.824c-0.849,0.142-1.16,1.533-1.16,1.533c-0.771,3.191,1.33,4.5,1.33,4.5
		c0.199,0.122,0.363,0.211,0.536,0.296c0.053,0.021,0.32,0.105,0.415-0.246c0.741-2.828,0.606-4.105,0.606-4.105
		C125.704,144.627,124.236,144.824,124.236,144.824z"/>
	<path fill="none" d="M154.618,142.477c0.062-0.636-0.345-0.761-0.709-0.613c-0.353,0.142-0.76,0.509-0.76,0.509
		c-4.094,3.738-6.92,12.256-7.128,12.896c0,0.001-0.049,0.126,0.036,0.176c0.036,0.021,0.091,0.018,0.194-0.07
		c0,0-0.002,0.004-0.003,0.006C154.107,148.594,154.618,142.477,154.618,142.477z"/>
	<path fill="none" d="M124.236,144.824c-0.849,0.142-1.16,1.533-1.16,1.533c-0.771,3.191,1.33,4.5,1.33,4.5
		c0.199,0.122,0.363,0.211,0.536,0.296c0.053,0.021,0.32,0.105,0.415-0.246c0.741-2.828,0.606-4.105,0.606-4.105
		C125.704,144.627,124.236,144.824,124.236,144.824z"/>
	<path fill="none" d="M124.236,144.824c-0.849,0.142-1.16,1.533-1.16,1.533c-0.771,3.191,1.33,4.5,1.33,4.5
		c0.199,0.122,0.363,0.211,0.536,0.296c0.053,0.021,0.32,0.105,0.415-0.246c0.741-2.828,0.606-4.105,0.606-4.105
		C125.704,144.627,124.236,144.824,124.236,144.824z"/>
	<path fill="none" d="M154.618,142.477c0.062-0.636-0.345-0.761-0.709-0.613c-0.353,0.142-0.76,0.509-0.76,0.509
		c-4.094,3.738-6.92,12.256-7.128,12.896c0,0.001-0.049,0.126,0.036,0.176c0.036,0.021,0.091,0.018,0.194-0.07
		c0,0-0.002,0.004-0.003,0.006C154.107,148.594,154.618,142.477,154.618,142.477z"/>
	<path fill="none" d="M154.618,142.477c0.062-0.636-0.345-0.761-0.709-0.613c-0.353,0.142-0.76,0.509-0.76,0.509
		c-4.094,3.738-6.92,12.256-7.128,12.896c0,0.001-0.049,0.126,0.036,0.176c0.036,0.021,0.091,0.018,0.194-0.07
		c0,0-0.002,0.004-0.003,0.006C154.107,148.594,154.618,142.477,154.618,142.477z"/>
	<path fill="none" d="M124.236,144.824c-0.849,0.142-1.16,1.533-1.16,1.533c-0.771,3.191,1.33,4.5,1.33,4.5
		c0.199,0.122,0.363,0.211,0.536,0.296c0.053,0.021,0.32,0.105,0.415-0.246c0.741-2.828,0.606-4.105,0.606-4.105
		C125.704,144.627,124.236,144.824,124.236,144.824z"/>
	<path fill="none" d="M154.618,142.477c0.062-0.636-0.345-0.761-0.709-0.613c-0.353,0.142-0.76,0.509-0.76,0.509
		c-4.094,3.738-6.92,12.256-7.128,12.896c0,0.001-0.049,0.126,0.036,0.176c0.036,0.021,0.091,0.018,0.194-0.07
		c0,0-0.002,0.004-0.003,0.006C154.107,148.594,154.618,142.477,154.618,142.477z"/>
	<path fill="none" d="M124.236,144.824c-0.849,0.142-1.16,1.533-1.16,1.533c-0.771,3.191,1.33,4.5,1.33,4.5
		c0.199,0.122,0.363,0.211,0.536,0.296c0.053,0.021,0.32,0.105,0.415-0.246c0.741-2.828,0.606-4.105,0.606-4.105
		C125.704,144.627,124.236,144.824,124.236,144.824z"/>
	<path fill="none" d="M154.618,142.477c0.062-0.636-0.345-0.761-0.709-0.613c-0.353,0.142-0.76,0.509-0.76,0.509
		c-4.094,3.738-6.92,12.256-7.128,12.896c0,0.001-0.049,0.126,0.036,0.176c0.036,0.021,0.091,0.018,0.194-0.07
		c0,0-0.002,0.004-0.003,0.006C154.107,148.594,154.618,142.477,154.618,142.477z"/>
	<path fill="none" d="M124.236,144.824c-0.849,0.142-1.16,1.533-1.16,1.533c-0.771,3.191,1.33,4.5,1.33,4.5
		c0.199,0.122,0.363,0.211,0.536,0.296c0.053,0.021,0.32,0.105,0.415-0.246c0.741-2.828,0.606-4.105,0.606-4.105
		C125.704,144.627,124.236,144.824,124.236,144.824z"/>
	<path fill="none" d="M203.451,132.422c0.186-0.517-0.016-0.785-0.07-0.844c-0.553-0.51-1.027-0.72-1.449-0.896
		c-4.203-1.755-8.765,12.691-8.765,12.691c-1.14,3.374,1.096,3.564,1.096,3.564c1.985,0.126,4.916-3.188,5.483-4.064
		c0.568-0.877,1.423-3.587,1.423-3.587c0.655-2.199,1.433-4.509,2.286-6.864L203.451,132.422z"/>
	<path fill="none" d="M124.236,144.824c-0.849,0.142-1.16,1.533-1.16,1.533c-0.771,3.191,1.33,4.5,1.33,4.5
		c0.199,0.122,0.363,0.211,0.536,0.296c0.053,0.021,0.32,0.105,0.415-0.246c0.741-2.828,0.606-4.105,0.606-4.105
		C125.704,144.627,124.236,144.824,124.236,144.824z"/>
	<path fill="none" d="M154.618,142.477c0.062-0.636-0.345-0.761-0.709-0.613c-0.353,0.142-0.76,0.509-0.76,0.509
		c-4.094,3.738-6.92,12.256-7.128,12.896c0,0.001-0.049,0.126,0.036,0.176c0.036,0.021,0.091,0.018,0.194-0.07
		c0,0-0.002,0.004-0.003,0.006C154.107,148.594,154.618,142.477,154.618,142.477z"/>
	<path fill="none" d="M203.381,131.578c-0.553-0.51-1.027-0.72-1.449-0.896c-4.203-1.755-8.765,12.691-8.765,12.691
		c-1.071,3.673,1.096,3.564,1.096,3.564c1.985,0.126,4.916-3.188,5.483-4.064c0.568-0.877,1.423-3.587,1.423-3.587
		c0.655-2.199,1.433-4.509,2.286-6.864l-0.004,0.002C203.664,131.865,203.435,131.637,203.381,131.578z"/>
	<path fill="none" d="M154.618,142.477c0.062-0.636-0.345-0.761-0.709-0.613c-0.353,0.142-0.76,0.509-0.76,0.509
		c-4.094,3.738-6.92,12.256-7.128,12.896c0,0.001-0.049,0.126,0.036,0.176c0.036,0.021,0.091,0.018,0.194-0.07
		c0,0-0.002,0.004-0.003,0.006C154.107,148.594,154.618,142.477,154.618,142.477z"/>
	<path fill="none" d="M124.236,144.824c-0.849,0.142-1.16,1.533-1.16,1.533c-0.771,3.191,1.33,4.5,1.33,4.5
		c0.199,0.122,0.363,0.211,0.536,0.296c0.053,0.021,0.32,0.105,0.415-0.246c0.741-2.828,0.606-4.105,0.606-4.105
		C125.704,144.627,124.236,144.824,124.236,144.824z"/>
	<path fill="none" d="M203.381,131.578c-0.553-0.51-1.027-0.72-1.449-0.896c-4.203-1.755-8.765,12.691-8.765,12.691
		c-1.071,3.673,1.096,3.564,1.096,3.564c1.985,0.126,4.916-3.188,5.483-4.064c0.568-0.877,1.423-3.587,1.423-3.587
		c0.655-2.199,1.433-4.509,2.286-6.864l-0.004,0.002C203.664,131.865,203.435,131.637,203.381,131.578z"/>
	<path fill="none" d="M154.618,142.477c0.062-0.636-0.345-0.761-0.709-0.613c-0.353,0.142-0.76,0.509-0.76,0.509
		c-4.094,3.738-6.92,12.256-7.128,12.896c0,0.001-0.049,0.126,0.036,0.176c0.036,0.021,0.091,0.018,0.194-0.07
		c0,0-0.002,0.004-0.003,0.006C154.107,148.594,154.618,142.477,154.618,142.477z"/>
	<path fill="none" d="M203.381,131.578c-0.553-0.51-1.027-0.72-1.449-0.896c-4.203-1.755-8.765,12.691-8.765,12.691
		c-1.071,3.673,1.096,3.564,1.096,3.564c1.985,0.126,4.916-3.188,5.483-4.064c0.568-0.877,1.423-3.587,1.423-3.587
		c0.655-2.199,1.433-4.509,2.286-6.864l-0.004,0.002C203.664,131.865,203.435,131.637,203.381,131.578z"/>
	<path fill="none" d="M124.236,144.824c-0.849,0.142-1.16,1.533-1.16,1.533c-0.771,3.191,1.33,4.5,1.33,4.5
		c0.199,0.122,0.363,0.211,0.536,0.296c0.053,0.021,0.32,0.105,0.415-0.246c0.741-2.828,0.606-4.105,0.606-4.105
		C125.704,144.627,124.236,144.824,124.236,144.824z"/>
	<path fill="none" d="M154.618,142.477c0.062-0.636-0.345-0.761-0.709-0.613c-0.353,0.142-0.76,0.509-0.76,0.509
		c-4.094,3.738-6.92,12.256-7.128,12.896c0,0.001-0.049,0.126,0.036,0.176c0.036,0.021,0.091,0.018,0.194-0.07
		c0,0-0.002,0.004-0.003,0.006C154.107,148.594,154.618,142.477,154.618,142.477z"/>
	<path fill="none" d="M203.381,131.578c-0.553-0.51-1.027-0.72-1.449-0.896c-4.203-1.755-8.765,12.691-8.765,12.691
		c-1.071,3.673,1.096,3.564,1.096,3.564c1.985,0.126,4.916-3.188,5.483-4.064c0.568-0.877,1.423-3.587,1.423-3.587
		c0.655-2.199,1.433-4.509,2.286-6.864l-0.004,0.002C203.664,131.865,203.435,131.637,203.381,131.578z"/>
	<path fill="none" d="M124.236,144.824c-0.849,0.142-1.16,1.533-1.16,1.533c-0.771,3.191,1.33,4.5,1.33,4.5
		c0.199,0.122,0.363,0.211,0.536,0.296c0.053,0.021,0.32,0.105,0.415-0.246c0.741-2.828,0.606-4.105,0.606-4.105
		C125.704,144.627,124.236,144.824,124.236,144.824z"/>
	<path fill="none" d="M124.236,144.824c-0.849,0.142-1.16,1.533-1.16,1.533c-0.771,3.191,1.33,4.5,1.33,4.5
		c0.199,0.122,0.363,0.211,0.536,0.296c0.053,0.021,0.32,0.105,0.415-0.246c0.741-2.828,0.606-4.105,0.606-4.105
		C125.704,144.627,124.236,144.824,124.236,144.824z"/>
	<path fill="none" d="M154.618,142.477c0.062-0.636-0.345-0.761-0.709-0.613c-0.353,0.142-0.76,0.509-0.76,0.509
		c-4.094,3.738-6.92,12.256-7.128,12.896c0,0.001-0.049,0.126,0.036,0.176c0.036,0.021,0.091,0.018,0.194-0.07
		c0,0-0.002,0.004-0.003,0.006C154.107,148.594,154.618,142.477,154.618,142.477z"/>
	<path fill="none" d="M203.381,131.578c-0.553-0.51-1.027-0.72-1.449-0.896c-4.203-1.755-8.765,12.691-8.765,12.691
		c-1.071,3.673,1.096,3.564,1.096,3.564c1.985,0.126,4.916-3.188,5.483-4.064c0.568-0.877,1.423-3.587,1.423-3.587
		c0.655-2.199,1.433-4.509,2.286-6.864l-0.004,0.002C203.664,131.865,203.435,131.637,203.381,131.578z"/>
	<path fill="none" d="M221.712,127.49c-0.226-0.331-0.418,0.119-0.418,0.119h-0.001c-1.892,5.091-3.609,8.173-4.202,9.177l0,0
		c0,0-0.22,0.397-0.079,0.716c1.3,2.855,5.165,1.981,5.165,1.981c4.074-1.187,3.232-5.251,3.232-5.251
		C224.946,132.422,223.041,129.431,221.712,127.49z"/>
	<path fill="none" d="M203.381,131.578c-0.553-0.51-1.027-0.72-1.449-0.896c-4.203-1.755-8.765,12.691-8.765,12.691
		c-1.071,3.673,1.096,3.564,1.096,3.564c1.985,0.126,4.916-3.188,5.483-4.064c0.568-0.877,1.423-3.587,1.423-3.587
		c0.655-2.199,1.433-4.509,2.286-6.864l-0.004,0.002C203.664,131.865,203.435,131.637,203.381,131.578z"/>
	<path fill="none" d="M154.618,142.477c0.062-0.636-0.345-0.761-0.709-0.613c-0.353,0.142-0.76,0.509-0.76,0.509
		c-4.094,3.738-6.92,12.256-7.128,12.896c0,0.001-0.049,0.126,0.036,0.176c0.036,0.021,0.091,0.018,0.194-0.07
		c0,0-0.002,0.004-0.003,0.006C154.107,148.594,154.618,142.477,154.618,142.477z"/>
	<path fill="none" d="M124.236,144.824c-0.849,0.142-1.16,1.533-1.16,1.533c-0.771,3.191,1.33,4.5,1.33,4.5
		c0.199,0.122,0.363,0.211,0.536,0.296c0.053,0.021,0.32,0.105,0.415-0.246c0.741-2.828,0.606-4.105,0.606-4.105
		C125.704,144.627,124.236,144.824,124.236,144.824z"/>
	<path fill="none" d="M221.712,127.49c-0.226-0.331-0.418,0.119-0.418,0.119h-0.001c-1.892,5.091-3.609,8.173-4.202,9.177l0,0
		c0,0-0.22,0.397-0.079,0.716c1.3,2.855,5.165,1.981,5.165,1.981c4.074-1.187,3.232-5.251,3.232-5.251
		C224.946,132.422,223.041,129.431,221.712,127.49z"/>
	<path fill="none" d="M154.618,142.477c0.062-0.636-0.345-0.761-0.709-0.613c-0.353,0.142-0.76,0.509-0.76,0.509
		c-4.094,3.738-6.92,12.256-7.128,12.896c0,0.001-0.049,0.126,0.036,0.176c0.036,0.021,0.091,0.018,0.194-0.07
		c0,0-0.002,0.004-0.003,0.006C154.107,148.594,154.618,142.477,154.618,142.477z"/>
	<path fill="none" d="M203.381,131.578c-0.553-0.51-1.027-0.72-1.449-0.896c-4.203-1.755-8.765,12.691-8.765,12.691
		c-1.071,3.673,1.096,3.564,1.096,3.564c1.985,0.126,4.916-3.188,5.483-4.064c0.568-0.877,1.423-3.587,1.423-3.587
		c0.655-2.199,1.433-4.509,2.286-6.864l-0.004,0.002C203.664,131.865,203.435,131.637,203.381,131.578z"/>
	<path fill="none" d="M124.236,144.824c-0.849,0.142-1.16,1.533-1.16,1.533c-0.771,3.191,1.33,4.5,1.33,4.5
		c0.199,0.122,0.363,0.211,0.536,0.296c0.053,0.021,0.32,0.105,0.415-0.246c0.741-2.828,0.606-4.105,0.606-4.105
		C125.704,144.627,124.236,144.824,124.236,144.824z"/>
	<path fill="none" d="M221.712,127.49c-0.226-0.331-0.418,0.119-0.418,0.119h-0.001c-1.892,5.091-3.609,8.173-4.202,9.177l0,0
		c0,0-0.22,0.397-0.079,0.716c1.3,2.855,5.165,1.981,5.165,1.981c4.074-1.187,3.232-5.251,3.232-5.251
		C224.946,132.422,223.041,129.431,221.712,127.49z"/>
	<g>
		<path fill="#FFFFFF" d="M203.381,131.578c-0.553-0.51-1.027-0.72-1.449-0.896c-4.203-1.755-8.765,12.691-8.765,12.691
			c-1.071,3.673,1.096,3.564,1.096,3.564c1.985,0.126,4.916-3.188,5.483-4.064c0.568-0.877,1.423-3.587,1.423-3.587
			c0.655-2.199,1.433-4.509,2.286-6.864l-0.004,0.002C203.664,131.865,203.435,131.637,203.381,131.578z"/>
		<path fill="#FFFFFF" d="M154.618,142.477c0.062-0.636-0.345-0.761-0.709-0.613c-0.353,0.142-0.76,0.509-0.76,0.509
			c-4.094,3.738-6.92,12.256-7.128,12.896c0,0.001-0.049,0.126,0.036,0.176c0.036,0.021,0.091,0.018,0.194-0.07
			c0,0-0.002,0.004-0.003,0.006C154.107,148.594,154.618,142.477,154.618,142.477z"/>
		<path fill="#FFFFFF" d="M124.236,144.824c-0.849,0.142-1.16,1.533-1.16,1.533c-0.771,3.191,1.33,4.5,1.33,4.5
			c0.199,0.122,0.363,0.211,0.536,0.296c0.053,0.021,0.32,0.105,0.415-0.246c0.741-2.828,0.606-4.105,0.606-4.105
			C125.704,144.627,124.236,144.824,124.236,144.824z"/>
		<path fill="#FFFFFF" d="M221.712,127.49c-0.226-0.331-0.418,0.119-0.418,0.119h-0.001c-1.892,5.091-3.609,8.173-4.202,9.177
			c0,0-0.22,0.397-0.079,0.716c1.3,2.855,5.165,1.981,5.165,1.981c4.074-1.187,3.232-5.251,3.232-5.251
			C224.946,132.422,223.041,129.431,221.712,127.49z"/>
		<path fill="#FFFFFF" d="M239.239,136.304c-0.241,0-0.41,0.024-0.507,0.048v1.135h0.435c0.507,0,0.918-0.169,0.918-0.58
			C240.085,136.546,239.818,136.304,239.239,136.304z"/>
		<path fill="#FFFFFF" d="M239.336,134.493h-0.024c-1.715,0-3.043,1.424-3.043,3.163c0,1.763,1.328,3.163,3.091,3.163
			c1.714,0.024,3.018-1.4,3.018-3.139C242.378,135.917,241.074,134.493,239.336,134.493z M240.277,139.709
			c-0.121-0.145-0.193-0.483-0.314-0.966c-0.072-0.411-0.314-0.604-0.821-0.604h-0.435v1.57h-0.917v-3.96
			c0.362-0.049,0.869-0.121,1.521-0.121c0.748,0,1.086,0.121,1.352,0.314c0.241,0.169,0.41,0.459,0.41,0.845
			c0,0.483-0.362,0.797-0.82,0.942v0.049c0.386,0.121,0.58,0.435,0.7,0.965c0.12,0.603,0.217,0.821,0.29,0.966H240.277z"/>
		<path fill="#FFFFFF" d="M282.601,194.002V65.731c0-7.436-6.76-9.802-6.76-9.802L158.598,27.565c-8.915-1.859-16.435,0-16.435,0
			L26.564,56.016l-2.334,0.565c0,0-6.358,2.226-6.741,9.143c-0.077,0.786-0.046,1.286-0.046,1.286l-0.043,125.132
			c0,9.803,7.817,11.154,7.817,11.154l117.116,27.519c7.774,1.522,16.266,0,16.266,0l116.06-27.519
			C282.77,201.776,282.601,194.002,282.601,194.002z M191.003,45.754c0.002,0.02,0.003,0.04,0.005,0.06
			C191.006,45.793,191.004,45.776,191.003,45.754L191.003,45.754z M186.63,91.003L186.63,91.003l3.514-23.197
			c0.002-0.013,0.153-0.898,0.923-0.898h9.12c0.786,0,0.936,0.89,0.936,0.89l3.597,21.149c0.158,0.935-0.77,1.039-0.77,1.039v0.002
			c-1.906,0.181-3.789,0.368-5.647,0.56v-0.001c-0.745,0.077-0.911-0.694-0.911-0.694v0l-0.295-1.943
			c-0.418-2.696-0.837-6.39-1.214-10.638l0,0c-0.061-0.683-0.193-0.692-0.202-0.692c-0.127,0-0.178,0.345-0.197,0.547
			c-0.383,5.21-0.603,7.162-1.043,10.781l-0.304,2.252c-0.11,0.812-0.873,0.924-0.873,0.924l0.001,0.002
			c-1.998,0.222-3.966,0.45-5.906,0.683V91.77C186.513,91.871,186.63,91.003,186.63,91.003z M173.775,67.75
			c0.023-0.191,0.155-0.836,0.882-0.836l-0.003-0.006h6.492l-0.003,0.006c0.736,0,0.863,0.662,0.884,0.844v23.543
			c0,1.154-0.873,1.248-0.873,1.248v0.002c-2.25,0.295-4.463,0.596-6.633,0.905l-0.001-0.002c-0.727,0.103-0.746-0.715-0.746-0.715
			V67.75z M146.435,67.8c0,0,0.025-0.86,0.912-0.892h9.78c6.673,0,9.4,0.677,11.195,2.936c1.937,2.334,2.439,5.269,2.439,14.453
			v8.929c0,0.766-0.75,0.888-0.75,0.888l0.001,0.002c-2.277,0.343-4.513,0.692-6.698,1.05l0-0.001
			c-0.749,0.122-0.804-0.819-0.804-0.819V81.511c0-6.625-1.005-7.979-5.812-7.979h-1.261c-0.751,0-0.748,0.854-0.748,0.854v21.341
			c0,0.949-0.858,1.079-0.858,1.079l-0.001,0.001c-2.232,0.409-4.411,0.825-6.538,1.245v-0.001
			c-0.812,0.159-0.855-0.872-0.855-0.872V67.8z M121.535,67.8c0,0,0.005-0.856,0.883-0.892h20.324c0,0,0.966,0.02,0.966,0.892v6.295
			c0,0.868-0.966,0.867-0.966,0.867H130.64c-0.867,0-0.852,0.898-0.852,0.898v11.026c0,0-0.001,0.797,0.811,0.797h11.299
			c0,0,1.021,0.029,1.021,0.978v5.36c0,0.959-1.021,0.964-1.021,0.964h-11.299c-0.805,0-0.811,0.765-0.811,0.765v5.213
			c0,0.919-0.853,1.143-0.853,1.143l0.001,0.001c-2.266,0.557-4.453,1.117-6.567,1.679l0-0.001
			c-0.818,0.216-0.834-0.742-0.834-0.742V67.8z M84.005,67.8c0,0,0.035-0.892,0.888-0.892l0,0h11.054c0,0,0.759,0.001,0.901,0.891
			l2.513,15.82c0.534,3.221,0.944,6.509,1.403,11.254v0.001c0.017,0.177,0.035,0.358,0.052,0.539
			c0.029,0.184,0.071,0.267,0.121-0.083c0.016-0.15,0.033-0.307,0.049-0.452c0-0.002,0-0.003,0-0.006
			c0.557-5.115,0.789-7.096,1.46-11.254l2.514-15.82c0.001-0.007,0.15-0.891,0.94-0.891h11.162c0,0,0.884,0.015,0.884,0.892v36.207
			c0,1.033-0.963,1.257-0.963,1.257l0.001,0.001c-2.02,0.574-3.965,1.148-5.835,1.719l0-0.002c-1.077,0.327-1.098-0.965-1.098-0.965
			v-15.02c0-2.25,0.095-6.589,0.222-10.31c-0.009-0.002-0.02-0.004-0.02-0.004s0.066-0.945-0.173-0.961c0,0-0.305-0.079-0.397,0.891
			l-0.009-0.013c-0.683,4.015-1.174,6.924-1.704,9.869l-3.054,17.451c-0.195,1.111-1.127,1.421-1.127,1.421l-0.001,0.002
			c-1.743,0.587-3.408,1.168-4.995,1.741l0-0.001c-1.104,0.395-1.423-0.896-1.425-0.906l-3.533-20.385
			c-0.287-1.957-0.646-3.914-1.004-5.872l-0.574-3.463c-0.018-0.101-0.034-0.198-0.051-0.298c-0.125-0.48-0.32-0.438-0.32-0.438
			c-0.195,0.013-0.187,0.639-0.177,0.87l0.004,0.08c0,0.002,0.001,0.01,0.001,0.01l0.042,0.905c0.072,1.656,0.144,5.57,0.144,8.205
			v22.439c0,1.467-1.18,1.95-1.18,1.95l0.002,0.003c-2.018,0.824-3.87,1.619-5.544,2.372l0-0.001c-1.141,0.508-1.172-1-1.172-1V67.8
			z M99.532,203.509c0.018,2.377-1.308,2.373-1.308,2.373c-5.914,0.122-9.419-3.336-9.419-3.336c-2.287-1.975-1.697-5.93-1.697-5.93
			c2.026-14.011,9.419-31.134,9.419-31.134c7.843-19.504,20.505-39.092,24.157-44.572c0.122-0.183,0.239-0.358,0.124-0.525
			c-0.079-0.113-0.222-0.093-0.306-0.067c-34.472,13.283-44.842,24.842-44.842,24.842c-1.726,1.599-2.761,0.499-3.267-0.975
			c-0.37-1.079-0.365-2.389-0.365-2.389c-0.015-6.573,2.253-10.562,3.541-12.987c1.289-2.426,4.28-4.304,4.28-4.304
			c41.541-22.611,122.534-30.802,122.534-30.802c3.173-0.327,4.004,0.237,4.004,0.237c1.295,0.809,2.096,1.82,2.096,1.82
			c0.767,1.168-1.266,1.505-1.266,1.505c-37.76,6.247-67.309,15.532-76.232,19.206c-0.555,0.229-0.959,0.713-1.059,0.856
			c-12.626,19.591-24.425,52.751-24.425,52.751C99.272,188.164,99.532,203.509,99.532,203.509z M231.079,139.6
			c-1.765,4.952-8.724,6.207-8.724,6.207c-5.44,0.996-7.794-2.357-8.369-3.364c-0.133-0.277-0.387,0-0.387,0l-0.001-0.001
			c-3.598,4.181-5.664,6.237-5.664,6.237c-2.651,2.452-4.909,2.566-4.909,2.566c-1.729,0.107-2.542-1.291-2.83-2.022l-0.001,0.002
			c-0.164-0.514-0.62,0-0.62,0l0-0.002c-5.683,5.857-9.468,5.781-9.468,5.781c-1.765-0.067-2.572-1.296-3.039-2.884l-0.002,0.001
			c-0.146-0.434-0.398-0.171-0.501-0.034c-0.014,0.02-0.027,0.039-0.041,0.059c-0.003,0.005-0.006,0.009-0.006,0.009
			c-1.877,2.653-3.868,4.572-3.868,4.572c-2.825,2.623-5.345,2.021-5.345,2.021c-1.965-0.307-2.591-1.488-2.73-1.705
			c-2.261-3.499,5.378-18.853,5.378-18.853c0.631-1.326,0.358-1.722,0.358-1.722c-1.209-0.603-5.359,2.895-5.359,2.895
			c-2.657,2.335-4.049,4.522-5.338,7.9c-0.249,0.652-0.337,1.068-0.337,1.068c-1.531,6.586-2.949,11.805-2.949,11.805
			c-0.547,1.999-2.08,3.043-2.08,3.043c-3.808,2.695-6.045,2.252-6.045,2.252c-1.151-0.239-0.21-2.293-0.21-2.293
			c1.393-3.326,2.55-6.764,3.589-9.967c0.44-1.356-0.342-0.043-0.342-0.043v-0.003c-5.463,9.054-12.312,15.456-12.312,15.456
			c-2.827,2.555-6.52,1.362-6.726,1.296c-1.313-0.343-2.221-1.598-2.644-2.804l-0.001,0.001c-0.125-0.335-0.412,0.029-0.412,0.029
			c-3.297,4.232-6.864,7.455-6.864,7.455c-2.061,1.879-4.145,1.924-4.145,1.924c-2.623,0.049-2.477-3.834-2.477-3.834
			c0.403-6.77,5.879-15.122,5.879-15.122c0.267-0.396-0.058-0.791-0.058-0.791c-0.16-0.208-0.517-0.148-0.517-0.148
			c-1.234,0.27-2.321,0.395-3.258,0.433h0.002c-0.455,0.026-0.662,0.549-0.662,0.549h-0.001
			c-6.608,17.271-12.999,22.096-12.999,22.096c-1.978,1.636-3.465,1.433-3.465,1.433c-4.755-0.494-4.242-5.09-4.242-5.09
			c0.013-1.099,1.191-1.433,1.191-1.433c9.406-3.459,14.998-16.111,14.998-16.111c0.202-0.434,0.388-0.849,0.566-1.255
			c0.325-0.775-0.179-1.052-0.179-1.052l0.004-0.004c-7.04-4.128-3.03-12.713-3.03-12.713c1.404-2.915,4.011-3.41,4.011-3.41
			c1.974-0.543,3.465,0.248,3.465,0.248c4.233,1.778,1.929,10.922,1.929,10.922c-0.047,0.232-0.067,0.333-0.089,0.423
			c-0.023,0.177,0.012,0.333,0.244,0.327c2.895-0.26,5.068-1.788,5.068-1.788c0.97-0.644,1.405-0.144,1.768,0.345
			c0.363,0.49,1.102,2.719,1.268,3.459c0.166,0.741-0.345,1.68-0.345,1.68c-2.711,4.448-5.391,9.835-5.391,9.835
			c-0.238,0.52-0.403,0.965-0.525,1.359c-0.102,0.391-0.437,1.9,0.501,2.074c0,0,0.771,0.138,2.03-0.915
			c0,0,2.976-2.563,4.691-4.511c0,0,0.382-0.372,0.409-1.111l0.001,0.001c0.115-5.724,2.671-11.716,2.671-11.716
			c5.042-10.892,11.057-12.349,11.057-12.349c2.605-1.006,4.509,0,4.509,0c1.47,0.663,1.506,2.359,1.506,2.359
			c-0.036,5.515-3.728,10.908-3.728,10.908c-3.149,4.822-6.7,7.686-8.34,9.039c0,0-0.264,0.236-0.159,0.528
			c0.409,1.18,0.85,1.481,0.85,1.481c1.171,0.832,3.613-1.804,3.613-1.804c7.035-7.176,12.842-18.318,14.807-22.402
			c0.493-1.024,0.578-1.428,0.582-1.441c0.215-0.809,0.367-2.315,0.367-2.315c0.093-1.495,4.373-2.89,4.373-2.89
			c2.23-0.592,1.467,3.018,1.467,3.018c-0.203,0.96-0.185,0.78-0.477,2.02l-0.115,0.484c0,0-0.169,0.711,0.115,0.263
			c2.348-3.285,5.522-5.822,5.522-5.822c4.114-3.053,6.686-1.377,6.686-1.377c3.076,1.607,0.039,8.562,0.039,8.562
			c-2.192,5.355-3.088,8.417-3.088,8.417c-1.19,3.767,0.296,3.894,0.296,3.894c1.36,0.243,3.818-2.682,4.935-4.145
			c0.326-0.42,0.376-1.019,0.376-1.019h0.001c0.237-2.368,0.698-4.278,0.698-4.278c3.859-13.949,12.377-16.623,12.377-16.623
			c2.441-0.827,4.526,0.11,5.542,0.995l0-0.002c0,0,0.331,0.287,0.53-0.206h0c5.854-14.552,13.277-28.788,13.277-28.788
			c1.127-2.149,2.651-2.903,2.651-2.903c5.52-2.991,8.412-0.988,8.412-0.988c1.231,0.639-1.637,3.927-1.637,3.927
			c-11.324,12.495-22.738,44.058-22.738,44.058c-0.763,2.222,0.268,2.417,0.268,2.417c1.249,0.379,4.24-3.266,4.24-3.266
			c3.319-3.818,7.38-13.558,8.558-16.858c0.157-0.442,0.008-0.866,0.008-0.866l0.004-0.001c-1.001-3.158-0.16-5.542-0.16-5.542
			c1.679-5.075,5.734-4.246,5.734-4.246c3.854,0.71,1.445,8.974,1.445,8.974c-0.321,1.05-0.082,1.667-0.082,1.667
			c1.21,3.106,4.591,10.208,4.591,10.208C231.933,136.9,231.079,139.6,231.079,139.6z M239.336,141.64
			c-2.27,0-4.081-1.762-4.081-3.984c0-2.221,1.811-3.96,4.081-3.96h0.024c2.245,0,4.033,1.738,4.033,3.96
			C243.393,139.878,241.605,141.64,239.336,141.64z"/>
	</g>
</g>
</svg>
