<?xml version="1.0" encoding="utf-8"?>
<!-- Generator: Adobe Illustrator 17.0.0, SVG Export Plug-In . SVG Version: 6.00 Build 0)  -->
<!DOCTYPE svg PUBLIC "-//W3C//DTD SVG 1.1//EN" "http://www.w3.org/Graphics/SVG/1.1/DTD/svg11.dtd">
<svg version="1.1" id="Capa_1" xmlns="http://www.w3.org/2000/svg" xmlns:xlink="http://www.w3.org/1999/xlink" x="0px" y="0px"
	 width="300px" height="300px" viewBox="0 0 300 300" enable-background="new 0 0 300 300" xml:space="preserve">
<g>
	<g>
		<path fill="#FFFFFF" d="M116.941,214.418c-0.503-0.559-1.21-0.838-2.127-0.838c-0.756,0-1.306,0.143-1.65,0.43
			c-0.346,0.287-0.518,0.675-0.518,1.162c0,0.246,0.043,0.454,0.131,0.621c0.086,0.167,0.222,0.306,0.408,0.42
			c0.186,0.112,0.422,0.21,0.709,0.294c0.287,0.083,0.626,0.165,1.019,0.244c0.422,0.088,0.8,0.184,1.134,0.289
			c0.334,0.105,0.62,0.238,0.857,0.398c0.236,0.16,0.416,0.356,0.544,0.589c0.127,0.234,0.191,0.52,0.191,0.862
			s-0.067,0.64-0.201,0.893c-0.134,0.255-0.324,0.468-0.566,0.639c-0.244,0.17-0.535,0.299-0.873,0.387
			c-0.339,0.088-0.714,0.131-1.129,0.131c-1.206,0-2.229-0.386-3.063-1.157l0.294-0.446c0.327,0.341,0.726,0.613,1.2,0.812
			c0.472,0.2,1.003,0.299,1.592,0.299c0.676,0,1.205-0.124,1.587-0.37c0.38-0.248,0.571-0.623,0.571-1.124
			c0-0.255-0.048-0.47-0.146-0.649c-0.098-0.177-0.25-0.332-0.453-0.463c-0.205-0.131-0.456-0.244-0.759-0.339
			c-0.301-0.095-0.656-0.184-1.062-0.272c-0.415-0.088-0.78-0.181-1.096-0.279s-0.583-0.22-0.802-0.37
			c-0.217-0.15-0.38-0.329-0.49-0.54c-0.108-0.21-0.164-0.475-0.164-0.795c0-0.349,0.067-0.657,0.201-0.928
			c0.134-0.268,0.322-0.496,0.563-0.682c0.239-0.184,0.527-0.325,0.861-0.42c0.334-0.093,0.706-0.141,1.112-0.141
			c0.503,0,0.95,0.074,1.342,0.224c0.392,0.15,0.749,0.377,1.067,0.682L116.941,214.418z"/>
		<path fill="#FFFFFF" d="M121.259,220.874v-7.731h0.556v7.731H121.259z"/>
		<path fill="#FFFFFF" d="M126.601,214.179v6.695h-0.556v-7.741h0.425l5.43,6.814v-6.803h0.556v7.731h-0.513L126.601,214.179z"/>
		<path fill="#FFFFFF" d="M136.173,216.948c0-0.465,0.081-0.928,0.244-1.391c0.163-0.461,0.403-0.873,0.714-1.237
			c0.313-0.363,0.697-0.659,1.151-0.888c0.454-0.229,0.972-0.344,1.554-0.344c0.69,0,1.279,0.158,1.766,0.475
			c0.487,0.317,0.847,0.721,1.079,1.215l-0.458,0.263c-0.131-0.27-0.289-0.496-0.475-0.676c-0.184-0.182-0.386-0.329-0.599-0.442
			c-0.215-0.112-0.439-0.194-0.671-0.244c-0.232-0.052-0.461-0.077-0.687-0.077c-0.494,0-0.931,0.1-1.308,0.299
			c-0.379,0.201-0.699,0.461-0.96,0.78c-0.262,0.32-0.46,0.682-0.594,1.086c-0.134,0.403-0.201,0.809-0.201,1.215
			c0,0.458,0.079,0.895,0.239,1.308c0.16,0.415,0.379,0.78,0.654,1.096c0.277,0.317,0.604,0.57,0.983,0.759
			c0.377,0.188,0.785,0.282,1.22,0.282c0.232,0,0.472-0.029,0.714-0.086c0.244-0.059,0.48-0.15,0.709-0.274
			c0.229-0.124,0.442-0.281,0.639-0.473c0.196-0.193,0.36-0.42,0.491-0.682l0.468,0.229c-0.131,0.291-0.306,0.549-0.528,0.773
			c-0.222,0.225-0.472,0.415-0.747,0.568c-0.277,0.153-0.57,0.267-0.878,0.342c-0.31,0.077-0.613,0.115-0.91,0.115
			c-0.532,0-1.015-0.115-1.456-0.349c-0.441-0.232-0.819-0.535-1.139-0.91c-0.32-0.373-0.57-0.799-0.747-1.275
			C136.261,217.927,136.173,217.442,136.173,216.948z"/>
		<path fill="#FFFFFF" d="M151.59,220.373v0.501h-5.156v-7.741h5.058v0.501h-4.502v3.043h3.936v0.48h-3.936v3.217H151.59z"/>
		<path fill="#FFFFFF" d="M159.908,220.874c0-0.21,0.017-0.442,0.055-0.692c0.034-0.251,0.117-0.503,0.244-0.752
			c0.127-0.251,0.31-0.499,0.551-0.742c0.241-0.244,0.568-0.468,0.981-0.671c0.176-0.088,0.379-0.181,0.606-0.284
			c0.231-0.102,0.444-0.219,0.651-0.355c0.203-0.134,0.375-0.289,0.516-0.468c0.141-0.177,0.213-0.387,0.213-0.626
			c0-0.153-0.034-0.305-0.1-0.453c-0.065-0.15-0.162-0.282-0.289-0.398c-0.127-0.117-0.286-0.212-0.472-0.284
			c-0.189-0.072-0.413-0.108-0.668-0.108c-0.262,0-0.492,0.036-0.692,0.108c-0.2,0.072-0.375,0.158-0.523,0.256
			s-0.275,0.198-0.375,0.299c-0.103,0.102-0.179,0.186-0.231,0.251l-0.368-0.382c0.086-0.095,0.2-0.203,0.341-0.327
			c0.145-0.124,0.31-0.236,0.496-0.339c0.189-0.102,0.403-0.188,0.64-0.262c0.234-0.072,0.499-0.108,0.788-0.108
			c0.32,0,0.606,0.045,0.857,0.136c0.251,0.091,0.465,0.217,0.637,0.377c0.176,0.16,0.31,0.342,0.399,0.551
			c0.089,0.207,0.138,0.427,0.138,0.659c0,0.298-0.069,0.554-0.203,0.769c-0.134,0.213-0.303,0.398-0.506,0.551
			c-0.203,0.151-0.42,0.282-0.651,0.392c-0.227,0.108-0.441,0.2-0.637,0.272c-0.341,0.138-0.623,0.287-0.847,0.447
			c-0.22,0.16-0.399,0.33-0.534,0.513c-0.134,0.181-0.231,0.37-0.289,0.566s-0.093,0.396-0.107,0.601h3.893v0.501H159.908z"/>
		<path fill="#FFFFFF" d="M173.274,217.679c0,0.478-0.069,0.921-0.207,1.323c-0.138,0.404-0.327,0.754-0.564,1.048
			c-0.241,0.294-0.527,0.523-0.857,0.687c-0.33,0.163-0.692,0.244-1.084,0.244s-0.754-0.081-1.088-0.244
			c-0.33-0.164-0.616-0.392-0.861-0.687s-0.43-0.644-0.564-1.048c-0.138-0.403-0.203-0.845-0.203-1.323
			c0-0.48,0.065-0.922,0.203-1.325c0.134-0.403,0.32-0.752,0.564-1.046s0.53-0.525,0.861-0.694c0.334-0.167,0.695-0.25,1.088-0.25
			s0.754,0.083,1.084,0.25c0.33,0.169,0.616,0.399,0.857,0.694c0.238,0.294,0.427,0.644,0.564,1.046
			S173.274,217.199,173.274,217.679z M172.72,217.679c0-0.415-0.052-0.795-0.158-1.139c-0.107-0.346-0.251-0.64-0.441-0.885
			c-0.189-0.243-0.416-0.434-0.682-0.571c-0.265-0.138-0.558-0.208-0.878-0.208s-0.616,0.071-0.885,0.208s-0.499,0.329-0.685,0.571
			c-0.189,0.244-0.337,0.539-0.444,0.885c-0.103,0.344-0.158,0.725-0.158,1.139c0,0.413,0.055,0.792,0.158,1.134
			c0.107,0.341,0.255,0.635,0.444,0.883c0.186,0.246,0.417,0.437,0.685,0.571c0.268,0.136,0.564,0.203,0.885,0.203
			s0.613-0.067,0.878-0.203c0.265-0.134,0.492-0.325,0.682-0.571c0.189-0.248,0.334-0.542,0.441-0.883
			C172.668,218.471,172.72,218.092,172.72,217.679z"/>
		<path fill="#FFFFFF" d="M180.33,220.373v0.501h-3.49v-0.501h1.549v-5.037c-0.059,0.086-0.158,0.181-0.299,0.282
			c-0.141,0.102-0.299,0.198-0.468,0.289c-0.172,0.091-0.348,0.167-0.53,0.229c-0.182,0.062-0.344,0.093-0.489,0.093v-0.546
			c0.179,0,0.372-0.048,0.578-0.146c0.203-0.098,0.392-0.21,0.564-0.332c0.176-0.124,0.324-0.243,0.444-0.355
			c0.117-0.114,0.186-0.181,0.2-0.203h0.558v5.726H180.33z"/>
		<path fill="#FFFFFF" d="M183.342,220.874c0-0.21,0.017-0.442,0.055-0.692c0.034-0.251,0.117-0.503,0.244-0.752
			c0.127-0.251,0.31-0.499,0.551-0.742c0.241-0.244,0.568-0.468,0.981-0.671c0.176-0.088,0.379-0.181,0.606-0.284
			c0.231-0.102,0.444-0.219,0.651-0.355c0.203-0.134,0.375-0.289,0.516-0.468c0.141-0.177,0.213-0.387,0.213-0.626
			c0-0.153-0.034-0.305-0.1-0.453c-0.065-0.15-0.162-0.282-0.289-0.398c-0.127-0.117-0.286-0.212-0.472-0.284
			c-0.189-0.072-0.413-0.108-0.668-0.108c-0.262,0-0.492,0.036-0.692,0.108s-0.375,0.158-0.523,0.256s-0.275,0.198-0.375,0.299
			c-0.103,0.102-0.179,0.186-0.231,0.251l-0.368-0.382c0.086-0.095,0.2-0.203,0.341-0.327c0.145-0.124,0.31-0.236,0.496-0.339
			c0.189-0.102,0.403-0.188,0.64-0.262c0.234-0.072,0.499-0.108,0.788-0.108c0.32,0,0.606,0.045,0.857,0.136
			c0.251,0.091,0.465,0.217,0.637,0.377c0.176,0.16,0.31,0.342,0.399,0.551c0.089,0.207,0.138,0.427,0.138,0.659
			c0,0.298-0.069,0.554-0.203,0.769c-0.134,0.213-0.303,0.398-0.506,0.551c-0.203,0.151-0.42,0.282-0.651,0.392
			c-0.227,0.108-0.441,0.2-0.637,0.272c-0.341,0.138-0.623,0.287-0.847,0.447c-0.22,0.16-0.399,0.33-0.534,0.513
			c-0.134,0.181-0.231,0.37-0.289,0.566s-0.093,0.396-0.107,0.601h3.893v0.501H183.342z"/>
	</g>
	<path fill="none" stroke="#FFFFFF" stroke-width="1.5628" stroke-miterlimit="10" d="M285.868,150.001
		c0,75.437-60.83,136.594-135.871,136.594c-75.037,0-135.866-61.157-135.866-136.594c0-75.441,60.829-136.595,135.866-136.595
		C225.039,13.406,285.868,74.56,285.868,150.001z"/>
	<path fill="none" stroke="#FFFFFF" stroke-width="1.5628" stroke-miterlimit="10" d="M276.948,150.001
		c0,70.488-56.839,127.631-126.951,127.631S23.047,220.489,23.047,150.001c0-70.493,56.839-127.631,126.951-127.631
		C223.608,22.37,276.948,82.14,276.948,150.001z"/>
	<g>
		<path fill="#FFFFFF" d="M136.7,43.791c0.167,0.957,0.048,1.817-0.358,2.582c-0.263,0.515-0.688,0.916-1.274,1.203
			c-0.315,0.157-0.69,0.268-1.131,0.337c-0.814,0.131-1.521,0.034-2.12-0.284c-0.501-0.258-0.926-0.652-1.274-1.175
			c-0.353-0.527-0.608-1.157-0.768-1.881l1.957-0.46c0.215,0.793,0.52,1.342,0.916,1.647c0.293,0.236,0.599,0.32,0.921,0.251
			c0.451-0.086,0.78-0.368,0.979-0.842c0.107-0.238,0.129-0.552,0.065-0.95c-0.089-0.573-0.441-1.1-1.05-1.585
			c-0.473-0.322-1.182-0.807-2.127-1.458c-0.795-0.559-1.377-1.079-1.747-1.564c-0.403-0.542-0.659-1.165-0.769-1.86
			c-0.198-1.255,0.072-2.273,0.814-3.053c0.46-0.472,1.072-0.769,1.842-0.893c0.743-0.115,1.403-0.052,1.984,0.196
			c0.451,0.189,0.838,0.499,1.165,0.919c0.327,0.425,0.563,0.931,0.711,1.525l-1.934,0.68c-0.148-0.558-0.379-0.971-0.694-1.244
			c-0.225-0.2-0.52-0.27-0.879-0.212c-0.382,0.06-0.644,0.275-0.79,0.644c-0.117,0.298-0.145,0.649-0.081,1.05
			c0.1,0.632,0.473,1.231,1.119,1.8c0.246,0.213,0.601,0.458,1.065,0.73c0.549,0.327,0.912,0.558,1.089,0.697
			c0.595,0.43,1.072,0.874,1.428,1.329c0.17,0.215,0.312,0.413,0.423,0.601C136.459,42.979,136.633,43.4,136.7,43.791z"/>
		<path fill="#FFFFFF" d="M142.622,34.886l-2.236,0.122l-0.115-2.115l6.561-0.36l0.117,2.117l-2.224,0.12l0.647,11.822l-2.103,0.115
			L142.622,34.886z"/>
		<path fill="#FFFFFF" d="M154.862,46.767c-0.929-0.041-1.704-0.401-2.323-1.077c-0.621-0.682-0.912-1.478-0.873-2.392l0.329-7.614
			c0.04-0.928,0.399-1.7,1.083-2.323c0.678-0.62,1.48-0.909,2.401-0.871c0.929,0.04,1.7,0.399,2.317,1.081
			c0.62,0.683,0.909,1.482,0.867,2.403l-0.069,1.594l-2.182-0.096l0.072-1.635c0.014-0.336-0.093-0.625-0.32-0.873
			c-0.227-0.248-0.506-0.38-0.84-0.396c-0.337-0.014-0.623,0.095-0.871,0.32c-0.244,0.227-0.372,0.509-0.387,0.842l-0.33,7.638
			c-0.014,0.33,0.091,0.62,0.313,0.866c0.225,0.244,0.504,0.373,0.838,0.387c0.334,0.014,0.626-0.091,0.874-0.312
			c0.248-0.225,0.379-0.501,0.392-0.835l0.12-2.743l-1.17-0.052l0.089-2.11l3.353,0.139l-0.213,4.879
			c-0.038,0.928-0.399,1.699-1.077,2.317C156.573,46.519,155.774,46.808,154.862,46.767z"/>
		<path fill="#FFFFFF" d="M167.746,33.632c0.916,0.138,1.649,0.577,2.196,1.318c0.547,0.742,0.754,1.566,0.62,2.48l-1.115,7.536
			c-0.134,0.914-0.575,1.647-1.315,2.196c-0.743,0.547-1.566,0.754-2.478,0.62c-0.919-0.134-1.649-0.575-2.193-1.317
			c-0.544-0.737-0.75-1.564-0.613-2.475l1.112-7.536c0.138-0.921,0.575-1.654,1.315-2.201
			C166.018,33.708,166.84,33.501,167.746,33.632z M168.396,37.064c0.048-0.332-0.024-0.628-0.224-0.895
			c-0.196-0.267-0.458-0.423-0.788-0.473c-0.33-0.048-0.633,0.026-0.902,0.224c-0.272,0.198-0.43,0.461-0.478,0.79l-1.115,7.561
			c-0.048,0.332,0.024,0.63,0.227,0.897c0.2,0.267,0.465,0.423,0.799,0.472c0.33,0.05,0.626-0.026,0.891-0.222
			c0.268-0.198,0.423-0.461,0.472-0.793L168.396,37.064z"/>
	</g>
	<g>
		<path fill="#FFFFFF" d="M90.659,247.913l4.304-6.435l4.187,2.8l-0.279,0.418l-3.728-2.492l-1.706,2.557l3.16,2.113l-0.263,0.399
			l-3.163-2.115l-2.05,3.063L90.659,247.913z"/>
		<path fill="#FFFFFF" d="M99.877,253.783c-0.346-0.193-0.63-0.441-0.85-0.742c-0.219-0.299-0.37-0.628-0.456-0.983
			c-0.084-0.356-0.102-0.725-0.05-1.101c0.053-0.379,0.176-0.74,0.365-1.083c0.198-0.349,0.442-0.644,0.742-0.886
			c0.293-0.244,0.616-0.422,0.969-0.532c0.351-0.114,0.706-0.16,1.079-0.131c0.367,0.026,0.725,0.134,1.065,0.325
			c0.342,0.189,0.623,0.437,0.842,0.738c0.22,0.299,0.372,0.628,0.461,0.986c0.089,0.356,0.11,0.726,0.059,1.105
			c-0.05,0.382-0.17,0.747-0.365,1.095c-0.193,0.342-0.434,0.637-0.733,0.879c-0.296,0.241-0.616,0.42-0.967,0.534
			c-0.344,0.114-0.707,0.157-1.081,0.129C100.581,254.086,100.223,253.978,99.877,253.783z M99.364,250.166
			c-0.162,0.293-0.267,0.594-0.306,0.907c-0.043,0.315-0.029,0.616,0.038,0.904c0.072,0.289,0.191,0.552,0.363,0.793
			c0.174,0.241,0.394,0.439,0.657,0.585c0.268,0.15,0.554,0.236,0.85,0.255c0.293,0.019,0.585-0.019,0.871-0.12
			c0.284-0.098,0.549-0.25,0.799-0.449c0.25-0.198,0.453-0.446,0.62-0.745c0.162-0.293,0.265-0.594,0.303-0.91
			c0.036-0.317,0.022-0.618-0.045-0.912c-0.064-0.287-0.182-0.558-0.355-0.802c-0.174-0.246-0.392-0.444-0.657-0.59
			c-0.262-0.146-0.542-0.227-0.836-0.243c-0.299-0.015-0.594,0.024-0.879,0.122c-0.289,0.098-0.558,0.25-0.805,0.458
			C99.73,249.622,99.526,249.873,99.364,250.166z"/>
		<path fill="#FFFFFF" d="M106.677,254.011c0.163-0.367,0.382-0.682,0.656-0.948c0.274-0.267,0.578-0.468,0.914-0.604
			c0.339-0.134,0.694-0.2,1.067-0.198c0.373,0.003,0.747,0.086,1.115,0.256c0.473,0.213,0.836,0.506,1.093,0.878
			c0.258,0.373,0.394,0.79,0.408,1.251l-0.556-0.06c-0.024-0.353-0.143-0.676-0.353-0.969c-0.21-0.291-0.485-0.515-0.823-0.664
			c-0.286-0.131-0.575-0.196-0.871-0.194c-0.296,0-0.582,0.06-0.852,0.177c-0.274,0.115-0.521,0.284-0.745,0.506
			c-0.225,0.222-0.408,0.489-0.549,0.797c-0.141,0.312-0.219,0.63-0.232,0.955c-0.015,0.324,0.021,0.628,0.108,0.91
			c0.091,0.286,0.232,0.544,0.423,0.773c0.193,0.232,0.425,0.41,0.706,0.535c0.176,0.081,0.367,0.136,0.564,0.162
			c0.203,0.028,0.396,0.033,0.582,0.012c0.188-0.019,0.361-0.06,0.525-0.127c0.162-0.064,0.289-0.151,0.386-0.26l0.425,0.361
			c-0.15,0.145-0.325,0.268-0.528,0.363c-0.207,0.093-0.427,0.155-0.666,0.182c-0.236,0.029-0.482,0.022-0.728-0.014
			c-0.25-0.038-0.497-0.11-0.733-0.219c-0.365-0.165-0.671-0.389-0.917-0.675c-0.246-0.282-0.427-0.599-0.54-0.952
			c-0.117-0.351-0.167-0.719-0.151-1.103C106.417,254.757,106.508,254.381,106.677,254.011z"/>
		<path fill="#FFFFFF" d="M115.333,260.85c-1.144-0.408-1.434-1.397-0.869-2.972l1.1-3.081l0.515,0.184l-1.077,3.008
			c-0.468,1.315-0.256,2.132,0.64,2.452c0.225,0.081,0.46,0.12,0.702,0.119c0.246,0,0.487-0.04,0.718-0.115
			c0.238-0.072,0.46-0.184,0.675-0.33c0.208-0.148,0.401-0.327,0.566-0.54l1.208-3.365l0.513,0.184l-1.656,4.619
			c-0.064,0.169-0.019,0.284,0.122,0.334l-0.165,0.461c-0.041-0.007-0.077-0.016-0.105-0.026c-0.028-0.01-0.057-0.021-0.084-0.031
			c-0.145-0.05-0.246-0.136-0.308-0.255c-0.062-0.119-0.065-0.244-0.017-0.382l0.289-0.811c-0.394,0.346-0.835,0.563-1.325,0.659
			C116.283,261.06,115.805,261.022,115.333,260.85z"/>
		<path fill="#FFFFFF" d="M123.954,263.588c-0.42-0.115-0.807-0.294-1.155-0.54c-0.349-0.246-0.628-0.549-0.84-0.905l0.363-0.287
			c0.222,0.346,0.473,0.626,0.754,0.838c0.284,0.213,0.613,0.37,0.99,0.472c0.48,0.133,0.89,0.136,1.236,0.016
			c0.348-0.12,0.566-0.36,0.663-0.718c0.046-0.169,0.046-0.322,0.005-0.456c-0.04-0.136-0.124-0.263-0.25-0.385
			c-0.126-0.119-0.289-0.241-0.489-0.363s-0.432-0.256-0.7-0.406c-0.293-0.155-0.54-0.298-0.75-0.432
			c-0.212-0.131-0.372-0.265-0.494-0.403c-0.119-0.139-0.2-0.289-0.236-0.451c-0.033-0.158-0.022-0.346,0.038-0.564
			c0.072-0.274,0.191-0.497,0.353-0.671c0.16-0.176,0.349-0.303,0.571-0.387c0.222-0.083,0.463-0.126,0.726-0.126
			c0.26-0.002,0.523,0.036,0.8,0.11c0.427,0.117,0.785,0.291,1.076,0.525c0.291,0.232,0.496,0.487,0.616,0.761l-0.372,0.203
			c-0.122-0.258-0.317-0.48-0.578-0.664c-0.265-0.188-0.559-0.322-0.89-0.411c-0.203-0.057-0.399-0.088-0.59-0.091
			c-0.191-0.009-0.365,0.016-0.521,0.071c-0.158,0.053-0.294,0.145-0.413,0.265c-0.115,0.126-0.201,0.284-0.253,0.478
			c-0.045,0.164-0.055,0.299-0.028,0.413c0.024,0.114,0.088,0.22,0.184,0.32c0.095,0.102,0.227,0.203,0.398,0.306
			c0.169,0.102,0.368,0.219,0.606,0.351c0.318,0.177,0.602,0.342,0.847,0.491c0.244,0.15,0.442,0.305,0.59,0.465
			c0.151,0.164,0.248,0.332,0.306,0.513c0.05,0.181,0.043,0.389-0.021,0.628c-0.134,0.491-0.434,0.83-0.891,1.015
			C125.143,263.753,124.591,263.762,123.954,263.588z"/>
		<path fill="#FFFFFF" d="M140.565,266.65l-0.845-1.16c-0.341,0.306-0.723,0.537-1.151,0.688c-0.43,0.15-0.881,0.194-1.354,0.129
			c-0.325-0.043-0.626-0.133-0.9-0.262c-0.275-0.134-0.513-0.303-0.711-0.508c-0.2-0.208-0.351-0.444-0.447-0.711
			c-0.096-0.267-0.124-0.558-0.079-0.874c0.034-0.26,0.11-0.49,0.234-0.694c0.115-0.207,0.267-0.391,0.446-0.558
			c0.179-0.165,0.386-0.318,0.611-0.451c0.229-0.134,0.468-0.265,0.718-0.392c-0.172-0.244-0.317-0.461-0.432-0.657
			c-0.117-0.196-0.212-0.373-0.282-0.528c-0.071-0.157-0.117-0.303-0.141-0.442c-0.021-0.139-0.019-0.272-0.007-0.403
			c0.033-0.222,0.108-0.429,0.234-0.614c0.126-0.181,0.281-0.341,0.473-0.468c0.184-0.129,0.401-0.22,0.64-0.277
			c0.236-0.055,0.49-0.065,0.759-0.029c0.243,0.031,0.465,0.1,0.668,0.205c0.203,0.103,0.373,0.232,0.511,0.384
			c0.136,0.148,0.238,0.32,0.299,0.513c0.06,0.189,0.077,0.392,0.052,0.602c-0.031,0.213-0.103,0.411-0.224,0.589
			c-0.12,0.179-0.27,0.339-0.454,0.484c-0.188,0.143-0.396,0.281-0.628,0.413c-0.234,0.127-0.478,0.253-0.738,0.373l1.988,2.73
			c0.201-0.265,0.368-0.559,0.503-0.878c0.131-0.32,0.22-0.664,0.27-1.031l0.466,0.062c-0.059,0.434-0.17,0.838-0.334,1.217
			c-0.167,0.377-0.375,0.714-0.626,1.01l1.201,1.635L140.565,266.65z M137.33,265.874c0.408,0.055,0.792,0.012,1.153-0.126
			c0.358-0.139,0.683-0.348,0.971-0.623l-2.096-2.902c-0.227,0.117-0.442,0.238-0.639,0.36c-0.196,0.124-0.373,0.26-0.532,0.403
			c-0.158,0.143-0.287,0.303-0.391,0.475c-0.098,0.174-0.165,0.368-0.193,0.585c-0.038,0.258-0.007,0.492,0.079,0.704
			c0.089,0.208,0.217,0.392,0.386,0.552c0.163,0.157,0.358,0.286,0.582,0.382C136.869,265.777,137.098,265.843,137.33,265.874z
			 M136.736,259.886c-0.014,0.093-0.012,0.189,0,0.286c0.012,0.096,0.048,0.213,0.107,0.349c0.059,0.136,0.146,0.293,0.256,0.468
			c0.108,0.177,0.262,0.392,0.446,0.644c0.258-0.127,0.494-0.246,0.702-0.363c0.212-0.112,0.394-0.229,0.549-0.348
			c0.155-0.117,0.281-0.246,0.375-0.38c0.095-0.133,0.153-0.282,0.177-0.447c0.04-0.303-0.043-0.57-0.246-0.799
			c-0.203-0.229-0.482-0.368-0.833-0.416c-0.198-0.024-0.382-0.017-0.552,0.028c-0.177,0.041-0.336,0.108-0.473,0.201
			c-0.143,0.09-0.255,0.201-0.344,0.337C136.812,259.582,136.757,259.726,136.736,259.886z"/>
		<path fill="#FFFFFF" d="M154.903,260.783c-0.503-0.556-1.217-0.833-2.131-0.83c-0.756,0.002-1.305,0.148-1.65,0.437
			c-0.344,0.289-0.515,0.676-0.511,1.163c0,0.248,0.041,0.454,0.133,0.621c0.086,0.167,0.225,0.306,0.41,0.417
			c0.186,0.114,0.423,0.212,0.709,0.294c0.289,0.079,0.63,0.162,1.022,0.239c0.423,0.084,0.8,0.181,1.134,0.282
			c0.334,0.105,0.623,0.239,0.861,0.398c0.234,0.158,0.416,0.353,0.547,0.585c0.127,0.234,0.189,0.518,0.193,0.861
			c0,0.341-0.062,0.64-0.196,0.897c-0.134,0.253-0.324,0.465-0.568,0.638c-0.239,0.17-0.532,0.301-0.869,0.391
			c-0.337,0.089-0.713,0.134-1.129,0.136c-1.206,0.005-2.225-0.375-3.069-1.143l0.293-0.449c0.33,0.341,0.728,0.611,1.205,0.807
			c0.472,0.198,1.005,0.298,1.592,0.294c0.675-0.003,1.205-0.127,1.585-0.379c0.382-0.248,0.571-0.623,0.568-1.122
			c0-0.258-0.048-0.472-0.151-0.651c-0.1-0.179-0.248-0.33-0.451-0.461c-0.205-0.131-0.461-0.243-0.761-0.334
			c-0.301-0.095-0.657-0.182-1.064-0.268c-0.415-0.086-0.783-0.177-1.098-0.272c-0.318-0.1-0.582-0.22-0.805-0.37
			c-0.219-0.148-0.382-0.327-0.49-0.535c-0.108-0.212-0.163-0.477-0.167-0.797c-0.003-0.351,0.065-0.657,0.196-0.928
			c0.134-0.268,0.318-0.499,0.558-0.685c0.239-0.186,0.525-0.327,0.862-0.423c0.332-0.095,0.702-0.145,1.114-0.145
			c0.501-0.003,0.948,0.069,1.341,0.215c0.392,0.15,0.749,0.373,1.069,0.676L154.903,260.783z"/>
		<path fill="#FFFFFF" d="M158.879,260.077l-0.069-1l0.544-0.038l0.069,1L158.879,260.077z M159.354,267.018l-0.389-5.659
			l0.544-0.036l0.389,5.655L159.354,267.018z"/>
		<path fill="#FFFFFF" d="M172.485,265.418l-0.54,0.079l-0.468-3.124c-0.11-0.713-0.299-1.222-0.568-1.525
			c-0.272-0.306-0.633-0.423-1.084-0.355c-0.238,0.036-0.454,0.112-0.651,0.229s-0.365,0.267-0.513,0.446
			c-0.145,0.181-0.265,0.387-0.358,0.618c-0.093,0.231-0.158,0.482-0.189,0.752l0.523,3.459l-0.544,0.081l-0.468-3.125
			c-0.11-0.719-0.299-1.231-0.561-1.532c-0.268-0.303-0.626-0.418-1.081-0.351c-0.231,0.036-0.444,0.108-0.637,0.225
			c-0.2,0.114-0.372,0.26-0.516,0.442c-0.151,0.181-0.275,0.385-0.375,0.616c-0.096,0.232-0.158,0.484-0.193,0.752l0.523,3.475
			l-0.54,0.077l-0.843-5.605l0.496-0.074l0.203,1.337c0.165-0.489,0.42-0.89,0.754-1.194c0.337-0.31,0.73-0.496,1.184-0.564
			c0.472-0.072,0.878,0.01,1.212,0.248c0.334,0.234,0.564,0.575,0.688,1.019c0.392-1.096,1.053-1.712,1.969-1.852
			c0.62-0.095,1.095,0.059,1.422,0.453c0.327,0.396,0.547,0.984,0.671,1.769L172.485,265.418z"/>
		<path fill="#FFFFFF" d="M179.421,263.882c-0.472,0.12-0.919,0.105-1.353-0.053c-0.427-0.153-0.802-0.384-1.122-0.683l0.888,3.43
			l-0.53,0.138l-1.996-7.74l0.478-0.122l0.282,1.098c0.134-0.411,0.358-0.774,0.675-1.093c0.317-0.317,0.685-0.53,1.108-0.64
			c0.379-0.098,0.747-0.107,1.112-0.028c0.361,0.081,0.692,0.22,0.991,0.423c0.299,0.207,0.564,0.463,0.781,0.774
			c0.22,0.312,0.375,0.647,0.468,1.005c0.096,0.38,0.131,0.757,0.1,1.134c-0.031,0.375-0.12,0.723-0.279,1.04
			c-0.151,0.318-0.365,0.592-0.637,0.824C180.117,263.621,179.796,263.784,179.421,263.882z M179.184,263.437
			c0.317-0.083,0.585-0.225,0.812-0.425c0.22-0.198,0.392-0.434,0.52-0.702c0.124-0.27,0.2-0.558,0.224-0.871
			c0.028-0.31,0.003-0.613-0.072-0.909c-0.083-0.317-0.217-0.601-0.406-0.859c-0.186-0.255-0.406-0.466-0.657-0.633
			c-0.255-0.169-0.53-0.282-0.83-0.342c-0.303-0.06-0.606-0.053-0.909,0.024c-0.189,0.05-0.382,0.143-0.578,0.281
			c-0.196,0.136-0.375,0.298-0.527,0.485c-0.158,0.184-0.279,0.382-0.365,0.594c-0.083,0.208-0.11,0.415-0.079,0.616l0.465,1.807
			c0.138,0.182,0.299,0.342,0.482,0.482c0.189,0.141,0.389,0.255,0.599,0.344c0.207,0.086,0.43,0.141,0.654,0.16
			C178.747,263.511,178.967,263.49,179.184,263.437z"/>
		<path fill="#FFFFFF" d="M183.142,254.389l0.523-0.174l2.155,6.487c0.065,0.201,0.176,0.341,0.33,0.422
			c0.151,0.077,0.33,0.086,0.527,0.017c0.076-0.024,0.165-0.062,0.265-0.117c0.1-0.052,0.189-0.112,0.272-0.174l0.241,0.379
			c-0.103,0.086-0.231,0.176-0.396,0.265c-0.162,0.086-0.303,0.153-0.43,0.194c-0.289,0.095-0.551,0.083-0.785-0.034
			c-0.234-0.117-0.403-0.325-0.496-0.62L183.142,254.389z"/>
		<path fill="#FFFFFF" d="M187.934,253.756l-0.358-0.935l0.509-0.194l0.358,0.935L187.934,253.756z M190.422,260.253l-2.027-5.296
			l0.509-0.194l2.027,5.296L190.422,260.253z"/>
		<path fill="#FFFFFF" d="M193.338,256.026c-0.169-0.365-0.262-0.737-0.282-1.117c-0.024-0.384,0.024-0.743,0.145-1.086
			c0.12-0.341,0.299-0.654,0.547-0.935c0.248-0.282,0.558-0.506,0.929-0.676c0.465-0.215,0.926-0.296,1.38-0.246
			c0.447,0.05,0.85,0.222,1.212,0.513l-0.413,0.38c-0.282-0.213-0.606-0.337-0.964-0.368c-0.358-0.033-0.702,0.028-1.043,0.182
			c-0.282,0.131-0.523,0.306-0.716,0.53c-0.189,0.225-0.337,0.477-0.427,0.759c-0.093,0.281-0.127,0.58-0.107,0.895
			c0.017,0.313,0.103,0.626,0.244,0.938c0.141,0.31,0.33,0.578,0.561,0.8c0.238,0.227,0.492,0.399,0.764,0.515
			c0.275,0.122,0.561,0.184,0.861,0.191c0.299,0.009,0.589-0.053,0.864-0.179c0.179-0.081,0.344-0.189,0.496-0.324
			c0.151-0.133,0.282-0.274,0.389-0.429c0.114-0.155,0.193-0.315,0.248-0.48c0.059-0.163,0.076-0.32,0.059-0.466l0.551-0.079
			c0.014,0.207-0.01,0.42-0.076,0.639c-0.062,0.217-0.162,0.423-0.296,0.62c-0.134,0.198-0.296,0.38-0.489,0.54
			c-0.196,0.165-0.41,0.303-0.647,0.411c-0.365,0.167-0.733,0.25-1.108,0.25c-0.375-0.002-0.733-0.072-1.077-0.215
			c-0.341-0.145-0.651-0.349-0.933-0.614C193.73,256.714,193.506,256.398,193.338,256.026z"/>
		<path fill="#FFFFFF" d="M199.151,248.675l-0.472-0.883l0.478-0.256l0.472,0.883L199.151,248.675z M202.428,254.814l-2.668-5.001
			l0.478-0.256l2.671,5.003L202.428,254.814z"/>
		<path fill="#FFFFFF" d="M208.651,250.925c-0.017,0.028-0.045,0.076-0.083,0.145c-0.038,0.071-0.096,0.148-0.165,0.234
			c-0.076,0.084-0.155,0.174-0.255,0.267c-0.096,0.093-0.213,0.177-0.341,0.256c-0.131,0.079-0.265,0.133-0.399,0.169
			c-0.141,0.031-0.279,0.033-0.41,0.01c-0.131-0.021-0.255-0.069-0.372-0.141c-0.114-0.076-0.22-0.184-0.303-0.325l-2.206-3.666
			l-0.682,0.411l-0.231-0.384l0.685-0.41l-1.005-1.664l0.472-0.279l0.998,1.663l1.139-0.687l0.231,0.384l-1.139,0.685l2.138,3.552
			c0.11,0.179,0.251,0.277,0.43,0.294c0.179,0.014,0.348-0.026,0.509-0.126c0.193-0.114,0.341-0.248,0.444-0.399
			c0.096-0.148,0.162-0.243,0.179-0.281L208.651,250.925z"/>
		<path fill="#FFFFFF" d="M213.092,250.675c0.055-0.038,0.131-0.095,0.231-0.176c0.1-0.077,0.165-0.151,0.2-0.219
			c0.014-0.029,0.024-0.076,0.024-0.145c0.003-0.067-0.007-0.174-0.028-0.318c-0.021-0.145-0.059-0.342-0.11-0.594
			c-0.052-0.251-0.124-0.578-0.213-0.976l-5.318-3.201l0.472-0.33l4.784,2.926l-1.215-5.414l0.441-0.306l1.714,7.893
			c0.062,0.277,0.041,0.503-0.055,0.673c-0.096,0.169-0.251,0.327-0.458,0.473c-0.031,0.021-0.062,0.041-0.093,0.062
			c-0.028,0.021-0.059,0.038-0.096,0.053L213.092,250.675z"/>
	</g>
	
		<line fill="none" stroke="#FFFFFF" stroke-width="3.1256" stroke-miterlimit="10" x1="272.376" y1="117.679" x2="26.694" y2="117.679"/>
	
		<line fill="none" stroke="#FFFFFF" stroke-width="3.1256" stroke-miterlimit="10" x1="28.529" y1="188.711" x2="192.183" y2="188.711"/>
	
		<line fill="none" stroke="#FFFFFF" stroke-width="3.1256" stroke-miterlimit="10" x1="261.24" y1="188.711" x2="271.001" y2="188.711"/>
	<path fill="#FFFFFF" d="M169.223,92.663c0,0,1.136-0.281,2.839-0.494c1.703-0.208,3.975-0.397,6.246-0.387
		c2.271-0.01,4.543,0.174,6.246,0.385c1.704,0.212,2.839,0.496,2.839,0.496s-1.136,0.284-2.839,0.496
		c-1.703,0.211-3.975,0.395-6.246,0.385c-2.271,0.01-4.543-0.179-6.246-0.387C170.358,92.945,169.223,92.663,169.223,92.663z"/>
	<path fill="#FFFFFF" d="M110.34,92.663c0,0,1.136-0.281,2.84-0.494c1.704-0.208,3.976-0.397,6.248-0.387
		c2.272-0.01,4.544,0.174,6.248,0.385c1.704,0.212,2.84,0.496,2.84,0.496s-1.136,0.284-2.84,0.496
		c-1.704,0.211-3.976,0.395-6.248,0.385c-2.272,0.01-4.544-0.179-6.248-0.387C111.476,92.945,110.34,92.663,110.34,92.663z"/>
	<g>
		<path fill="#FFFFFF" d="M37.696,169.435h-5.268v-34.959h7.561l4.912,25.113l4.712-25.113h7.264v34.959h-5.268v-21.969
			l-4.573,21.969h-4.237l-5.103-21.912V169.435z"/>
		<path fill="#FFFFFF" d="M61.589,169.435v-34.959h14.999v5.297h-9.731v9.535h7.11v5.296h-7.11v9.535h9.731v5.297H61.589z"/>
		<path fill="#FFFFFF" d="M96.772,161.071c0,2.306-0.809,4.275-2.425,5.912c-1.618,1.635-3.569,2.452-5.855,2.452h-8.28v-34.959
			h8.28c2.304,0,4.261,0.817,5.869,2.452c1.607,1.637,2.411,3.597,2.411,5.883V161.071z M85.48,164.222h3.179
			c0.836,0,1.542-0.303,2.119-0.907c0.577-0.602,0.864-1.313,0.864-2.132v-18.288c0-0.836-0.293-1.552-0.878-2.146
			c-0.585-0.595-1.287-0.893-2.105-0.893H85.48V164.222z"/>
		<path fill="#FFFFFF" d="M106.668,169.435H101.4v-34.932h5.268V169.435z"/>
		<path fill="#FFFFFF" d="M117.839,161.407l-1.28,8.029h-5.487l5.938-34.932h7.249l5.853,34.932h-5.54l-1.232-8.029H117.839z
			 M120.607,142.505l-1.952,13.772h3.903L120.607,142.505z"/>
		<path fill="#FFFFFF" d="M146.589,139.801h-5.604v-5.297h16.448v5.297h-5.576v29.635h-5.268V139.801z"/>
		<path fill="#FFFFFF" d="M169.976,134.503c2.936,0,5.091,0.809,6.468,2.425c1.208,1.413,1.814,3.384,1.814,5.91v5.075
			c0,2.471-0.94,4.562-2.816,6.271l3.9,15.25h-5.697l-3.194-13.159c-0.151,0-0.306,0-0.475,0h-3.039v13.159h-5.27v-34.932H169.976z
			 M173.126,142.923c0-2.026-1.002-3.039-3.008-3.039h-3.18v11.18h3.18c0.836,0,1.545-0.298,2.131-0.891
			c0.585-0.595,0.878-1.311,0.878-2.148V142.923z"/>
		<path fill="#FFFFFF" d="M183.858,169.435v-34.959h15.001v5.297h-9.731v9.535h7.111v5.296h-7.111v9.535h9.731v5.297H183.858z"/>
		<path fill="#FFFFFF" d="M208.397,134.476l6.991,23.496v-23.496h5.27v34.959h-5.659l-7.249-22.387v22.387h-5.27v-34.959H208.397z"
			/>
		<path fill="#FFFFFF" d="M241.929,161.071c0,2.306-0.805,4.275-2.423,5.912c-1.618,1.635-3.569,2.452-5.855,2.452h-8.282v-34.959
			h8.282c2.303,0,4.261,0.817,5.869,2.452c1.607,1.637,2.409,3.597,2.409,5.883V161.071z M230.639,164.222h3.18
			c0.836,0,1.542-0.303,2.117-0.907c0.575-0.602,0.864-1.313,0.864-2.132v-18.288c0-0.836-0.293-1.552-0.878-2.146
			c-0.585-0.595-1.287-0.893-2.103-0.893h-3.18V164.222z"/>
		<path fill="#FFFFFF" d="M263.676,160.737c0.034,2.435-0.595,4.516-1.897,6.246c-0.857,1.17-2.065,1.998-3.624,2.48
			c-0.836,0.26-1.814,0.391-2.929,0.391c-2.062,0-3.773-0.511-5.129-1.533c-1.132-0.836-2.031-1.974-2.688-3.415
			c-0.661-1.441-1.046-3.091-1.16-4.95l5.019-0.361c0.224,2.036,0.764,3.513,1.618,4.427c0.633,0.692,1.356,1.019,2.175,0.981
			c1.153-0.036,2.072-0.604,2.761-1.702c0.351-0.539,0.53-1.311,0.53-2.315c0-1.451-0.661-2.893-1.979-4.325
			c-1.043-0.986-2.602-2.465-4.685-4.437c-1.749-1.693-2.984-3.21-3.707-4.549c-0.781-1.508-1.174-3.144-1.174-4.912
			c0-3.18,1.07-5.59,3.208-7.227c1.318-0.986,2.953-1.478,4.905-1.478c1.879,0,3.487,0.418,4.826,1.255
			c1.04,0.651,1.879,1.561,2.523,2.731c0.64,1.172,1.026,2.52,1.157,4.043l-5.046,0.921c-0.151-1.432-0.558-2.547-1.229-3.346
			c-0.482-0.577-1.181-0.864-2.089-0.864c-0.967,0-1.7,0.427-2.203,1.282c-0.41,0.687-0.613,1.542-0.613,2.564
			c0,1.599,0.688,3.225,2.062,4.879c0.52,0.632,1.301,1.375,2.344,2.23c1.225,1.022,2.034,1.738,2.423,2.146
			c1.301,1.301,2.306,2.583,3.012,3.847c0.334,0.595,0.602,1.144,0.809,1.645C263.397,158.638,263.656,159.753,263.676,160.737z"/>
	</g>
	<g>
		<path fill="#FFFFFF" d="M204.015,197.662c-1.291,0-2.385-0.454-3.291-1.363c-0.902-0.909-1.356-1.998-1.356-3.268v-10.593
			c0-1.291,0.454-2.389,1.363-3.292c0.909-0.904,2.003-1.354,3.284-1.354c1.291,0,2.385,0.454,3.284,1.363
			c0.898,0.909,1.349,2.003,1.349,3.284v2.215h-3.036v-2.277c0-0.465-0.165-0.862-0.496-1.193c-0.33-0.33-0.73-0.496-1.194-0.496
			s-0.857,0.165-1.184,0.496c-0.324,0.33-0.489,0.728-0.489,1.193V193c0,0.465,0.165,0.861,0.489,1.186
			c0.327,0.325,0.719,0.487,1.184,0.487s0.864-0.162,1.194-0.487c0.33-0.324,0.496-0.718,0.496-1.181v-3.816h-1.628v-2.941h4.664
			v6.783c0,1.291-0.454,2.385-1.363,3.284S205.285,197.662,204.015,197.662z"/>
		<path fill="#FFFFFF" d="M215.801,178.008c1.632,0,2.829,0.449,3.594,1.348c0.671,0.785,1.009,1.879,1.009,3.284v2.819
			c0,1.373-0.523,2.533-1.566,3.483l2.169,8.473h-3.167l-1.773-7.311c-0.083,0-0.172,0-0.265,0h-1.687v7.311h-2.929v-19.406H215.801
			z M217.553,182.686c0-1.126-0.558-1.688-1.673-1.688h-1.766v6.21h1.766c0.465,0,0.861-0.163,1.184-0.496
			c0.327-0.329,0.489-0.726,0.489-1.191V182.686z"/>
		<path fill="#FFFFFF" d="M227.652,177.76c1.291,0,2.389,0.454,3.291,1.363c0.905,0.909,1.356,2.003,1.356,3.284V193
			c0,1.291-0.454,2.389-1.363,3.292c-0.909,0.904-2.003,1.354-3.284,1.354c-1.291,0-2.385-0.454-3.284-1.363
			s-1.349-2.003-1.349-3.284v-10.593c0-1.291,0.454-2.389,1.363-3.292C225.29,178.211,226.381,177.76,227.652,177.76z
			 M229.245,182.345c0-0.465-0.162-0.861-0.485-1.186c-0.327-0.325-0.723-0.487-1.188-0.487s-0.861,0.162-1.191,0.487
			c-0.33,0.325-0.496,0.721-0.496,1.186v10.624c0,0.465,0.165,0.861,0.496,1.186c0.33,0.325,0.726,0.487,1.191,0.487
			s0.861-0.162,1.188-0.487c0.324-0.325,0.485-0.721,0.485-1.186V182.345z"/>
		<path fill="#FFFFFF" d="M239.482,197.631c-1.291,0-2.385-0.449-3.284-1.348c-0.898-0.898-1.349-1.988-1.349-3.268v-15.007h2.867
			v14.976c0,0.465,0.165,0.861,0.496,1.186c0.33,0.325,0.726,0.487,1.191,0.487s0.861-0.162,1.188-0.487
			c0.324-0.325,0.485-0.721,0.485-1.186v-14.976h3.053v15.007c0,1.301-0.454,2.396-1.363,3.284
			C241.857,197.187,240.762,197.631,239.482,197.631z"/>
		<path fill="#FFFFFF" d="M251.343,178.008c1.425,0,2.561,0.449,3.408,1.348c0.785,0.857,1.177,1.952,1.177,3.284v2.819
			c0,1.28-0.447,2.375-1.339,3.282c-0.892,0.909-1.976,1.363-3.246,1.363h-1.687v7.311h-2.929v-19.406H251.343z M253.095,182.686
			c0-0.506-0.151-0.914-0.458-1.224c-0.303-0.31-0.709-0.465-1.215-0.465h-1.766v6.21h1.766c0.465,0,0.861-0.163,1.184-0.496
			c0.327-0.329,0.489-0.726,0.489-1.191V182.686z"/>
	</g>
	<path fill="#FFFFFF" d="M86.312,240.137c0,0.855-0.692,1.547-1.547,1.547c-0.85,0-1.542-0.692-1.542-1.547
		c0-0.85,0.692-1.54,1.542-1.54C85.62,238.597,86.312,239.286,86.312,240.137z"/>
	<path fill="#FFFFFF" d="M221.059,238.593c0,0.855-0.692,1.547-1.547,1.547c-0.85,0-1.542-0.692-1.542-1.547
		c0-0.853,0.692-1.543,1.542-1.543C220.367,237.05,221.059,237.741,221.059,238.593z"/>
	<path fill="#FFFFFF" d="M196.03,216.459c0,0.855-0.692,1.545-1.552,1.545c-0.845,0-1.542-0.69-1.542-1.545
		c0-0.853,0.697-1.542,1.542-1.542C195.338,214.917,196.03,215.607,196.03,216.459z"/>
	<path fill="#FFFFFF" d="M107.975,216.459c0,0.855-0.692,1.545-1.547,1.545c-0.85,0-1.542-0.69-1.542-1.545
		c0-0.853,0.692-1.542,1.542-1.542C107.283,214.917,107.975,215.607,107.975,216.459z"/>
	<path fill="#FFFFFF" d="M179.853,43.149c0,0.853-0.687,1.545-1.547,1.545c-0.85,0-1.538-0.692-1.538-1.545s0.688-1.545,1.538-1.545
		C179.165,41.604,179.853,42.297,179.853,43.149z"/>
	<path fill="#FFFFFF" d="M120.974,43.878c0,0.85-0.692,1.542-1.547,1.542c-0.855,0-1.542-0.692-1.542-1.542
		c0-0.855,0.688-1.547,1.542-1.547C120.282,42.331,120.974,43.024,120.974,43.878z"/>
	<path fill="#FFFFFF" d="M155.968,85.562l-5.998-11.178l-6.267,11.994l-12.27-11.86L132.524,103h33.53l0.952-28.483L155.968,85.562z
		 M136.599,98.292l-1.691-1.961l1.961-1.694l1.691,1.961L136.599,98.292z M149.082,98.292l-1.691-1.961l1.961-1.694l1.696,1.961
		L149.082,98.292z M160.089,98.292l-1.696-1.961l1.961-1.694l1.691,1.961L160.089,98.292z"/>
	<path fill="none" stroke="#FFFFFF" stroke-width="1.5628" stroke-miterlimit="10" d="M62.928,117.535
		c13.167-35.279,47.166-60.4,87.033-60.4c39.946,0,74.001,25.216,87.111,60.599"/>
	<path fill="none" stroke="#FFFFFF" stroke-width="1.5628" stroke-miterlimit="10" d="M225.113,204.563
		c-16.879,23.211-44.253,38.301-75.153,38.301c-37.711,0-70.182-22.484-84.719-54.783"/>
</g>
</svg>
