<?xml version="1.0" encoding="utf-8"?>
<!-- Generator: Adobe Illustrator 17.0.0, SVG Export Plug-In . SVG Version: 6.00 Build 0)  -->
<!DOCTYPE svg PUBLIC "-//W3C//DTD SVG 1.1//EN" "http://www.w3.org/Graphics/SVG/1.1/DTD/svg11.dtd">
<svg version="1.1" id="Capa_1" xmlns="http://www.w3.org/2000/svg" xmlns:xlink="http://www.w3.org/1999/xlink" x="0px" y="0px"
	 width="300px" height="300px" viewBox="0 0 300 300" enable-background="new 0 0 300 300" xml:space="preserve">
<path fill="none" d="M268.372,116.88c-2.896-0.044-4.752,2.245-4.752,2.245c-2.943,3.735-4.542,11.819-4.542,11.819
	c-0.635,3.164,0.981,3.676,0.981,3.676c1.655,0.906,4.444-1.926,4.444-1.926c6.315-6.871,6.67-12.765,6.67-12.765
	C271.311,116.896,268.372,116.88,268.372,116.88z"/>
<path fill="none" d="M238.895,125.957c0,0-1.595-1.009-3.825,1.103c0,0-5.567,5.33-7.486,14.896c0,0-0.52,2.316,1.269,2.738
	c0,0,1.158,0.378,3.294-1.06c2.111-1.418,5.212-4.416,5.882-6.528c0,0,0.713-5.953,1.324-8.435
	C239.352,128.672,239.848,126.501,238.895,125.957z"/>
<path fill="none" d="M99.794,174.239c0-0.729-0.557-0.82-0.951-0.611c-0.386,0.209-0.842,0.674-0.842,0.674
	c-4.2,4.747-6.401,14.786-6.559,15.538c0,0,0.104,0.154,0.206,0.197c0.039,0.012,0.351,0.008,0.351-0.107v0.008
	C100,181.263,99.794,174.239,99.794,174.239z"/>
<path fill="none" d="M153.793,155.983c-0.693-0.512-1.261-0.733-1.757-0.883c-5-1.485-8.427,15.485-8.427,15.485
	c-0.772,4.306,1.682,3.915,1.682,3.915c2.273-0.099,5.204-4.228,5.74-5.296c0.54-1.067,1.186-4.185,1.186-4.185
	c0.473-2.58,1.08-5.018,1.761-8.018h-0.004C154.148,156,153.86,156.042,153.793,155.983z"/>
<path fill="none" d="M65.37,180.609c-0.945,0.264-1.13,1.883-1.13,1.883c-0.489,3.723,2.056,4.956,2.056,4.956
	c0.244,0.114,0.441,0.197,0.646,0.276c0.067,0.012,0.378,0.079,0.445-0.335c0.501-3.305,0.185-4.743,0.185-4.743
	C67.017,180.207,65.37,180.609,65.37,180.609z"/>
<path fill="none" d="M174.15,149.028c-0.299-0.351-0.461,0.185-0.461,0.185c-1.532,6.02-3.112,9.735-3.668,10.949
	c0,0-0.201,0.48,0,0.823c1.824,3.093,6.114,1.627,6.114,1.627c4.491-1.844,3.037-6.367,3.037-6.367
	C178.428,154.244,175.895,151.073,174.15,149.028z"/>
<path fill="none" d="M287.138,92.253c-0.418,0-0.138,0.04-1.138,0.083V94h1.278c0.871,0,1.448-0.146,1.448-0.852
	C288.727,92.522,288.138,92.253,287.138,92.253z"/>
<path fill="none" d="M287.566,89h-0.04c-2.963,0-5.255,2.521-5.255,5.523c0,3.045,2.293,5.492,5.338,5.492
	c2.959,0.044,5.212-2.462,5.212-5.464C292.821,91.505,290.568,89,287.566,89z M289.193,99c-0.209-1-0.335-0.98-0.544-1.811
	c-0.122-0.713-0.54-1.189-1.418-1.189H286v3h-1v-7.704c0-0.087,1.45-0.213,2.577-0.213c1.288,0,1.85,0.213,2.307,0.544
	c0.418,0.292,0.622,0.792,0.622,1.458c0,0.835-0.506,1.379-1.506,1.627v0.086c1,0.205,1.075,1.183,1.284,2.101
	c0.208,1.04,0.449,1.101,0.575,2.101H289.193z"/>
<path fill="#FFFFFF" d="M49.419,132.45c2.892-1.3,6.285-2.672,9.772-4.094l-0.12-0.008c0,0,1.929-0.827,1.929-3.361V86.245
	c0-4.55,0.036-11.307-0.087-14.167L61,70.514c0,0,0-0.012,0-0.016l0.042-0.138c-0.016-0.402-0.007-1.481,0.332-1.505
	c0,0,0.347-0.067,0.564,0.756c0.032,0.177,0.061,0.343,0.093,0.52l0.996,5.976c0.618,3.376,1.242,6.757,1.735,10.137l6.103,35.194
	c0.004,0.019,0.556,2.245,2.463,1.568c2.738-0.989,5.614-1.993,8.624-3.01c0,0,1.611-0.536,1.946-2.454l5.271-30.127
	c0.914-5.086,1.765-10.109,2.943-17.039l0.016,0.024c0.162-1.678,0.686-1.544,0.686-1.544c0.413,0.031,0.303,1.659,0.303,1.659
	s-0.366,0.008-0.35,0.008C92.547,76.951,92,84.441,92,88.325v25.931c0,0,0.799,2.744,2.662,1.744h-0.004c3.227,0,6.587-2,10.074-3
	h-0.004c0,0,1.272-0.43,1.272-2.215V48.274c0-1.513-1.134-1.274-1.134-1.274H85.593c-1.359,0-1.615,1.393-1.619,1.405l-4.397,27.248
	C78.415,82.832,78,86.186,77,95.019v0.008c0,0.248-0.004,0.524-0.031,0.78c-0.087,0.603-0.13,0.457-0.181,0.142
	c-0.031-0.311-0.045-0.627-0.072-0.93c-0.792-8.194-1.498-13.871-2.416-19.431l-4.334-27.183C69.717,46.869,68.412,47,68.412,47
	H49.328C47.854,47,47,48.274,47,48.274v82.45C47,130.724,47.449,133.325,49.419,132.45z"/>
<path fill="#FFFFFF" d="M113.732,110.403c3.652-0.969,7.656-1.938,11.568-2.896c0,0,1.7-0.39,1.7-1.978v-8.998
	c0,0-0.154-0.532,1.233-0.532h19.513c0,0,1.254-0.796,1.254-2.451v-9.258c0-1.635-1.254-1.291-1.254-1.291h-19.513
	c-1.399,0-1.233-1.774-1.233-1.774V62.193c0,0-0.19-1.193,1.307-1.193h20.896c0,0,1.797-0.359,1.797-1.856v-10.87
	c0-1.505-1.797-1.274-1.797-1.274h-35.091c-1.517,0-2.113,1.274-2.113,1.274v60.845C112,109.119,112.322,110.774,113.732,110.403z"
	/>
<path fill="#FFFFFF" d="M157,100.503v0.004c4-0.725,7.55-1.442,11.403-2.151c0,0,1.597-0.225,1.597-1.86V59.648
	c0,0-0.18-0.648,1.12-0.648h2.175c8.301,0,9.705,1.511,9.705,12.948v22.161c0,0,0.424,1.891,1.716,1.891h0.004
	c3.77-1,7.631-1.458,11.563-2.049l-0.292-0.124c0,0,1.009-0.333,1.009-1.652v-15.42c0-15.853-0.579-20.789-3.924-24.819
	c-3.097-3.9-7.517-4.935-19.037-4.935h-16.89c-1.529,0-1.15,1.274-1.15,1.274v50.728C156,99.002,156,100.779,157,100.503z"/>
<path fill="#FFFFFF" d="M226,89.661v0.004c3-0.406,6.865-0.796,10.316-1.182l0.054-0.004c0,0,1.345-0.193,1.534-1.596l0.543-3.885
	c0.757-6.248,1.142-9.625,1.808-18.615c0.027-0.355,0.118-0.946,0.338-0.946c0.02,0,0.246,0.012,0.352,1.19
	c0.65,7.336,1.376,13.714,2.097,18.371l0.451,3.349c0,0,0.507,1.332,1.507,1.198v0.004c3-0.331,6-0.65,10-0.965V86.58
	c0,0,1.54-0.177,1.265-1.792l-6.241-36.382c0,0-0.288-1.405-1.643-1.405h-15.747c-1.332,0-1.588,1.393-1.595,1.413l-6.184,39.989
	C224.856,88.403,225,89.834,226,89.661z"/>
<path fill="#FFFFFF" d="M204,92.564v0.008c3-0.536,7.589-1.056,11.478-1.568c0,0,1.522-0.161,1.522-2.155V48.2
	c0-0.311-0.239-1.323-1.512-1.323L215.505,47H204.3l-0.386-0.123c-1.257,0-1.914,0.98-1.914,1.311v43.144
	C202,91.331,202,92.742,204,92.564z"/>
<path fill="#FFFFFF" d="M68.499,148.634c0.095-0.173,0.497-0.772,1.099-1.103c7.588-4.114,29.091-13.661,58.27-23.224
	c2.282-0.962,0.398-2.903-1.006-4.291c-1.324-1.31-2.622-1.289-3.194-1.195c-30.194,7.891-81.295,23.353-111.258,44.075
	c0,0-3.179,2.498-4.345,5.417c-1.17,2.912-3.266,7.726-2.451,15.204c0,0,0.154,1.489,0.705,2.671
	c0.756,1.615,2.068,2.742,3.837,0.713c0,0,9.613-13.994,47.21-33.298c0.09-0.039,0.603-0.236,0.5,0.185
	c-0.059,0.225-0.934,1.643-1.052,1.86c-3.486,6.682-14.711,29.441-21.263,52.583c0,0-6.103,19.443-6.701,35.627
	c0,0-0.378,4.712,3.242,6.725c0,0,4.409,3.506,11.122,2.647c0,0,1.509-0.154,1.198-2.856c0,0-1.611-8.967,3.101-34.791
	C47.512,215.582,56.522,172.457,68.499,148.634z"/>
<path fill="#FFFFFF" d="M178.436,144.025c0,0-0.343-0.67-0.107-1.903c0,0,1.738-9.696-2.738-10.034c0,0-4.712-0.4-6.004,5.576
	c0,0-0.67,3.336,0.855,6.336h-0.004c0,0,0.221,0.416,0.094,0.936c-0.938,3.896-4.373,15.447-7.682,20.194
	c0,0-2.955,4.498-4.428,4.215c0,0-1.19-0.1-0.595-2.72c0,0,9.144-37.3,20.506-52.89c0,0,2.86-4.091,1.383-4.67
	c0,0-3.53-1.923-9.447,2.15c0,0-1.639,1.04-2.663,3.624c0,0-6.713,17.098-11.602,34.366c-0.165,0.583-0.575,0.299-0.575,0.299
	c-1.265-0.886-3.751-1.698-6.426-0.457c0,0-9.365,4.078-12.056,20.416c0,0-0.295,2.226-0.276,4.952c0,0,0.016,0.685-0.303,1.205
	c-1.095,1.796-3.53,5.421-5.11,5.315c0,0-1.706,0.04-0.808-4.393c0,0,0.642-3.593,2.486-9.952c0,0,2.612-8.281-1.088-9.735
	c0,0-3.128-1.592-7.438,2.379c0,0-3.298,3.274-5.575,7.292c-0.268,0.548-0.162-0.28-0.162-0.28l0.075-0.564
	c0.181-1.446,0.181-1.241,0.295-2.356c0,0,0.43-4.204-2.033-3.258c0,0-4.704,2.112-4.625,3.826c0,0,0.012,1.729-0.134,2.675
	c-0.004,0.012-0.051,0.48-0.489,1.71c-1.741,4.885-6.989,18.264-14.116,27.282c0,0-1.946,2.801-3.79,2.328
	c0,0-0.642-0.126-1.249-1.418c-0.154-0.315,0.118-0.615,0.118-0.615c1.702-1.741,5.393-5.433,8.388-11.303
	c0,0,3.546-6.579,2.912-12.859c0,0-0.248-1.927-2.001-2.498c0,0-2.289-0.918-5.126,0.548c0,0-6.67,2.387-11.078,15.392
	c0,0-2.179,7.123-1.611,13.647c0.055,0.847-0.335,1.316-0.335,1.316c-1.71,2.423-4.783,5.701-4.783,5.701
	c-1.308,1.351-1.942,1.15-1.942,1.15c-1.088-0.079-1.147-1.706-1.08-2.163c0.09-0.461,0.224-0.985,0.433-1.604
	c0,0,2.392-6.457,4.936-11.847c0,0,0.465-1.131,0.185-1.95c-0.276-0.823-1.391-3.274-1.863-3.782
	c-0.469-0.512-1.024-1.032-2.053-0.181c0,0-2.285,2.005-5.543,2.651c-0.264,0.035-0.323-0.138-0.323-0.343
	c0.016-0.102,0.028-0.225,0.055-0.489c0,0,1.505-10.685-3.526-12.19c0,0-1.793-0.721-3.971,0.138c0,0-2.907,0.878-4.148,4.365
	c0,0-3.518,10.255,4.996,14.092l-0.008,0.008c0,0,0.607,0.252,0.331,1.174c-0.15,0.485-0.311,0.981-0.489,1.493
	c0,0-4.822,15.077-15.101,20.16c0,0-1.3,0.52-1.182,1.769c0,0-0.024,5.295,5.445,5.271c0,0,1.718,0.055,3.77-2.049
	c0,0,6.682-6.268,12.095-26.715c0,0,0.177-0.622,0.689-0.705c1.056-0.157,2.281-0.433,3.652-0.886c0,0,0.398-0.114,0.607,0.102
	c0,0,0.418,0.41,0.161,0.89c0,0-6.189,10.161-5.184,18.536c0,0,0.642,3.818,3.62,3.443c0,0,2.368-0.307,4.484-2.69
	c0,0,3.664-4.101,6.902-9.322c0,0,0.28-0.449,0.461-0.079l0.004-0.004c0.626,1.32,2.202,2.868,3.739,3.101
	c0.24,0.047,3.958,0.725,6.866-2.525c0,0,6.889-8.116,11.889-19.08v0.004c0,0,0.966-1.588,0.632,0.008
	c-0.796,3.77-1.572,7.824-2.754,11.772c0,0-0.76,2.45,0.579,2.584c0,0,2.63,0.232,6.633-3.298c0,0,1.63-1.371,2.008-3.711
	c0,0,0.985-6.114,1.93-13.793c0,0,0.051-0.485,0.256-1.253c1.056-4.003,2.374-6.658,5.112-9.637c0,0,3.188-3.609,4.638-3.073
	c0,0,0.816,0.378-0.126,3.195c0,0-5.783,16.334-2.789,20.037c0.189,0.229,1.044,1.497,3.313,1.608c0,0,2.943,0.378,5.839-2.955
	c0,0,2.025-2.423,3.841-5.669c0,0,0.004-0.004,0.004-0.008l0.044,0.297c0.098-0.169,0.354-0.655,0.571,0.345h0.004
	c0.725,1,1.487,2.681,3.501,2.539c0,0,4.765-0.743,9.765-8.095v0.004c0,0,0.758-0.646,1.011-0.079
	c0.414,0.792,1.662,2.285,3.616,1.958c0,0,2.633-0.406,5.351-3.518c0,0,2.134-2.596,5.719-7.785c0,0,0.275-0.347,0.46-0.048
	c0.776,1.076,3.874,4.602,9.937,2.809c0,0,7.77-2.277,9.177-8.123c0,0,0.644-3.175-1.369-6.583
	C184.903,155.08,180.193,147.413,178.436,144.025z M67.388,187.389c-0.067,0.414-0.378,0.347-0.445,0.335
	c-0.205-0.079-0.402-0.161-0.646-0.276c0,0-2.545-1.233-2.056-4.956c0,0,0.185-1.619,1.13-1.883c0,0,1.647-0.402,2.202,2.036
	C67.573,182.646,67.888,184.084,67.388,187.389z M91.639,190.037c-0.102-0.044-0.139-0.197-0.139-0.197
	c0.158-0.752,2.302-10.791,6.502-15.538c0,0,0.399-0.465,0.785-0.674c0.394-0.209,1.017-0.118,1.017,0.611
	c0,0,0.196,7.024-7.804,15.7v-0.008C92,190.044,91.678,190.048,91.639,190.037z M153.978,157c-0.681,3-1.288,5.436-1.761,8.016
	c0,0-0.646,3.152-1.186,4.219c-0.536,1.068-3.467,5.175-5.74,5.273c0,0-2.454,0.373-1.682-3.933c0,0,3.428-16.992,8.427-15.507
	c0.496,0.15,1.063,0.404,1.757,0.917c0.067,0.059,0.355,0.015,0.181,1.015H153.978z M176.135,162.612c0,0-4.29,1.466-6.114-1.627
	c-0.201-0.343,0-0.823,0-0.823c0.556-1.214,2.135-4.929,3.668-10.949c0,0,0.162-0.536,0.461-0.185
	c1.745,2.045,4.278,5.216,5.023,7.218C179.173,156.246,180.627,160.769,176.135,162.612z"/>
<path fill="#FFFFFF" d="M289,94.798v-0.086c1-0.249,1.493-0.792,1.493-1.627c0-0.666-0.254-1.166-0.672-1.458
	c-0.457-0.331-0.975-0.544-2.263-0.544c-1.127,0-2.558,0.126-2.558,0.213V99h1v-3h1.231c0.878,0,1.296,0.476,1.418,1.189
	c0.209,0.831,0.335,0.811,0.544,1.811h1.667c-0.126-1-0.367-1.061-0.575-2.101C290.075,95.981,290,95.003,289,94.798z M287.278,94
	H286v-1.664c1-0.043,0.72-0.083,1.138-0.083c1,0,1.589,0.269,1.589,0.895C288.727,93.854,288.149,94,287.278,94z"/>
<path fill="#FFFFFF" d="M287.609,88h-0.043c-3.916,0-7.044,2.877-7.044,6.71c0,3.837,3.128,6.816,7.044,6.816
	s7.005-2.948,7.005-6.785C294.571,90.908,291.482,88,287.609,88z M287.609,100.046c-3.045,0-5.338-2.477-5.338-5.523
	c0-3.002,2.293-5.523,5.255-5.523h0.04c3.002,0,5.255,2.521,5.255,5.566C292.821,97.568,290.568,100.089,287.609,100.046z"/>
<path fill="#FFFFFF" d="M254.993,147.35c0,0-0.843-0.894-3.723-0.256c-2.88,0.642-17.886,4.59-42.34,18.442
	c0,0-2.419,1.651-3.672,1.202c0,0-1.359-0.433-0.603-3.278c4.239-15.885,7.147-24.288,7.147-24.288
	c10.082-24.812,15.885-34.102,15.885-34.102c3.912-6.559,2.234-7.469,2.234-7.469c-1.875-2.392-11.918,1.414-11.918,1.414
	c-4.96,1.623-7.005,5.334-7.005,5.334c-7.899,14.412-12.288,34.65-12.288,34.65c-1.97,7.312-3.341,15.191-4.566,22.311
	c0,0-2.088,9.459-1.592,15.586c0,0,0.162,2.356,1.765,3.794c0,0,1.895,1.982,7.19-0.461c0,0,27.444-12.934,45.094-17.023
	c0,0,2.312-0.536,3.534-2.931c0,0,3.415-6.969,5.295-10.401C255.43,149.871,256.194,148.28,254.993,147.35z"/>
<path fill="#FFFFFF" d="M274.868,110.096c-2.439-1.02-4.94-0.409-5.764-0.051c-0.823,0.359-2.577,1.521-2.778,1.576
	c-0.465,0.126-0.205-0.524-0.205-0.524c3.053-9.329,9.345-20.057,9.345-20.057c1.079-2.116,0.284-2.553,0.284-2.553
	c-0.595-0.705-1.974-0.489-1.974-0.489c-1.544,0.205-5.445,1.658-6.619,2.383c-1.17,0.721-1.942,2.265-1.942,2.265
	c-1.753,3.676-5.724,14.987-7.15,20.475c-1.422,5.484-4.097,14.325-4.097,14.325c-3.353,7.005-7.533,10.433-7.533,10.433
	c-1.3,1.284-1.97,1.19-1.97,1.19c-1.08-0.091-0.847-1.304-0.847-1.304c1.032-9.262,5.906-17.543,5.906-17.543
	c0.91-1.587-0.812-1.982-0.812-1.982c-2.021-0.303-4.968,0.221-5.996,0.575c-1.233,0.425-1.899,3.045-1.899,3.045
	c-0.165,0.488-0.615,0.347-0.615,0.347c-0.981-0.445-2.6-0.331-2.6-0.331c-7.525,1.02-13.844,11.283-13.844,11.283
	c-4.275,7.261-4.172,13.387-4.172,13.387c0.158,5.563,4.791,5.204,4.791,5.204c4.72,0.118,12.95-8.585,12.95-8.585
	c0.737-0.595,0.902,0.465,0.902,0.465c0.445,2.648,1.939,2.75,1.939,2.75c3.392,0.524,12.201-9.199,12.201-9.199
	c0.662-0.693,0.792,0.181,0.792,0.181c0.646,2.246,2.308,3.065,2.308,3.065c4.369,2.462,11.48-3.219,11.48-3.219
	c11.071-8.687,11.165-19.23,11.165-19.23C278.67,111.203,274.868,110.096,274.868,110.096z M239.352,128.672
	c-0.611,2.482-1.324,8.435-1.324,8.435c-0.67,2.111-3.77,5.11-5.882,6.528c-2.135,1.438-3.294,1.06-3.294,1.06
	c-1.789-0.422-1.269-2.738-1.269-2.738c1.919-9.566,7.486-14.896,7.486-14.896c2.23-2.112,3.825-1.103,3.825-1.103
	C239.848,126.501,239.352,128.672,239.352,128.672z M264.503,132.694c0,0-2.789,2.833-4.444,1.926c0,0-1.615-0.512-0.981-3.676
	c0,0,1.599-8.084,4.542-11.819c0,0,1.856-2.289,4.752-2.245c0,0,2.939,0.016,2.801,3.049
	C271.173,119.929,270.818,125.823,264.503,132.694z"/>
</svg>
