<?xml version="1.0" encoding="utf-8"?>
<!-- Generator: Adobe Illustrator 17.0.0, SVG Export Plug-In . SVG Version: 6.00 Build 0)  -->
<!DOCTYPE svg PUBLIC "-//W3C//DTD SVG 1.1//EN" "http://www.w3.org/Graphics/SVG/1.1/DTD/svg11.dtd">
<svg version="1.1" id="Capa_1" xmlns="http://www.w3.org/2000/svg" xmlns:xlink="http://www.w3.org/1999/xlink" x="0px" y="0px"
	 width="300px" height="300px" viewBox="0 0 300 300" enable-background="new 0 0 300 300" xml:space="preserve">
<g>
	<g>
		<path fill="#FFFFFF" d="M180.077,215.24c-0.503,0-0.971-0.322-1.132-0.828c-0.2-0.625,0.146-1.294,0.771-1.493
			c0.349-0.111,35.336-11.109,74.391-9.59c12.146,0.47,22.076,1.42,28.716,2.747c5.104,1.02,6.62,1.934,6.776,2.035
			c0.551,0.356,0.71,1.092,0.353,1.643c-0.356,0.551-1.092,0.709-1.643,0.353c-0.207-0.122-5.877-3.303-34.294-4.402
			c-38.644-1.503-73.232,9.369-73.577,9.479C180.319,215.221,180.197,215.24,180.077,215.24z"/>
	</g>
	<path fill="#FFFFFF" d="M234.319,177c0.465-3,0.703-6.991,0.703-10.429c0-21.901-8.527-42.411-24.009-57.895
		c-15.483-15.484-36.07-23.972-57.97-23.972c-21.9,0-42.487,8.547-57.97,24.031c-15.483,15.484-24.01,35.924-24.01,57.825
		C71.062,170,71.3,174,71.765,177H10v1h280v-1H234.319z M73.051,166.571c0-44.111,35.885-79.918,79.992-79.918
		c21.369,0,41.457,8.36,56.564,23.469c15.107,15.108,23.427,35.059,23.427,56.429c0,3.435-0.243,7.449-0.719,10.449H73.77
		C73.294,174,73.051,170.006,73.051,166.571z"/>
	<g>
		<g>
			<path fill="#FFFFFF" d="M14.441,171.385h-4.37v-30.321h3.552l10.01,14.726l10.005-14.726h3.463v30.321h-4.333v-21.361
				l-7.927,11.788h-2.468l-7.932-11.788V171.385z"/>
			<path fill="#FFFFFF" d="M37.814,172.098h-5.759v-19.736l-6.834,10.163h-3.228l-6.839-10.164v19.737H9.358v-31.747h4.642
				l9.633,14.17l9.627-14.17h4.554V172.098z M33.482,170.672h2.906v-28.895h-2.373l-10.382,15.282l-10.388-15.282h-2.461v28.895
				h2.944v-22.985l9.025,13.412h1.709l9.02-13.413V170.672z"/>
		</g>
		<g>
			<path fill="#FFFFFF" d="M59.566,145.259c2.773-2.817,6.671-4.592,10.92-4.592c4.288,0,8.145,1.774,10.959,4.592
				c2.729,2.825,4.505,6.674,4.505,10.971c0,4.276-1.776,8.13-4.505,10.954c-2.814,2.856-6.671,4.588-10.959,4.588
				c-4.249,0-8.147-1.732-10.92-4.588c-2.727-2.824-4.504-6.678-4.504-10.954C55.062,151.933,56.839,148.083,59.566,145.259z
				 M78.323,148.385c-2.037-2.044-4.85-3.297-7.836-3.297c-2.993,0-5.762,1.253-7.758,3.297c-1.989,1.994-3.247,4.765-3.247,7.845
				c0,3.066,1.258,5.834,3.247,7.824c1.996,2.044,4.765,3.296,7.758,3.296c2.986,0,5.8-1.253,7.836-3.296
				c1.95-1.991,3.208-4.723,3.208-7.824C81.531,153.1,80.273,150.379,78.323,148.385z"/>
			<path fill="#FFFFFF" d="M70.486,172.485c-4.301,0-8.468-1.751-11.432-4.805c-3.035-3.144-4.706-7.21-4.706-11.451
				c0-4.252,1.671-8.324,4.705-11.467c3.01-3.058,7.175-4.809,11.433-4.809c4.301,0,8.372,1.705,11.464,4.8
				c3.043,3.149,4.713,7.222,4.713,11.476c0,4.243-1.671,8.309-4.705,11.45C78.904,170.78,74.831,172.485,70.486,172.485z
				 M70.486,141.38c-3.878,0-7.673,1.596-10.412,4.379c-2.771,2.871-4.3,6.591-4.3,10.471c0,3.869,1.529,7.584,4.304,10.459
				c2.696,2.777,6.49,4.37,10.407,4.37c3.96,0,7.671-1.554,10.451-4.376c2.771-2.868,4.3-6.582,4.3-10.453
				c0-3.882-1.529-7.603-4.305-10.476C78.118,142.936,74.405,141.38,70.486,141.38z M70.486,168.064c-3.076,0-6.09-1.28-8.269-3.511
				c-2.222-2.225-3.45-5.183-3.45-8.323c0-3.15,1.227-6.115,3.455-8.349c2.174-2.226,5.188-3.506,8.263-3.506
				c3.081,0,6.122,1.278,8.342,3.506c2.204,2.254,3.416,5.217,3.416,8.348c0,3.121-1.212,6.078-3.412,8.324
				C76.608,166.786,73.567,168.064,70.486,168.064z M70.486,145.801c-2.694,0-5.336,1.123-7.248,3.082
				c-1.965,1.97-3.044,4.577-3.044,7.347c0,2.76,1.079,5.36,3.038,7.321c1.918,1.964,4.56,3.087,7.254,3.087
				c2.705,0,5.377-1.125,7.331-3.087c1.933-1.974,3-4.575,3-7.321c0-2.756-1.067-5.365-3.005-7.346
				C75.863,146.926,73.191,145.801,70.486,145.801z"/>
		</g>
		<g>
			<path fill="#FFFFFF" d="M103.953,171.385v-30.374l3.376,0.053l14.777,21.343v-21.343h4.329v30.321h-3.458l-14.649-21.194v21.194
				H103.953z"/>
			<path fill="#FFFFFF" d="M127.149,172.098h-4.545l-13.562-19.621v19.621h-5.801v-31.811l4.467,0.07l13.686,19.768v-19.774h5.755
				V172.098z M123.352,170.672h2.371v-28.895h-2.903v22.914l-15.868-22.919l-2.286-0.036v28.936h2.949v-22.767L123.352,170.672z"/>
		</g>
		<g>
			<path fill="#FFFFFF" d="M152.326,171.513v-26.038h-9.187v-4.411h22.703v4.411h-9.146v26.038H152.326z"/>
			<path fill="#FFFFFF" d="M157.409,172.226h-5.796v-26.038h-9.187v-5.837h24.129v5.837h-9.146V172.226z M153.039,170.8h2.944
				v-26.038h9.146v-2.985h-21.277v2.985h9.187V170.8z"/>
		</g>
		<g>
			<path fill="#FFFFFF" d="M199.782,162.458h-10.881c-1.166,2.775-2.676,6.415-3.635,8.928h-4.721l12.173-30.718h3.211
				l12.171,30.718h-4.675L199.782,162.458z M190.553,158.338h7.538l-3.728-10.691L190.553,158.338z"/>
			<path fill="#FFFFFF" d="M209.15,172.098h-6.204l-3.642-8.927h-9.928c-1.551,3.699-2.709,6.547-3.443,8.469l-0.175,0.459h-6.262
				l12.738-32.144h4.18L209.15,172.098z M203.904,170.672h3.146l-11.606-29.292h-2.243l-11.607,29.292h3.182
				c0.774-1.999,1.939-4.852,3.468-8.49l0.184-0.437h11.834L203.904,170.672z M199.095,159.051h-9.554l4.83-13.549L199.095,159.051z
				 M191.564,157.625h5.523l-2.731-7.834L191.564,157.625z"/>
		</g>
		<g>
			<path fill="#FFFFFF" d="M223.853,171.385v-30.374l3.378,0.053l14.772,21.343v-21.343h4.327v30.321h-3.46l-14.649-21.194v21.194
				H223.853z"/>
			<path fill="#FFFFFF" d="M247.043,172.098h-4.547l-13.562-19.621v19.621h-5.794v-31.811l4.469,0.07l13.681,19.768v-19.773h5.754
				V172.098z M243.244,170.672h2.373v-28.895h-2.901v22.914l-15.863-22.92l-2.287-0.036v28.936h2.942v-22.767L243.244,170.672z"/>
		</g>
		<g>
			<path fill="#FFFFFF" d="M281.28,162.458H270.4c-1.167,2.775-2.682,6.415-3.642,8.928h-4.721l12.178-30.718h3.204l12.173,30.718
				h-4.677L281.28,162.458z M272.052,158.338h7.532l-3.728-10.691L272.052,158.338z"/>
			<path fill="#FFFFFF" d="M290.642,172.098h-6.206l-3.636-8.927h-9.926c-1.595,3.799-2.725,6.572-3.45,8.469l-0.175,0.458h-6.262
				l12.744-32.144h4.172L290.642,172.098z M285.395,170.672h3.147l-11.607-29.292h-2.235l-11.613,29.292h3.181
				c0.762-1.967,1.902-4.753,3.475-8.491l0.183-0.437h11.833L285.395,170.672z M280.587,159.051h-9.546l4.821-13.551
				L280.587,159.051z M273.062,157.625h5.517l-2.731-7.832L273.062,157.625z"/>
		</g>
	</g>
	<path fill="#FFFFFF" d="M46.813,157.447c0,0.791-0.633,1.437-1.425,1.437s-1.427-0.646-1.427-1.437
		c0-0.781,0.635-1.419,1.427-1.419S46.813,156.667,46.813,157.447z"/>
	<path fill="#FFFFFF" d="M97.922,157.447c0,0.791-0.639,1.437-1.425,1.437c-0.79,0-1.432-0.646-1.432-1.437
		c0-0.781,0.642-1.419,1.432-1.419C97.284,156.028,97.922,156.667,97.922,157.447z"/>
	<path fill="#FFFFFF" d="M139.758,157.447c0,0.791-0.641,1.437-1.43,1.437c-0.786,0-1.421-0.646-1.421-1.437
		c0-0.781,0.635-1.419,1.421-1.419C139.117,156.028,139.758,156.667,139.758,157.447z"/>
	<path fill="#FFFFFF" d="M173.393,157.447c0,0.791-0.641,1.437-1.427,1.437c-0.786,0-1.426-0.646-1.426-1.437
		c0-0.781,0.641-1.419,1.426-1.419C172.752,156.028,173.393,156.667,173.393,157.447z"/>
	<path fill="#FFFFFF" d="M215.707,157.447c0,0.791-0.642,1.437-1.435,1.437c-0.777,0-1.419-0.646-1.419-1.437
		c0-0.781,0.642-1.419,1.419-1.419C215.065,156.028,215.707,156.667,215.707,157.447z"/>
	<path fill="#FFFFFF" d="M258.788,157.447c0,0.791-0.635,1.437-1.421,1.437s-1.428-0.646-1.428-1.437
		c0-0.781,0.642-1.419,1.428-1.419S258.788,156.667,258.788,157.447z"/>
	<g>
		<polygon points="35.086,169.966 34.611,169.966 34.611,143.711 23.591,159.761 12.188,143.691 12.188,169.966 11.712,169.966 
			11.712,142.199 23.584,158.931 35.086,142.179 		"/>
	</g>
	<g>
		<path d="M70.662,169.966c-7.513,0-13.625-6.114-13.625-13.63c0-7.515,6.112-13.629,13.625-13.629
			c7.517,0,13.633,6.114,13.633,13.629C84.295,163.852,78.179,169.966,70.662,169.966z M70.662,143.183
			c-7.251,0-13.15,5.901-13.15,13.153c0,7.253,5.899,13.154,13.15,13.154c7.255,0,13.158-5.901,13.158-13.154
			C83.819,149.084,77.917,143.183,70.662,143.183z"/>
	</g>
	<g>
		<polygon points="124.389,170.511 106.479,143.728 106.479,169.728 106.004,169.728 106.004,142.162 123.914,168.945 
			123.914,142.945 124.389,142.945 		"/>
	</g>
	<g>
		<rect x="144.671" y="142.707" width="19.495" height="0.475"/>
	</g>
	<g>
		<rect x="154.184" y="142.945" width="0.475" height="27.262"/>
	</g>
	<g>
		<g>
			<polygon points="204.986,170.293 194.313,142.788 183.217,169.818 182.777,169.638 194.326,141.505 205.43,170.121 			"/>
		</g>
		<g>
			<rect x="186.955" y="159.85" width="14.323" height="0.475"/>
		</g>
	</g>
	<g>
		<polygon points="244.284,170.511 226.372,143.728 226.372,169.728 225.896,169.728 225.896,142.162 243.809,168.945 
			243.809,142.945 244.284,142.945 		"/>
	</g>
	<g>
		<path d="M225.765,169.033c-0.137,0.043-0.273,0.074-0.398,0.11c-0.133,0.032-0.282,0.067-0.412,0.099l-0.85,0.22l-1.664,0.444
			c-0.536,0.17-1.079,0.33-1.634,0.49c-0.541,0.16-1.102,0.326-1.664,0.511c-1.086,0.344-2.177,0.699-3.256,1.061
			c-1.072,0.358-2.157,0.745-3.248,1.15c-1.091,0.404-2.156,0.823-3.204,1.27c-1.047,0.444-2.083,0.916-3.112,1.419
			c-0.506,0.27-1.024,0.522-1.515,0.791c-0.506,0.259-1.004,0.529-1.483,0.816c-0.444,0.259-0.919,0.554-1.423,0.873
			c-0.243,0.17-0.472,0.33-0.705,0.489c-0.211,0.16-0.436,0.319-0.662,0.486c-0.218,0.177-0.435,0.362-0.647,0.529
			c-0.211,0.16-0.404,0.355-0.593,0.557c-0.38,0.334-0.729,0.749-1.052,1.21c-0.327,0.461-0.545,0.908-0.669,1.327
			c-0.044,0.128-0.069,0.245-0.087,0.362c-0.025,0.128-0.043,0.245-0.069,0.337c-0.037,0.277-0.025,0.511,0.039,0.688
			c0.018,0.11,0.041,0.202,0.073,0.295c0.025,0.092,0.069,0.177,0.138,0.252c0.092,0.167,0.249,0.327,0.449,0.486
			c0.142,0.103,0.335,0.227,0.605,0.362c0.124,0.043,0.25,0.092,0.362,0.121c0.117,0.039,0.249,0.082,0.367,0.124
			c0.255,0.085,0.523,0.135,0.804,0.167c0.268,0.028,0.543,0.067,0.828,0.103c0.282,0.05,0.562,0.068,0.843,0.082
			c0.286,0.011,0.568,0.028,0.848,0.043h0.848c0.144,0,0.286-0.007,0.424-0.014c0.144-0.011,0.287-0.011,0.429-0.011
			c0.275,0,0.568-0.007,0.855-0.018c0.293-0.014,0.588-0.025,0.861-0.05l1.726-0.124l1.753-0.117l1.728-0.121l1.751-0.092
			c0.585-0.039,1.178-0.068,1.758-0.068c0.587-0.014,1.173,0,1.76,0.043c0.291,0,0.592,0,0.891,0.025
			c0.292,0.018,0.587,0.053,0.891,0.092c0.277,0.043,0.568,0.092,0.882,0.135c0.298,0.053,0.591,0.121,0.871,0.195
			c0.593,0.142,1.173,0.362,1.76,0.639c0.298,0.16,0.561,0.344,0.784,0.546c0.138,0.099,0.268,0.202,0.372,0.312
			c0.114,0.117,0.22,0.223,0.327,0.351c0.238,0.302,0.412,0.589,0.511,0.848c0.076,0.16,0.142,0.312,0.199,0.465
			c0.039,0.149,0.096,0.309,0.131,0.468c0.062,0.305,0.089,0.625,0.089,0.944v0.823c-0.019,0.032-0.027,0.067-0.027,0.11
			c-0.062,0.646-0.231,1.253-0.509,1.814c-0.126,0.287-0.27,0.557-0.431,0.827c-0.156,0.259-0.342,0.518-0.536,0.781
			c-0.188,0.234-0.382,0.472-0.58,0.689c-0.201,0.202-0.419,0.422-0.637,0.639c-0.422,0.429-0.873,0.823-1.361,1.185
			c-0.467,0.362-0.946,0.706-1.432,1.018c-0.499,0.337-0.999,0.639-1.51,0.951c-1.022,0.578-2.07,1.125-3.11,1.629
			c-1.049,0.504-2.115,0.983-3.206,1.423c-1.093,0.461-2.177,0.88-3.268,1.277c-0.566,0.192-1.116,0.394-1.664,0.589
			c-0.541,0.184-1.084,0.376-1.629,0.553l-1.664,0.546l-1.696,0.511c-0.548,0.16-1.097,0.33-1.646,0.483
			c-0.566,0.167-1.129,0.327-1.714,0.486c-1.135,0.337-2.244,0.646-3.36,0.908l-1.696,0.454c-0.275,0.057-0.556,0.124-0.843,0.192
			c-0.28,0.074-0.568,0.152-0.848,0.238l-3.392,0.78l-1.721,0.369l-1.27,0.27l-0.451,0.085c-0.286,0.068-0.536,0.015-0.761-0.135
			c-0.218-0.145-0.355-0.355-0.392-0.624c-0.055-0.277-0.02-0.529,0.126-0.745c0.137-0.227,0.35-0.373,0.635-0.429h0.057l0.424-0.06
			l0.422-0.092l0.85-0.117c0.279-0.068,0.566-0.117,0.846-0.167c0.275-0.043,0.561-0.096,0.843-0.135l3.424-0.667l1.689-0.358
			c0.286-0.068,0.568-0.128,0.846-0.188c0.289-0.064,0.568-0.131,0.85-0.209c0.568-0.124,1.123-0.252,1.683-0.387
			c0.548-0.124,1.109-0.252,1.677-0.411c0.561-0.135,1.123-0.27,1.677-0.412c0.55-0.142,1.116-0.295,1.678-0.454
			c0.287-0.074,0.561-0.16,0.836-0.245c0.273-0.082,0.548-0.167,0.828-0.241l1.634-0.479c1.111-0.344,2.202-0.706,3.279-1.079
			c1.08-0.376,2.166-0.774,3.263-1.192c1.04-0.429,2.108-0.884,3.174-1.363c0.524-0.241,1.036-0.486,1.54-0.738
			c0.504-0.262,1.011-0.521,1.508-0.816c0.511-0.276,0.992-0.571,1.459-0.883c0.458-0.309,0.924-0.639,1.398-0.983
			c0.213-0.16,0.431-0.337,0.642-0.522c0.211-0.177,0.429-0.369,0.649-0.571c0.199-0.185,0.404-0.362,0.573-0.572
			c0.186-0.202,0.375-0.411,0.548-0.638c0.169-0.22,0.318-0.437,0.456-0.674c0.137-0.241,0.268-0.468,0.39-0.713
			c0.108-0.245,0.185-0.489,0.257-0.724c0.069-0.245,0.13-0.504,0.162-0.781c0.025-0.025,0.032-0.06,0.032-0.092v-0.305
			c0.025-0.092,0.032-0.217,0.032-0.401l-0.089-0.749c-0.117-0.504-0.337-0.969-0.635-1.363c-0.294-0.387-0.699-0.706-1.178-0.976
			c-0.451-0.216-0.955-0.412-1.542-0.571c-0.467-0.142-1.015-0.234-1.639-0.302c-0.28-0.036-0.566-0.074-0.848-0.092
			c-0.273-0.018-0.561-0.025-0.841-0.025c-0.586-0.043-1.161-0.06-1.728-0.043c-0.566,0-1.141,0.025-1.721,0.068l-1.728,0.092
			l-1.719,0.153l-1.726,0.117l-1.721,0.16l-1.76,0.117c-0.161,0-0.318,0-0.454,0c-0.138,0-0.28,0.007-0.417,0.025h-0.91
			c-0.289,0.025-0.575,0.036-0.882,0.018c-0.298-0.011-0.605-0.025-0.91-0.043c-0.279-0.043-0.573-0.074-0.878-0.11
			c-0.3-0.025-0.612-0.085-0.928-0.167c-0.307-0.06-0.612-0.145-0.91-0.27c-0.346-0.142-0.65-0.302-0.912-0.486
			c-0.281-0.177-0.536-0.429-0.756-0.759c-0.241-0.334-0.399-0.681-0.454-1.015c-0.1-0.355-0.132-0.706-0.087-1.068
			c0-0.305,0.05-0.632,0.142-1.001c0.089-0.319,0.193-0.625,0.339-0.916c0.137-0.305,0.286-0.582,0.454-0.869
			c0.181-0.284,0.362-0.554,0.561-0.781c0.188-0.241,0.387-0.479,0.587-0.695c0.223-0.22,0.449-0.447,0.667-0.649
			c0.216-0.217,0.442-0.419,0.667-0.621c0.461-0.412,0.935-0.78,1.423-1.128c0.479-0.334,0.977-0.671,1.483-0.99
			c0.498-0.319,1.002-0.639,1.51-0.944c0.504-0.302,1.015-0.585,1.544-0.873c0.525-0.287,1.056-0.553,1.592-0.806
			c0.531-0.252,1.059-0.507,1.584-0.766c0.524-0.245,1.054-0.486,1.59-0.731c0.536-0.245,1.073-0.472,1.617-0.699
			c1.084-0.461,2.175-0.897,3.271-1.309c1.084-0.412,2.177-0.823,3.261-1.221c0.568-0.209,1.123-0.404,1.666-0.596
			c0.541-0.195,1.103-0.38,1.664-0.564c0.287-0.099,0.561-0.191,0.83-0.277c0.279-0.092,0.548-0.184,0.834-0.259l0.85-0.281
			l0.846-0.266c0.38-0.11,0.742-0.06,1.098,0.117c0.362,0.185,0.58,0.461,0.692,0.848c0.112,0.387,0.08,0.756-0.094,1.1
			c-0.188,0.362-0.474,0.589-0.878,0.692C225.81,169.022,225.79,169.033,225.765,169.033z"/>
		<path d="M229.102,183.131l2.181-0.362l0.451-1.363c0.08-0.284,0.194-0.589,0.33-0.951c0.044-0.142,0.094-0.308,0.154-0.479
			c0.057-0.149,0.121-0.319,0.181-0.479l0.362-0.933l0.394-0.972l0.268-0.515c0.02-0.06,0.074-0.153,0.149-0.27l0.1-0.184
			l0.145-0.178c0.025-0.025,0.037-0.039,0.037-0.067c0.018-0.014,0.048-0.032,0.087-0.057c0.018-0.06,0.081-0.128,0.181-0.177
			l0.179-0.124l0.302-0.121c0.041,0,0.068-0.007,0.098-0.014c0.019-0.011,0.064-0.011,0.151-0.011
			c0.037-0.025,0.069-0.032,0.087-0.025c0.02,0.011,0.055,0.025,0.092,0.025c0.145,0,0.27,0,0.362,0.025l0.362,0.178l0.3,0.277
			l0.181,0.27l0.092,0.209l0.057,0.305v0.486c-0.012,0.043-0.03,0.11-0.03,0.21l-0.087,0.337c-0.037,0.103-0.064,0.195-0.076,0.287
			c-0.005,0.092-0.037,0.174-0.073,0.252c-0.044,0.099-0.076,0.191-0.108,0.277c-0.03,0.075-0.062,0.16-0.105,0.245
			c-0.057,0.149-0.126,0.319-0.181,0.479c-0.057,0.167-0.126,0.326-0.211,0.486l-0.426,0.94l-0.417,0.901l-0.092,0.185l25.839-4.262
			c0.335-0.067,0.653,0.018,0.955,0.217c0.286,0.22,0.467,0.497,0.523,0.834c0.053,0.344-0.019,0.663-0.225,0.958
			c-0.206,0.294-0.491,0.461-0.83,0.521h-0.06l-27.026,3.339c-0.092,0.216-0.206,0.425-0.33,0.61c-0.119,0.202-0.231,0.398-0.33,0.6
			c-0.062,0.16-0.119,0.309-0.17,0.454c-0.048,0.131-0.098,0.284-0.129,0.451c-0.226,0.625-0.439,1.246-0.635,1.859
			c-0.206,0.621-0.399,1.246-0.605,1.891c-0.225,0.621-0.431,1.252-0.617,1.884c-0.201,0.621-0.382,1.242-0.562,1.856
			c-0.105,0.337-0.193,0.649-0.291,0.969c-0.096,0.312-0.188,0.621-0.289,0.94l-0.504,1.916l-0.243,0.933
			c-0.044,0.16-0.082,0.319-0.112,0.489c-0.032,0.16-0.069,0.319-0.106,0.486c-0.08,0.319-0.156,0.632-0.225,0.951
			c-0.074,0.319-0.137,0.632-0.2,0.958c-0.06,0.319-0.11,0.639-0.174,0.958c-0.036,0.326-0.087,0.646-0.129,0.969
			c-0.02,0.156-0.032,0.319-0.044,0.468c-0.013,0.153-0.013,0.312-0.013,0.472c-0.037,0.16-0.037,0.309,0,0.454
			c0,0.202,0.005,0.344,0.03,0.419c0,0.11,0.007,0.177,0.027,0.22c0,0.032,0.012,0.057,0.025,0.067
			c0.005,0.014,0.005,0.032,0.005,0.05l0.039,0.025c0.053,0,0.092,0,0.11-0.025c0.124-0.018,0.245-0.085,0.369-0.185
			c0.101-0.074,0.211-0.17,0.33-0.252c0.126-0.092,0.23-0.185,0.332-0.287c0.124-0.11,0.236-0.217,0.348-0.334
			c0.112-0.121,0.22-0.245,0.318-0.362c0.387-0.49,0.78-1.001,1.18-1.547c0.186-0.263,0.362-0.532,0.548-0.798
			c0.181-0.281,0.362-0.557,0.543-0.834l1.004-1.689l0.504-0.859l0.463-0.841l1.838-3.506l0.848-1.788l0.431-0.908l0.387-0.901
			c0.062-0.149,0.161-0.241,0.303-0.302c0.138-0.043,0.282-0.032,0.426,0.025c0.323,0.135,0.412,0.38,0.275,0.724v0.032
			l-0.463,0.876l-0.447,0.908l-0.912,1.746c-0.3,0.589-0.603,1.178-0.923,1.767c-0.305,0.578-0.63,1.167-0.949,1.75l-0.492,0.88
			l-0.481,0.877l-1.027,1.689l-1.086,1.7c-0.206,0.284-0.405,0.553-0.593,0.83c-0.194,0.27-0.399,0.539-0.618,0.809
			c-0.092,0.135-0.211,0.259-0.335,0.387c-0.124,0.124-0.238,0.252-0.362,0.394c-0.282,0.287-0.556,0.504-0.818,0.688
			c-0.206,0.117-0.38,0.227-0.548,0.312l-0.33,0.085c-0.05,0-0.082,0.007-0.114,0.025c-0.02,0-0.06,0.014-0.099,0.014
			c-0.018,0-0.05,0-0.101,0c-0.048,0-0.105-0.014-0.142-0.039c-0.037,0-0.08-0.011-0.132-0.028
			c-0.049-0.014-0.099-0.039-0.137-0.057l-0.211-0.195c-0.145-0.117-0.225-0.227-0.245-0.319c-0.043-0.068-0.069-0.124-0.069-0.185
			c-0.016-0.057-0.036-0.11-0.048-0.149c-0.037-0.128-0.057-0.227-0.057-0.305c-0.05-0.099-0.069-0.191-0.069-0.266
			c0-0.085-0.007-0.178-0.032-0.27v-0.546c0-0.17,0-0.337,0-0.521c0-0.185,0.012-0.355,0.032-0.515l0.094-1.001
			c0.039-0.159,0.064-0.326,0.08-0.504c0-0.185,0.026-0.362,0.044-0.521l0.302-1.966l0.179-1.001l0.181-0.965
			c0.137-0.674,0.273-1.32,0.394-1.984c0.117-0.656,0.261-1.306,0.422-1.952c0.076-0.344,0.156-0.688,0.226-1.043
			c0.074-0.351,0.161-0.706,0.262-1.05c-0.126-0.036-0.218-0.074-0.275-0.117c-0.22-0.153-0.293-0.372-0.213-0.632v-0.032
			l0.362-0.908l0.181-0.479l0.186-0.454l0.754-1.817l0.332-0.816l0.124-0.394c0.039-0.178,0.089-0.362,0.132-0.529
			c0.049-0.178,0.113-0.344,0.169-0.532l-1.565,0.188c-0.186,0.039-0.342,0-0.476-0.121c-0.129-0.099-0.206-0.252-0.229-0.425
			c-0.037-0.164,0-0.312,0.106-0.447C228.796,183.254,228.941,183.173,229.102,183.131z M235.816,178.077h-0.037v0.032
			C235.779,178.095,235.798,178.077,235.816,178.077z"/>
		<path d="M239.595,190.696l-0.085,0.177l-0.096,0.16c-0.018,0.11-0.069,0.227-0.154,0.319c-0.032,0.135-0.081,0.252-0.131,0.369
			c-0.057,0.128-0.099,0.227-0.17,0.337l-0.266,0.689l-0.275,0.724c-0.156,0.472-0.325,0.94-0.486,1.412
			c-0.161,0.472-0.31,0.958-0.456,1.437l-0.355,1.419l-0.162,0.731l-0.112,0.724l-0.094,0.724v0.663c0,0.05,0.012,0.092,0.018,0.16
			c0.007,0.06,0.007,0.11,0.007,0.142c0.025,0.053,0.032,0.085,0.032,0.128c0,0.035,0.018,0.067,0.037,0.092h0.025
			c0.023,0,0.036,0,0.048-0.018c0.007-0.007,0.027-0.007,0.039-0.007l0.25-0.128c0.124-0.068,0.278-0.185,0.484-0.369l0.456-0.511
			c0.074-0.103,0.149-0.195,0.22-0.287c0.066-0.092,0.142-0.185,0.199-0.284c0.144-0.202,0.281-0.405,0.41-0.589
			c0.133-0.202,0.257-0.404,0.38-0.624l0.694-1.302c0.442-0.94,0.836-1.874,1.178-2.75c0.106-0.227,0.186-0.461,0.255-0.695
			c0.076-0.245,0.156-0.489,0.226-0.731c0.044-0.103,0.08-0.213,0.129-0.33c0.032-0.117,0.076-0.241,0.121-0.362l0.092-0.369v-0.025
			l0.057-0.142v-0.092c0.02-0.025,0.032-0.06,0.032-0.092c0.073-0.355,0.254-0.614,0.541-0.791c0.281-0.185,0.598-0.234,0.937-0.153
			c0.286,0.06,0.509,0.195,0.678,0.412c0.175,0.202,0.275,0.454,0.294,0.742l0.03,0.419c-0.027,0.018-0.03,0.043-0.03,0.06
			l-0.037,0.06l-0.025,0.149l-0.032,0.067h0.032l-0.057,0.117v0.068l-0.156,0.539l-0.089,0.546c-0.048,0.1-0.067,0.192-0.073,0.27
			c-0.02,0.082-0.027,0.174-0.052,0.27c-0.124,0.688-0.211,1.412-0.266,2.15c-0.025,0.184-0.032,0.362-0.032,0.546
			c0,0.178,0,0.355,0,0.515l0.055,0.486c0,0.092,0.013,0.178,0.032,0.234c0,0.092,0.013,0.135,0.03,0.16h0.032
			c0.076-0.049,0.201-0.124,0.362-0.252l0.362-0.362l0.335-0.387c0.057-0.067,0.121-0.135,0.162-0.202
			c0.057-0.064,0.108-0.149,0.177-0.217l0.323-0.429c0.044-0.085,0.087-0.16,0.137-0.227c0.057-0.067,0.112-0.142,0.168-0.227
			c0.101-0.16,0.194-0.319,0.287-0.461c0.092-0.16,0.194-0.319,0.293-0.479l0.27-0.479l0.273-0.465l0.541-0.99l0.488-0.969
			l0.486-1.033c0.03-0.074,0.069-0.16,0.101-0.234c0.025-0.085,0.065-0.17,0.105-0.245l0.094-0.27l0.117-0.245
			c0.064-0.185,0.181-0.302,0.35-0.376c0.168-0.074,0.337-0.085,0.491-0.018c0.165,0.06,0.289,0.177,0.364,0.344
			c0.08,0.17,0.1,0.344,0.036,0.504l-0.053,0.092l-1.093,1.994l-0.55,0.965l-0.541,1c-0.105,0.146-0.206,0.305-0.305,0.479
			l-0.275,0.489c-0.092,0.167-0.201,0.319-0.298,0.486c-0.101,0.16-0.201,0.319-0.3,0.479l-0.642,0.933
			c-0.094,0.17-0.206,0.33-0.33,0.479c-0.114,0.146-0.238,0.305-0.362,0.465l-0.419,0.461l-0.243,0.202
			c-0.087,0.081-0.186,0.16-0.31,0.209l-0.355,0.185c-0.121,0.043-0.207,0.06-0.245,0.06h-0.335
			c-0.057-0.018-0.121-0.036-0.193-0.06c-0.069-0.007-0.126-0.043-0.163-0.092l-0.25-0.177c-0.062-0.082-0.1-0.149-0.137-0.217
			c-0.025-0.053-0.062-0.11-0.1-0.177c-0.08-0.16-0.131-0.287-0.151-0.362l-0.094-0.302c-0.016-0.103-0.028-0.213-0.043-0.313
			c-0.012-0.117-0.037-0.22-0.074-0.326c-0.044-0.195-0.069-0.398-0.076-0.589c-0.011-0.195-0.023-0.38-0.048-0.564l-0.843,1.395
			l-0.854,1.331c-0.282,0.429-0.585,0.848-0.91,1.277c-0.158,0.217-0.326,0.429-0.493,0.621c-0.176,0.185-0.369,0.387-0.593,0.589
			c-0.099,0.099-0.213,0.191-0.337,0.287c-0.112,0.092-0.25,0.174-0.392,0.252c-0.074,0.043-0.149,0.082-0.22,0.106
			c-0.073,0.036-0.142,0.067-0.229,0.11c-0.119,0.035-0.211,0.06-0.275,0.06c-0.037,0.017-0.085,0.032-0.149,0.032
			c-0.012,0-0.037,0.011-0.057,0.025h-0.25c-0.03,0-0.073-0.007-0.105-0.014c-0.025-0.011-0.064-0.011-0.105-0.011
			c-0.201-0.082-0.346-0.16-0.426-0.217c-0.119-0.078-0.206-0.17-0.275-0.27l-0.149-0.302c-0.032-0.11-0.069-0.188-0.087-0.263
			c-0.018-0.068-0.037-0.142-0.062-0.227l-0.057-0.454v-0.848l0.057-0.781l0.213-1.583l0.279-1.505l0.63-3.027l0.458-2.267
			l0.085-0.372l0.064-0.387c0.08-0.344,0.261-0.614,0.548-0.806c0.273-0.177,0.592-0.252,0.935-0.195
			c0.342,0.085,0.612,0.27,0.798,0.546c0.193,0.287,0.261,0.6,0.193,0.944L239.595,190.696z"/>
		<path d="M254.386,184.493c0.169-0.405,0.313-0.809,0.461-1.221c0.137-0.394,0.28-0.798,0.419-1.203l0.424-1.21
			c0.055-0.227,0.124-0.429,0.199-0.621c0.074-0.195,0.137-0.387,0.193-0.589c0.144-0.405,0.28-0.806,0.41-1.221
			c0.126-0.419,0.257-0.837,0.374-1.26l0.367-1.21l0.181-0.632v-0.032l0.153-0.521l0.025-0.05l0.036-0.068
			c0.114-0.337,0.339-0.582,0.649-0.724c0.311-0.142,0.642-0.142,0.987,0c0.348,0.117,0.58,0.337,0.722,0.632
			c0.144,0.302,0.162,0.621,0.06,0.94l-0.273,0.848l-0.268,0.876l-0.548,1.721c-0.156,0.589-0.33,1.171-0.511,1.742
			c-0.188,0.578-0.355,1.15-0.511,1.749c-0.35,1.143-0.681,2.292-1.004,3.453c-0.318,1.171-0.625,2.331-0.905,3.499
			c-0.161,0.578-0.312,1.167-0.456,1.749c-0.149,0.596-0.279,1.175-0.424,1.764c-0.28,1.196-0.523,2.363-0.729,3.531
			c-0.117,0.589-0.229,1.167-0.31,1.756c-0.092,0.589-0.181,1.171-0.257,1.76c-0.043,0.302-0.073,0.596-0.1,0.891
			c-0.018,0.294-0.025,0.578-0.025,0.855c-0.018,0.05-0.032,0.117-0.032,0.22l0.213-0.277c0.181-0.263,0.362-0.522,0.531-0.784
			c0.167-0.259,0.342-0.529,0.5-0.813c0.342-0.521,0.685-1.068,1.015-1.607c0.324-0.546,0.662-1.093,0.979-1.639l1.932-3.328
			l1.877-3.353c0.08-0.145,0.193-0.227,0.337-0.27c0.137-0.036,0.282-0.025,0.424,0.057c0.144,0.085,0.231,0.195,0.28,0.337
			c0.03,0.142,0.012,0.287-0.068,0.422c-0.302,0.561-0.605,1.125-0.907,1.678c-0.305,0.557-0.621,1.111-0.94,1.682
			c-0.324,0.564-0.642,1.129-0.953,1.682c-0.314,0.546-0.644,1.111-0.979,1.675c-0.327,0.561-0.657,1.118-0.992,1.665
			c-0.33,0.546-0.667,1.075-1.011,1.629c-0.169,0.277-0.33,0.557-0.511,0.816c-0.181,0.259-0.362,0.539-0.548,0.823
			c-0.094,0.135-0.201,0.277-0.282,0.404c-0.092,0.124-0.197,0.252-0.291,0.38c-0.181,0.259-0.387,0.529-0.607,0.788
			c-0.098,0.135-0.231,0.213-0.392,0.22c-0.161,0.007-0.305-0.025-0.422-0.128c-0.101-0.082-0.174-0.192-0.213-0.334
			c-0.044-0.16-0.069-0.33-0.094-0.483c-0.012-0.167-0.037-0.327-0.057-0.493c-0.023-0.16-0.036-0.319-0.036-0.479
			c-0.02-0.16-0.02-0.319-0.02-0.49c0-0.319,0-0.621,0-0.933c0-0.302,0.02-0.621,0.055-0.94c0.044-0.596,0.089-1.221,0.151-1.824
			c0.067-0.614,0.137-1.227,0.241-1.841c0.083-0.596,0.175-1.21,0.277-1.806c0.092-0.607,0.199-1.203,0.298-1.792
			c0.101-0.596,0.211-1.193,0.339-1.799c0.117-0.589,0.241-1.185,0.36-1.792c0-0.092,0.007-0.142,0.023-0.185
			c-0.097,0.16-0.181,0.337-0.246,0.515c-0.084,0.177-0.151,0.351-0.233,0.511c-0.362,0.791-0.735,1.572-1.121,2.345
			c-0.382,0.774-0.781,1.547-1.173,2.314l-0.642,1.15l-0.63,1.153c-0.218,0.362-0.463,0.731-0.692,1.1
			c-0.25,0.38-0.513,0.731-0.798,1.086l-0.449,0.504c-0.1,0.099-0.194,0.195-0.268,0.263c-0.089,0.074-0.174,0.142-0.275,0.227
			l-0.31,0.241l-0.325,0.177c-0.101,0.043-0.23,0.085-0.392,0.128l-0.25,0.057c-0.032,0-0.089-0.007-0.149-0.018
			c-0.057-0.007-0.101-0.007-0.149-0.007c-0.076-0.025-0.181-0.074-0.302-0.159c-0.062-0.043-0.112-0.085-0.137-0.117
			c-0.025-0.043-0.062-0.085-0.106-0.135c-0.043-0.049-0.08-0.135-0.119-0.252l-0.057-0.22c-0.025-0.1-0.041-0.227-0.041-0.394
			c0-0.185,0.016-0.313,0.041-0.387c0.014-0.429,0.096-0.866,0.238-1.338c0.039-0.217,0.101-0.437,0.163-0.657
			c0.074-0.199,0.138-0.419,0.198-0.646l0.456-1.235c0.162-0.404,0.325-0.809,0.492-1.221c0.176-0.394,0.362-0.798,0.568-1.21
			c0.094-0.195,0.194-0.394,0.282-0.589c0.092-0.185,0.193-0.376,0.286-0.578c0.101-0.227,0.213-0.44,0.337-0.632
			c0.126-0.185,0.248-0.38,0.355-0.589c0.069-0.092,0.132-0.191,0.186-0.284c0.064-0.092,0.138-0.185,0.213-0.287l0.456-0.607
			c0.105-0.099,0.199-0.191,0.298-0.284c0.101-0.092,0.225-0.185,0.367-0.287c0.083-0.039,0.158-0.092,0.245-0.142
			c0.074-0.043,0.161-0.092,0.268-0.135l0.337-0.081c0.037-0.018,0.112-0.036,0.213-0.036h0.179c0.273-0.025,0.523,0.05,0.736,0.209
			c0.225,0.16,0.367,0.38,0.479,0.639c0.275-0.731,0.561-1.451,0.85-2.175C253.856,185.973,254.124,185.242,254.386,184.493z
			 M251.339,190.334h0.025c0.016,0,0.028-0.018,0.028-0.043c0.027,0,0.039,0,0.039-0.014h-0.067l-0.176,0.081l-0.218,0.117
			l-0.424,0.337l-0.387,0.422c-0.149,0.16-0.282,0.319-0.419,0.468c-0.124,0.16-0.254,0.305-0.374,0.472l-0.697,1.026
			c-0.218,0.369-0.431,0.731-0.63,1.1c-0.206,0.38-0.394,0.759-0.58,1.146c-0.092,0.174-0.188,0.362-0.268,0.554
			c-0.082,0.202-0.162,0.394-0.243,0.589c-0.082,0.209-0.149,0.404-0.206,0.596c-0.069,0.185-0.131,0.387-0.188,0.582l-0.154,0.61
			l-0.089,0.582v0.504l0.069,0.128h0.057l0.213-0.092l0.211-0.128l0.204-0.177c0.153-0.082,0.289-0.217,0.431-0.394
			c0.082-0.074,0.149-0.16,0.206-0.227c0.057-0.068,0.124-0.153,0.188-0.227l0.722-1.026c0.2-0.326,0.411-0.688,0.637-1.093
			l0.628-1.118c0.101-0.177,0.201-0.369,0.302-0.557c0.085-0.191,0.181-0.383,0.279-0.561c0.282-0.632,0.568-1.245,0.85-1.859
			c0.273-0.621,0.561-1.242,0.846-1.891c-0.08,0.036-0.154,0.074-0.229,0.092c-0.069,0.018-0.158,0.025-0.25,0.025
			C251.569,190.383,251.456,190.369,251.339,190.334z"/>
		<path d="M262.709,190.664c-0.035,0.057-0.067,0.117-0.073,0.185c-0.012,0.05-0.032,0.106-0.069,0.149l-0.131,0.355l-0.275,0.731
			l-0.504,1.455c-0.161,0.486-0.318,0.965-0.463,1.455c-0.137,0.479-0.266,0.972-0.391,1.469l-0.371,1.462
			c-0.036,0.27-0.073,0.515-0.11,0.759c-0.039,0.241-0.071,0.486-0.094,0.724l-0.062,0.578l0.085-0.092
			c0.165-0.184,0.334-0.369,0.488-0.553c0.168-0.202,0.33-0.404,0.486-0.631c0.162-0.202,0.327-0.405,0.469-0.607
			c0.156-0.191,0.305-0.401,0.467-0.603l0.91-1.246l0.912-1.235l1.783-2.541c0.28-0.419,0.566-0.848,0.848-1.267
			c0.273-0.429,0.568-0.859,0.848-1.306c0.099-0.16,0.236-0.252,0.399-0.284c0.181-0.036,0.343,0,0.504,0.11
			c0.163,0.092,0.263,0.227,0.312,0.412c0.032,0.167,0,0.334-0.094,0.493c0,0.018-0.012,0.028-0.019,0.028
			c-0.005,0-0.012,0.007-0.012,0.032c-0.33,0.394-0.634,0.806-0.94,1.22c-0.305,0.419-0.603,0.831-0.905,1.26l-1.82,2.48
			l-1.815,2.537l-0.91,1.238l-0.935,1.242l-0.273,0.337c-0.076,0.135-0.169,0.245-0.27,0.302c-0.018,0.043-0.069,0.103-0.149,0.177
			l-0.069,0.068l-0.08,0.06l-0.062,0.025l-0.032,0.043h-0.039l-0.023,0.014h-0.062c0,0.025-0.019,0.036-0.057,0.036h-0.087
			c-0.069,0.014-0.087,0.025-0.074,0.014c0.005-0.007,0-0.014-0.02-0.014h-0.062c-0.055,0-0.156-0.018-0.273-0.05
			c-0.057-0.028-0.113-0.053-0.156-0.067c-0.032-0.025-0.076-0.053-0.114-0.096c-0.124-0.117-0.213-0.234-0.28-0.358
			c-0.03-0.085-0.074-0.188-0.114-0.305c-0.036-0.117-0.067-0.202-0.067-0.241c-0.013-0.103-0.025-0.178-0.037-0.252
			c-0.012-0.078-0.018-0.153-0.018-0.245c-0.02-0.252-0.02-0.529,0-0.841c0-0.128,0.005-0.277,0.018-0.404
			c0.012-0.124,0.025-0.252,0.037-0.376c0-0.146,0.014-0.281,0.019-0.412c0.012-0.128,0.025-0.263,0.048-0.404l0.114-0.791
			l0.092-0.756l0.55-3.112l0.543-3.083c0.062-0.362,0.236-0.649,0.55-0.848c0.298-0.213,0.621-0.281,0.967-0.213
			c0.343,0.06,0.621,0.245,0.827,0.546c0.213,0.305,0.275,0.625,0.2,0.969C262.773,190.451,262.754,190.543,262.709,190.664z
			 M262.406,181.945l0.179-1.689c0.051-0.373,0.206-0.657,0.486-0.884c0.287-0.245,0.6-0.337,0.967-0.295
			c0.342,0.043,0.637,0.192,0.867,0.486c0.231,0.277,0.33,0.589,0.286,0.969c-0.045,0.149-0.08,0.284-0.124,0.387l-0.722,1.572
			c-0.121,0.27-0.314,0.444-0.58,0.529c-0.257,0.092-0.516,0.085-0.786-0.043c-0.201-0.1-0.355-0.241-0.463-0.419
			C262.406,182.375,262.367,182.172,262.406,181.945z"/>
		<path d="M271.82,194.595l0.181,0.213c0.076,0.092,0.137,0.135,0.176,0.142c0.082,0.05,0.142,0.068,0.186,0.068
			c0.081,0.043,0.169,0.043,0.275,0c0.035,0,0.131-0.018,0.298-0.068l0.33-0.142c0.064-0.06,0.176-0.128,0.339-0.213l0.305-0.266
			c0.419-0.362,0.818-0.791,1.173-1.281c0.162-0.217,0.323-0.454,0.484-0.689c0.163-0.245,0.325-0.497,0.488-0.756
			c0.156-0.27,0.312-0.522,0.449-0.791c0.149-0.259,0.275-0.536,0.392-0.816c0.089-0.16,0.213-0.277,0.382-0.344
			c0.174-0.068,0.348-0.068,0.529,0.018c0.162,0.074,0.275,0.202,0.35,0.394c0.069,0.177,0.069,0.344-0.012,0.507
			c0,0.025-0.011,0.032-0.011,0.05c-0.02,0.014-0.02,0.025-0.02,0.043c-0.344,0.518-0.681,1.04-1.004,1.572
			c-0.318,0.529-0.685,1.057-1.084,1.572c-0.188,0.242-0.387,0.493-0.594,0.745c-0.211,0.255-0.436,0.49-0.679,0.717l-0.392,0.319
			c-0.062,0.067-0.119,0.117-0.199,0.177c-0.069,0.043-0.145,0.092-0.218,0.124l-0.495,0.27c-0.117,0.092-0.298,0.16-0.536,0.22
			c-0.112,0.025-0.218,0.039-0.323,0.049c-0.108,0.007-0.225,0.007-0.342,0.007c-0.245-0.032-0.476-0.092-0.676-0.185
			c-0.199-0.05-0.36-0.135-0.479-0.234c-0.037,0.032-0.062,0.082-0.062,0.117c-0.261,0.571-0.536,1.075-0.816,1.512
			c-0.3,0.49-0.642,0.951-1.029,1.398c-0.092,0.106-0.206,0.198-0.318,0.319c-0.114,0.106-0.238,0.217-0.374,0.309
			c-0.126,0.103-0.256,0.195-0.399,0.281c-0.137,0.074-0.287,0.149-0.451,0.209c-0.179,0.081-0.355,0.124-0.524,0.149
			c-0.049,0.018-0.149,0.035-0.268,0.035h-0.273c-0.213,0-0.406-0.043-0.575-0.117c-0.094-0.053-0.193-0.085-0.28-0.128
			c-0.092-0.043-0.176-0.1-0.256-0.185c-0.081-0.074-0.154-0.16-0.23-0.227c-0.062-0.068-0.124-0.153-0.169-0.259l-0.238-0.472
			c-0.042-0.167-0.069-0.326-0.085-0.49c-0.032-0.167-0.05-0.319-0.069-0.486c0-0.16,0-0.312,0-0.454
			c0-0.142,0.019-0.295,0.037-0.454c0.02-0.167,0.032-0.309,0.055-0.437c0.019-0.128,0.049-0.27,0.089-0.411
			c0.044-0.277,0.092-0.564,0.167-0.823c0.071-0.277,0.151-0.557,0.232-0.841c0.098-0.263,0.194-0.522,0.286-0.791
			c0.089-0.252,0.181-0.522,0.287-0.781c0.105-0.252,0.201-0.521,0.318-0.774c0.106-0.252,0.238-0.514,0.374-0.766l0.186-0.369
			l0.206-0.387c0.083-0.124,0.156-0.245,0.206-0.362c0.071-0.124,0.151-0.245,0.257-0.362c0.08-0.149,0.156-0.277,0.236-0.394
			c0.081-0.128,0.167-0.245,0.268-0.369l0.28-0.362l0.364-0.337l0.385-0.362c0.131-0.074,0.293-0.185,0.525-0.326
			c0.211-0.128,0.447-0.195,0.69-0.209c0.096-0.018,0.25-0.043,0.456-0.043c0.099,0,0.181,0.025,0.243,0.043h0.119l0.025,0.032
			h0.062c0.342,0.049,0.61,0.227,0.804,0.504c0.193,0.287,0.257,0.596,0.193,0.944c0,0.025,0,0.032-0.012,0.032
			c-0.012,0-0.012,0.007-0.012,0.025l0.176,0.277c0.082,0.195,0.142,0.398,0.186,0.607c0.012,0.099,0.032,0.191,0.044,0.284
			c0.005,0.085,0.02,0.188,0.02,0.287c0.017,0.1,0.025,0.185,0.025,0.259c0,0.068,0,0.153,0,0.255l-0.089,0.94l-0.186,0.873
			c-0.039,0.146-0.08,0.277-0.112,0.412c-0.045,0.128-0.082,0.27-0.126,0.404c-0.043,0.128-0.074,0.245-0.106,0.362
			c-0.03,0.124-0.069,0.234-0.105,0.337L271.82,194.595z M269.394,190.571c-0.1,0.082-0.179,0.16-0.255,0.241
			c-0.068,0.085-0.156,0.17-0.254,0.27l-0.458,0.582c-0.042,0.057-0.082,0.117-0.098,0.167c-0.039,0.05-0.069,0.099-0.113,0.135
			l-0.213,0.327c-0.142,0.227-0.279,0.447-0.404,0.674c-0.132,0.217-0.249,0.436-0.35,0.663c-0.226,0.419-0.435,0.891-0.635,1.419
			l-0.243,0.724c-0.039,0.117-0.076,0.245-0.112,0.362c-0.025,0.117-0.05,0.245-0.069,0.369c-0.044,0.117-0.069,0.245-0.094,0.362
			c-0.018,0.117-0.037,0.234-0.062,0.362c-0.018,0.117-0.032,0.234-0.032,0.362c0,0.124,0,0.234,0,0.334
			c0,0.121,0.014,0.227,0.027,0.337c0,0.092,0.018,0.195,0.044,0.295c0.036,0.128,0.073,0.209,0.117,0.245l0.085,0.16
			c0.089,0.032,0.14,0.057,0.158,0.057l0.213,0.053h0.149c0.019,0,0.035,0,0.048-0.011c0.007-0.007,0.032-0.014,0.069-0.014
			c0.044,0,0.124-0.018,0.245-0.068c0.174-0.078,0.355-0.185,0.516-0.337l0.511-0.472c0.287-0.344,0.555-0.756,0.818-1.242
			c0.218-0.44,0.431-0.908,0.612-1.387c0.053-0.16,0.117-0.344,0.194-0.521c0.065-0.21,0.129-0.405,0.161-0.607
			c-0.032-0.16-0.076-0.309-0.124-0.479c-0.037-0.16-0.076-0.337-0.113-0.511c-0.044-0.17-0.069-0.337-0.092-0.507
			c-0.025-0.167-0.052-0.334-0.089-0.504c0-0.092,0-0.185-0.02-0.266c-0.012-0.078-0.012-0.16-0.012-0.245c0-0.092,0-0.178,0-0.252
			c0-0.067-0.012-0.153-0.03-0.252v-0.522c0.018-0.06,0.03-0.128,0.03-0.209c0-0.085,0-0.16,0-0.245L269.394,190.571z
			 M269.937,190.571h0.032l-0.032-0.028V190.571z"/>
	</g>
	<g>
		<path fill="#FFFFFF" d="M225.641,165.165c-0.355-0.177-0.717-0.227-1.098-0.128l-0.855,0.27l-0.846,0.277
			c-0.282,0.085-0.556,0.17-0.83,0.262c-0.273,0.085-0.548,0.185-0.829,0.284c-0.568,0.177-1.121,0.372-1.664,0.564
			c-0.543,0.195-1.098,0.38-1.666,0.589c-1.091,0.405-2.175,0.806-3.266,1.228c-1.091,0.405-2.177,0.848-3.268,1.31
			c-0.548,0.22-1.079,0.454-1.614,0.692c-0.536,0.252-1.068,0.486-1.591,0.731c-0.524,0.259-1.052,0.511-1.583,0.774
			c-0.537,0.252-1.073,0.521-1.597,0.806c-0.524,0.277-1.034,0.571-1.54,0.876c-0.504,0.302-1.009,0.614-1.515,0.933
			c-0.504,0.319-0.997,0.653-1.478,1.001c-0.486,0.334-0.96,0.713-1.427,1.118c-0.218,0.202-0.443,0.412-0.662,0.621
			c-0.225,0.209-0.442,0.429-0.667,0.646c-0.199,0.227-0.399,0.465-0.593,0.699c-0.186,0.245-0.374,0.504-0.555,0.791
			c-0.161,0.284-0.319,0.561-0.456,0.855c-0.142,0.295-0.254,0.607-0.335,0.926c-0.099,0.362-0.149,0.699-0.149,1.001
			c-0.039,0.362-0.012,0.713,0.092,1.057c0.057,0.337,0.211,0.681,0.456,1.029c0.218,0.319,0.467,0.572,0.761,0.756
			c0.254,0.174,0.553,0.334,0.896,0.486c0.305,0.117,0.607,0.21,0.91,0.27c0.319,0.074,0.637,0.135,0.935,0.167
			c0.307,0.025,0.6,0.067,0.881,0.103c0.298,0.025,0.609,0.043,0.91,0.049c0.298,0.007,0.593,0.007,0.871-0.017h0.91
			c0.146-0.018,0.282-0.032,0.426-0.032c0.13,0,0.293,0,0.456,0l1.75-0.117l1.723-0.152l1.726-0.117l1.728-0.153l1.721-0.092
			c0.58-0.042,1.16-0.06,1.728-0.074c0.561-0.017,1.134,0,1.724,0.043c0.277,0,0.562,0.007,0.843,0.032
			c0.281,0.018,0.568,0.05,0.848,0.092c0.625,0.06,1.173,0.153,1.641,0.295c0.58,0.167,1.091,0.362,1.54,0.578
			c0.479,0.262,0.878,0.582,1.178,0.969c0.307,0.412,0.518,0.859,0.63,1.363l0.092,0.756c0,0.185-0.007,0.312-0.03,0.394v0.305
			c0,0.039-0.005,0.067-0.03,0.092c-0.039,0.277-0.089,0.546-0.163,0.781c-0.074,0.245-0.156,0.486-0.262,0.731
			c-0.117,0.234-0.25,0.479-0.392,0.706c-0.137,0.234-0.286,0.461-0.447,0.681c-0.183,0.22-0.371,0.436-0.552,0.632
			c-0.174,0.21-0.375,0.401-0.573,0.578c-0.217,0.202-0.442,0.398-0.648,0.571c-0.213,0.185-0.431,0.355-0.649,0.515
			c-0.467,0.344-0.929,0.671-1.389,0.983c-0.476,0.319-0.947,0.614-1.455,0.901c-0.504,0.284-1.015,0.546-1.508,0.798
			c-0.518,0.252-1.029,0.504-1.553,0.738c-1.066,0.486-2.125,0.94-3.172,1.363c-1.1,0.419-2.177,0.823-3.256,1.193
			c-1.079,0.38-2.172,0.742-3.281,1.075l-1.639,0.483c-0.275,0.081-0.556,0.167-0.825,0.252c-0.278,0.074-0.553,0.16-0.834,0.234
			c-0.568,0.159-1.121,0.312-1.683,0.454c-0.548,0.142-1.109,0.277-1.67,0.429c-0.568,0.142-1.13,0.277-1.68,0.401
			c-0.561,0.135-1.121,0.263-1.684,0.38c-0.286,0.074-0.568,0.16-0.846,0.209c-0.287,0.06-0.561,0.117-0.843,0.185l-1.696,0.372
			l-3.422,0.663c-0.281,0.032-0.561,0.082-0.848,0.135c-0.281,0.05-0.561,0.1-0.848,0.167l-0.843,0.11l-0.424,0.1l-0.427,0.06
			h-0.052c-0.287,0.057-0.5,0.202-0.642,0.419c-0.144,0.22-0.181,0.472-0.119,0.759c0.039,0.266,0.169,0.468,0.394,0.614
			c0.218,0.16,0.467,0.199,0.754,0.142l0.454-0.092l1.274-0.27l1.719-0.369l3.392-0.784c0.28-0.082,0.561-0.149,0.843-0.227
			c0.286-0.068,0.568-0.135,0.846-0.191l1.703-0.461c1.105-0.252,2.227-0.557,3.349-0.901c0.593-0.167,1.153-0.327,1.714-0.479
			c0.555-0.167,1.104-0.337,1.652-0.479l1.691-0.529l1.671-0.546c0.541-0.177,1.084-0.362,1.625-0.557
			c0.55-0.192,1.098-0.387,1.666-0.586c1.086-0.387,2.177-0.809,3.261-1.27c1.097-0.447,2.159-0.915,3.211-1.43
			c1.049-0.504,2.09-1.043,3.112-1.632c0.511-0.291,1.009-0.61,1.502-0.93c0.499-0.33,0.967-0.667,1.434-1.036
			c0.493-0.362,0.942-0.756,1.366-1.178c0.218-0.216,0.429-0.436,0.635-0.646c0.201-0.209,0.394-0.447,0.573-0.689
			c0.193-0.262,0.387-0.515,0.543-0.784c0.17-0.259,0.307-0.536,0.424-0.812c0.289-0.564,0.463-1.171,0.513-1.817
			c0-0.043,0.011-0.085,0.036-0.117v-0.827c0-0.319-0.036-0.639-0.085-0.94c-0.05-0.16-0.094-0.309-0.144-0.461
			c-0.05-0.16-0.119-0.302-0.199-0.461c-0.101-0.27-0.27-0.546-0.508-0.859c-0.11-0.117-0.211-0.234-0.323-0.344
			c-0.112-0.11-0.238-0.213-0.38-0.319c-0.213-0.202-0.481-0.387-0.781-0.54c-0.593-0.284-1.173-0.497-1.763-0.638
			c-0.275-0.085-0.573-0.142-0.875-0.192c-0.303-0.053-0.592-0.103-0.871-0.145c-0.307-0.043-0.6-0.068-0.898-0.082
			c-0.294-0.028-0.593-0.035-0.892-0.035c-0.587-0.043-1.167-0.057-1.751-0.043c-0.587,0.011-1.173,0.036-1.76,0.078l-1.753,0.082
			l-1.726,0.128l-1.751,0.117l-1.721,0.128c-0.289,0.014-0.575,0.032-0.867,0.039c-0.293,0.017-0.58,0.017-0.854,0.017
			c-0.151,0-0.289,0.007-0.431,0.007c-0.137,0.018-0.286,0.028-0.425,0.028h-0.847c-0.282-0.028-0.56-0.036-0.848-0.053
			c-0.281-0.007-0.562-0.032-0.841-0.074c-0.289-0.043-0.568-0.075-0.843-0.1c-0.268-0.043-0.531-0.092-0.797-0.17
			c-0.121-0.043-0.238-0.081-0.362-0.124c-0.121-0.036-0.243-0.085-0.362-0.117c-0.268-0.145-0.468-0.27-0.605-0.372
			c-0.199-0.16-0.35-0.319-0.456-0.479c-0.064-0.082-0.105-0.167-0.137-0.252c-0.025-0.092-0.049-0.191-0.076-0.284
			c-0.053-0.195-0.067-0.422-0.03-0.706c0.025-0.092,0.043-0.202,0.062-0.33c0.02-0.124,0.052-0.245,0.094-0.362
			c0.124-0.419,0.344-0.866,0.66-1.327c0.325-0.472,0.679-0.873,1.066-1.21c0.174-0.209,0.367-0.398,0.585-0.564
			c0.208-0.167,0.431-0.351,0.651-0.529c0.224-0.17,0.442-0.319,0.665-0.49c0.218-0.16,0.456-0.319,0.701-0.479
			c0.497-0.319,0.976-0.614,1.419-0.88c0.483-0.287,0.974-0.557,1.485-0.816c0.498-0.263,1.004-0.521,1.508-0.791
			c1.031-0.497,2.07-0.976,3.112-1.412c1.054-0.454,2.12-0.873,3.211-1.278c1.091-0.404,2.17-0.781,3.248-1.143
			c1.081-0.369,2.17-0.724,3.256-1.061c0.566-0.192,1.121-0.351,1.664-0.511c0.548-0.17,1.091-0.33,1.629-0.489l1.67-0.454
			l0.841-0.21c0.145-0.043,0.282-0.074,0.413-0.11c0.129-0.025,0.268-0.068,0.404-0.106c0.025,0,0.044-0.011,0.064-0.025
			c0.403-0.103,0.697-0.33,0.883-0.681c0.176-0.355,0.206-0.724,0.087-1.104C226.221,165.626,225.996,165.343,225.641,165.165z"/>
		<path fill="#FFFFFF" d="M262.503,181.775c0.263,0.121,0.525,0.128,0.793,0.043c0.255-0.092,0.456-0.259,0.573-0.529l0.729-1.579
			c0.032-0.092,0.076-0.227,0.113-0.387c0.048-0.362-0.057-0.692-0.287-0.969c-0.229-0.284-0.518-0.444-0.86-0.486
			c-0.367-0.035-0.687,0.057-0.96,0.295c-0.287,0.227-0.449,0.521-0.491,0.891l-0.183,1.689c-0.036,0.227-0.005,0.419,0.106,0.607
			C262.149,181.534,262.299,181.668,262.503,181.775z"/>
		<path fill="#FFFFFF" d="M277.682,188.854c-0.075-0.185-0.186-0.309-0.348-0.394c-0.181-0.085-0.357-0.085-0.531-0.018
			c-0.17,0.067-0.3,0.185-0.38,0.355c-0.121,0.266-0.25,0.546-0.394,0.813c-0.146,0.262-0.287,0.521-0.449,0.784
			c-0.163,0.259-0.324,0.521-0.486,0.756c-0.163,0.245-0.319,0.479-0.488,0.699c-0.362,0.479-0.754,0.908-1.173,1.267l-0.31,0.27
			c-0.162,0.085-0.268,0.16-0.33,0.22l-0.33,0.142c-0.169,0.05-0.262,0.06-0.307,0.06c-0.099,0.05-0.188,0.05-0.273,0
			c-0.037,0-0.101-0.01-0.181-0.06c-0.037-0.007-0.101-0.06-0.181-0.142l-0.181-0.22l-0.094-0.149
			c0.044-0.103,0.076-0.213,0.112-0.33c0.032-0.117,0.062-0.245,0.101-0.362c0.044-0.142,0.085-0.277,0.129-0.412
			c0.032-0.135,0.076-0.27,0.113-0.412l0.181-0.873l0.092-0.933c0-0.103,0-0.185,0-0.263c0-0.068-0.007-0.16-0.032-0.252
			c0-0.11-0.005-0.202-0.013-0.295c-0.011-0.092-0.028-0.185-0.048-0.284c-0.037-0.202-0.101-0.405-0.181-0.607l-0.181-0.277
			c0-0.018,0-0.025,0.018-0.025c0.005,0,0.012-0.011,0.012-0.036c0.057-0.334-0.007-0.646-0.193-0.933
			c-0.199-0.284-0.461-0.454-0.804-0.511h-0.062l-0.032-0.035h-0.117c-0.057-0.014-0.144-0.032-0.245-0.032
			c-0.193,0-0.348,0.018-0.454,0.032c-0.238,0.018-0.473,0.092-0.694,0.213c-0.223,0.142-0.392,0.259-0.516,0.334l-0.392,0.355
			l-0.362,0.344l-0.275,0.362c-0.099,0.117-0.188,0.234-0.268,0.362c-0.082,0.117-0.154,0.252-0.243,0.394
			c-0.099,0.117-0.181,0.234-0.249,0.362c-0.049,0.128-0.126,0.245-0.206,0.362l-0.145,0.27c-0.048,0.082-0.105,0.167-0.162,0.252
			c-0.273,0.412-0.561,0.841-0.841,1.26l-1.785,2.541l-0.903,1.242l-0.91,1.246c-0.162,0.202-0.323,0.404-0.476,0.607
			c-0.149,0.199-0.303,0.401-0.467,0.603c-0.162,0.227-0.319,0.419-0.481,0.621c-0.162,0.188-0.323,0.373-0.492,0.557l-0.089,0.092
			l0.064-0.582c0.017-0.234,0.057-0.479,0.089-0.721c0.041-0.245,0.073-0.489,0.117-0.759l0.362-1.444
			c0.13-0.504,0.263-1.001,0.392-1.487c0.149-0.49,0.298-0.969,0.463-1.455l0.516-1.455l0.268-0.724l0.126-0.362
			c0.035-0.043,0.06-0.082,0.067-0.149c0.018-0.06,0.043-0.121,0.082-0.188c0.044-0.117,0.062-0.199,0.062-0.266
			c0.074-0.337,0.007-0.667-0.199-0.969c-0.206-0.302-0.495-0.486-0.83-0.536c-0.35-0.06-0.667,0-0.967,0.199
			c-0.318,0.213-0.491,0.49-0.548,0.852l-0.286,1.604l-1.088,1.934l-1.925,3.339c-0.324,0.536-0.654,1.082-0.984,1.622
			c-0.33,0.553-0.669,1.086-1.012,1.604c-0.161,0.287-0.33,0.557-0.499,0.816c-0.174,0.27-0.35,0.529-0.536,0.791l-0.206,0.27
			c0-0.103,0.005-0.17,0.025-0.21c0-0.28,0.017-0.575,0.03-0.859c0.017-0.294,0.057-0.589,0.101-0.891
			c0.074-0.6,0.161-1.171,0.25-1.756c0.085-0.589,0.199-1.178,0.316-1.76c0.206-1.167,0.443-2.345,0.729-3.538
			c0.137-0.578,0.277-1.167,0.426-1.756c0.142-0.589,0.291-1.167,0.454-1.75c0.281-1.178,0.58-2.338,0.905-3.495
			c0.318-1.171,0.655-2.32,0.997-3.467c0.149-0.553,0.319-1.107,0.486-1.646l2.363-0.294h0.057c0.342-0.057,0.624-0.234,0.834-0.529
			c0.206-0.294,0.287-0.606,0.225-0.958c-0.06-0.337-0.241-0.607-0.524-0.823c-0.298-0.213-0.617-0.287-0.96-0.227l-1.205,0.202
			l0.3-0.933l0.263-0.876l0.28-0.841c0.099-0.327,0.076-0.639-0.064-0.94c-0.137-0.302-0.38-0.515-0.722-0.639
			c-0.349-0.142-0.672-0.142-0.992,0c-0.305,0.142-0.523,0.387-0.642,0.731l-0.037,0.067l-0.025,0.06l-0.156,0.504v0.032
			l-0.181,0.631l-0.367,1.21c-0.112,0.429-0.25,0.848-0.374,1.26c-0.018,0.068-0.037,0.128-0.062,0.185l-21.849,3.609l0.089-0.178
			l0.428-0.908l0.419-0.94c0.082-0.16,0.156-0.312,0.206-0.479c0.069-0.16,0.126-0.33,0.188-0.49
			c0.043-0.074,0.074-0.16,0.112-0.241c0.023-0.078,0.055-0.17,0.099-0.262c0.037-0.082,0.069-0.178,0.069-0.27
			c0.019-0.082,0.035-0.174,0.08-0.277l0.096-0.334c0-0.11,0.012-0.17,0.025-0.213v-0.486l-0.057-0.302l-0.096-0.22l-0.179-0.27
			l-0.3-0.277l-0.36-0.167c-0.108-0.025-0.225-0.036-0.362-0.036c-0.044,0-0.076-0.007-0.094-0.025c-0.02-0.007-0.05,0-0.087,0.025
			c-0.089,0-0.138,0.011-0.149,0.018c-0.032,0.007-0.057,0.018-0.101,0.018l-0.298,0.117l-0.181,0.117
			c-0.101,0.06-0.163,0.117-0.186,0.177c-0.039,0.025-0.064,0.05-0.076,0.068c-0.012,0.025-0.025,0.043-0.044,0.057l-0.149,0.177
			l-0.099,0.192c-0.069,0.11-0.126,0.202-0.144,0.27l-0.268,0.515l-0.399,0.965l-0.355,0.933c-0.069,0.17-0.126,0.33-0.188,0.489
			c-0.062,0.16-0.113,0.327-0.154,0.486c-0.138,0.344-0.245,0.657-0.332,0.933l-0.449,1.37l-2.182,0.355
			c-0.156,0.049-0.293,0.135-0.406,0.27c-0.105,0.124-0.144,0.266-0.105,0.426c0.018,0.184,0.094,0.33,0.231,0.44
			c0.129,0.117,0.28,0.149,0.467,0.106l1.565-0.174c-0.057,0.174-0.11,0.351-0.161,0.518c-0.05,0.177-0.101,0.355-0.137,0.532
			l-0.119,0.394l-0.33,0.816l-0.761,1.824l-0.181,0.447l-0.181,0.486l-0.362,0.898v0.043c-0.082,0.262-0.012,0.472,0.213,0.632
			c0.06,0.043,0.149,0.074,0.268,0.128c-0.099,0.334-0.181,0.689-0.255,1.033c-0.074,0.362-0.151,0.706-0.225,1.05
			c-0.162,0.649-0.307,1.288-0.424,1.952c-0.124,0.657-0.255,1.309-0.399,1.973l-0.181,0.976l-0.181,1.001l-0.298,1.959
			c-0.02,0.17-0.037,0.337-0.044,0.521c-0.013,0.177-0.037,0.355-0.082,0.504l-0.087,1.011c-0.018,0.16-0.03,0.327-0.03,0.511
			c0,0.178,0,0.355,0,0.515v0.546c0.025,0.1,0.03,0.185,0.03,0.266c0,0.085,0.02,0.17,0.064,0.28c0,0.074,0.016,0.174,0.055,0.302
			c0.025,0.032,0.037,0.085,0.05,0.142c0.007,0.067,0.039,0.128,0.076,0.185c0.016,0.103,0.099,0.213,0.236,0.33l0.211,0.185
			c0.044,0.025,0.089,0.043,0.137,0.057c0.052,0.018,0.101,0.036,0.138,0.036c0.043,0.025,0.092,0.032,0.137,0.032
			c0.052,0,0.089,0,0.106,0c0.043,0,0.081-0.007,0.099-0.015c0.032-0.011,0.071-0.017,0.112-0.017l0.332-0.092
			c0.169-0.085,0.342-0.185,0.55-0.302c0.259-0.178,0.529-0.415,0.814-0.692c0.121-0.149,0.238-0.277,0.355-0.394
			c0.133-0.128,0.245-0.252,0.339-0.397c0.223-0.259,0.429-0.536,0.623-0.799c0.193-0.277,0.387-0.553,0.593-0.841l1.077-1.689
			l1.036-1.696l0.481-0.877l0.493-0.873c0.318-0.589,0.635-1.167,0.947-1.756c0.007-0.011,0.02-0.025,0.025-0.043l-0.037,0.167
			l-0.275,1.504l-0.206,1.583l-0.062,0.781v0.848l0.062,0.454c0.012,0.085,0.032,0.153,0.057,0.22c0.018,0.074,0.05,0.16,0.089,0.27
			l0.154,0.295c0.057,0.099,0.149,0.191,0.268,0.277c0.082,0.06,0.224,0.124,0.424,0.209c0.044,0,0.076,0,0.106,0.007
			c0.03,0.018,0.068,0.018,0.106,0.018h0.243c0.02-0.018,0.043-0.025,0.06-0.025c0.057,0,0.114-0.007,0.153-0.025
			c0.068,0,0.154-0.025,0.273-0.06c0.082-0.05,0.154-0.074,0.223-0.117c0.069-0.025,0.144-0.057,0.226-0.1
			c0.144-0.085,0.273-0.17,0.399-0.262c0.117-0.082,0.229-0.185,0.337-0.284c0.211-0.202,0.412-0.393,0.585-0.589
			c0.169-0.195,0.337-0.394,0.492-0.621c0.324-0.429,0.625-0.851,0.91-1.27l0.85-1.327l0.846-1.405
			c0.019,0.185,0.039,0.38,0.044,0.571c0.012,0.185,0.037,0.387,0.081,0.589c0.036,0.1,0.062,0.209,0.074,0.319
			c0.005,0.11,0.018,0.22,0.037,0.312l0.092,0.302c0.032,0.085,0.069,0.209,0.158,0.369c0.036,0.06,0.068,0.117,0.105,0.185
			c0.025,0.06,0.069,0.128,0.132,0.213l0.243,0.174c0.044,0.043,0.094,0.078,0.161,0.092c0.084,0.018,0.145,0.036,0.201,0.06h0.33
			c0.044,0,0.133-0.025,0.25-0.06l0.355-0.174c0.126-0.068,0.218-0.135,0.307-0.22l0.248-0.209l0.307-0.344
			c-0.012,0.117-0.032,0.234-0.039,0.344c-0.018,0.074-0.037,0.209-0.037,0.387c0,0.167,0.02,0.294,0.037,0.401l0.057,0.213
			c0.043,0.117,0.08,0.209,0.124,0.266c0.039,0.043,0.076,0.078,0.105,0.128c0.026,0.036,0.076,0.068,0.133,0.117
			c0.124,0.074,0.223,0.135,0.305,0.153c0.044,0,0.094,0.007,0.149,0.018c0.057,0.007,0.114,0.007,0.149,0.007l0.243-0.05
			c0.163-0.053,0.295-0.085,0.401-0.128l0.33-0.185l0.305-0.234c0.094-0.085,0.188-0.16,0.268-0.238
			c0.089-0.057,0.174-0.149,0.275-0.252l0.454-0.511c0.275-0.344,0.545-0.706,0.786-1.075c0.238-0.38,0.481-0.742,0.694-1.111
			l0.635-1.153l0.637-1.143c0.399-0.766,0.798-1.54,1.173-2.313c0.39-0.781,0.759-1.554,1.121-2.353
			c0.087-0.16,0.156-0.319,0.229-0.504c0.069-0.185,0.158-0.351,0.25-0.522c-0.012,0.043-0.018,0.103-0.018,0.185
			c-0.119,0.607-0.25,1.21-0.369,1.799c-0.117,0.596-0.23,1.196-0.33,1.799c-0.101,0.589-0.206,1.185-0.3,1.781
			c-0.105,0.606-0.193,1.213-0.28,1.827c-0.101,0.596-0.174,1.21-0.238,1.831c-0.065,0.607-0.105,1.221-0.149,1.824
			c-0.043,0.319-0.062,0.632-0.062,0.94c0,0.305,0,0.614,0,0.937c0,0.167,0.005,0.319,0.02,0.486
			c0.005,0.16,0.018,0.312,0.043,0.486c0.02,0.16,0.044,0.319,0.057,0.479c0.027,0.159,0.05,0.33,0.092,0.479
			c0.039,0.145,0.114,0.263,0.213,0.337c0.117,0.103,0.263,0.142,0.424,0.135c0.163-0.007,0.293-0.085,0.394-0.22
			c0.218-0.266,0.419-0.529,0.605-0.798c0.1-0.117,0.193-0.241,0.293-0.369c0.082-0.135,0.181-0.27,0.275-0.404
			c0.186-0.291,0.367-0.561,0.548-0.83c0.181-0.252,0.349-0.522,0.516-0.809c0.344-0.546,0.68-1.093,1.012-1.629
			c0.337-0.557,0.667-1.111,0.985-1.664c0.342-0.571,0.674-1.129,0.985-1.682c0.143-0.252,0.292-0.515,0.438-0.766l-0.213,1.203
			l-0.089,0.756l-0.124,0.791c-0.018,0.135-0.037,0.277-0.05,0.404c-0.007,0.135-0.02,0.259-0.02,0.401
			c-0.005,0.128-0.025,0.255-0.035,0.387c0,0.128-0.02,0.27-0.02,0.415c-0.018,0.291-0.018,0.578,0,0.837
			c0,0.078,0.02,0.163,0.02,0.227c0.011,0.078,0.03,0.16,0.035,0.263c0,0.043,0.032,0.117,0.069,0.234
			c0.044,0.117,0.087,0.22,0.124,0.312c0.057,0.117,0.145,0.234,0.275,0.362c0.032,0.043,0.074,0.068,0.119,0.092
			c0.037,0.007,0.087,0.032,0.154,0.057c0.121,0.036,0.206,0.06,0.27,0.06h0.057c0.025,0,0.03,0,0.019,0.018
			c-0.007,0,0.011,0,0.073-0.018h0.089c0.043,0,0.06-0.007,0.06-0.032h0.064l0.025-0.028h0.032l0.032-0.032l0.065-0.025l0.076-0.068
			l0.068-0.067c0.089-0.074,0.133-0.135,0.151-0.17c0.099-0.064,0.193-0.167,0.273-0.309l0.275-0.33l0.942-1.242l0.91-1.235
			l1.808-2.548l0.119-0.16c-0.069,0.241-0.113,0.486-0.151,0.738c-0.036,0.142-0.073,0.277-0.087,0.404
			c-0.025,0.135-0.037,0.277-0.062,0.444c-0.02,0.163-0.025,0.312-0.025,0.454c0,0.135,0,0.287,0,0.454
			c0.005,0.16,0.03,0.319,0.057,0.479c0.018,0.16,0.044,0.33,0.087,0.49l0.249,0.479c0.032,0.11,0.096,0.192,0.161,0.259
			c0.076,0.068,0.145,0.146,0.233,0.22c0.074,0.085,0.154,0.153,0.25,0.191c0.092,0.042,0.193,0.078,0.286,0.117
			c0.17,0.078,0.357,0.121,0.573,0.121h0.282c0.112,0,0.213-0.017,0.262-0.025c0.169-0.025,0.343-0.078,0.524-0.153
			c0.156-0.06,0.305-0.128,0.447-0.209c0.146-0.085,0.275-0.177,0.394-0.281c0.142-0.099,0.268-0.209,0.387-0.319
			c0.106-0.106,0.211-0.21,0.312-0.309c0.382-0.447,0.724-0.916,1.027-1.405c0.282-0.436,0.556-0.94,0.818-1.505
			c0-0.032,0.025-0.085,0.055-0.117c0.126,0.099,0.287,0.177,0.481,0.234c0.206,0.085,0.431,0.146,0.672,0.185
			c0.121,0,0.238,0,0.35-0.014c0.114-0.011,0.213-0.025,0.319-0.043c0.241-0.068,0.424-0.128,0.543-0.209l0.484-0.281
			c0.076-0.032,0.156-0.081,0.226-0.135c0.076-0.049,0.131-0.106,0.2-0.167l0.392-0.326c0.238-0.227,0.468-0.465,0.68-0.717
			c0.206-0.252,0.404-0.504,0.592-0.748c0.392-0.511,0.761-1.04,1.084-1.561c0.319-0.529,0.656-1.05,0.999-1.583
			c0-0.014,0.005-0.025,0.018-0.032c0.007-0.017,0.014-0.032,0.014-0.049C277.751,189.209,277.751,189.031,277.682,188.854z
			 M235.312,176.875 M250.824,190.923c-0.273,0.614-0.561,1.235-0.847,1.867c-0.094,0.177-0.186,0.362-0.282,0.553
			c-0.092,0.195-0.193,0.38-0.291,0.557l-0.632,1.125c-0.222,0.404-0.435,0.766-0.633,1.093l-0.724,1.025
			c-0.062,0.078-0.126,0.153-0.186,0.227c-0.057,0.068-0.126,0.142-0.206,0.227c-0.146,0.185-0.282,0.312-0.426,0.398l-0.211,0.174
			l-0.22,0.117l-0.223-0.309l0.082-1.018c0.057-0.202,0.374-1.284,0.449-1.462c0.124-0.33,0.429-1.001,0.518-1.143l1.015-1.969
			c0,0,1.123-2.101,1.785-2.547c0,0,1.584-0.689,1.657-0.713c0.069-0.018,0.144-0.06,0.225-0.092
			C251.392,189.677,251.106,190.309,250.824,190.923z M253.1,185.494c-0.278,0.72-0.566,1.451-0.846,2.186
			c-0.106-0.27-0.255-0.479-0.481-0.642c-0.204-0.156-0.454-0.234-0.737-0.217h-0.181c-0.097,0-0.167,0.018-0.211,0.032l-0.33,0.092
			c-0.099,0.035-0.188,0.085-0.268,0.145c-0.082,0.043-0.163,0.082-0.243,0.124c-0.149,0.103-0.27,0.195-0.367,0.287
			c-0.096,0.092-0.201,0.191-0.307,0.294l-0.449,0.596c-0.082,0.117-0.149,0.202-0.211,0.295c-0.057,0.085-0.119,0.184-0.181,0.284
			c-0.119,0.202-0.245,0.398-0.362,0.589c-0.124,0.195-0.238,0.412-0.337,0.625c-0.094,0.199-0.193,0.394-0.28,0.585
			c-0.1,0.195-0.194,0.398-0.286,0.589c-0.206,0.412-0.394,0.809-0.562,1.21c-0.181,0.415-0.344,0.816-0.5,1.214l-0.211,0.578
			c-0.08,0.128-0.162,0.259-0.241,0.394c-0.064,0.078-0.121,0.153-0.169,0.227c-0.044,0.067-0.096,0.145-0.138,0.227l-0.33,0.422
			c-0.057,0.074-0.119,0.16-0.169,0.227c-0.052,0.068-0.108,0.124-0.162,0.191l-0.337,0.387l-0.367,0.369
			c-0.158,0.121-0.282,0.202-0.364,0.245h-0.023c-0.025-0.018-0.025-0.067-0.025-0.149c-0.027-0.06-0.039-0.145-0.039-0.245
			l-0.062-0.479c0-0.16,0-0.337,0-0.522c0-0.184,0.012-0.362,0.032-0.546c0.069-0.742,0.154-1.455,0.275-2.143
			c0.023-0.103,0.028-0.195,0.041-0.27c0.014-0.085,0.039-0.177,0.089-0.277l0.076-0.539l0.161-0.546v-0.068l0.055-0.117h-0.03
			l0.03-0.068l0.025-0.142l0.037-0.068c0-0.011,0.007-0.043,0.032-0.06l-0.032-0.419c-0.025-0.277-0.117-0.532-0.291-0.742
			c-0.17-0.209-0.399-0.344-0.681-0.401c-0.343-0.085-0.655-0.035-0.935,0.149c-0.281,0.177-0.461,0.436-0.548,0.784
			c0,0.039-0.007,0.074-0.027,0.092v0.092l-0.06,0.142v0.032l-0.094,0.372c-0.039,0.117-0.082,0.234-0.119,0.351
			c-0.043,0.128-0.087,0.234-0.126,0.337c-0.073,0.245-0.149,0.486-0.222,0.724c-0.069,0.241-0.158,0.479-0.257,0.695
			c-0.343,0.891-0.735,1.81-1.178,2.757l-0.692,1.295c-0.124,0.227-0.25,0.436-0.387,0.624c-0.13,0.192-0.263,0.387-0.407,0.586
			c-0.057,0.103-0.124,0.202-0.198,0.287c-0.069,0.099-0.149,0.191-0.226,0.294l-0.447,0.522c-0.206,0.174-0.369,0.294-0.481,0.351
			l-0.255,0.128c-0.013,0-0.032,0-0.032,0.007c-0.018,0.017-0.03,0.017-0.057,0.017h-0.025c-0.018-0.025-0.037-0.049-0.037-0.092
			c0-0.043-0.007-0.074-0.03-0.117c0-0.042,0-0.092-0.005-0.153c-0.007-0.06-0.02-0.11-0.02-0.142v-0.681l0.092-0.713l0.114-0.735
			l0.156-0.72l0.367-1.43c0.137-0.479,0.286-0.958,0.447-1.43c0.165-0.479,0.326-0.94,0.488-1.412l0.273-0.731l0.27-0.688
			c0.069-0.103,0.112-0.213,0.162-0.337c0.057-0.117,0.101-0.234,0.144-0.362c0.074-0.099,0.126-0.209,0.151-0.326l0.092-0.153
			l0.082-0.185l0.092-0.302c0.064-0.337-0.005-0.649-0.193-0.944c-0.186-0.277-0.453-0.454-0.799-0.536
			c-0.342-0.06-0.66,0.007-0.935,0.191c-0.286,0.195-0.472,0.454-0.541,0.798l-0.068,0.398l-0.096,0.358l-0.303,1.547l-0.694,1.455
			l-1.84,3.506l-0.46,0.848l-0.513,0.852l-0.997,1.689c-0.186,0.284-0.362,0.564-0.545,0.83c-0.186,0.28-0.367,0.546-0.553,0.809
			c-0.398,0.536-0.784,1.057-1.171,1.537c-0.101,0.128-0.206,0.245-0.319,0.372c-0.112,0.11-0.229,0.227-0.35,0.327
			c-0.099,0.103-0.211,0.195-0.33,0.287c-0.117,0.092-0.231,0.174-0.335,0.259c-0.121,0.103-0.245,0.16-0.362,0.184
			c-0.025,0.018-0.064,0.025-0.121,0.025l-0.03-0.025c0-0.025-0.007-0.043-0.011-0.049c-0.013-0.007-0.02-0.032-0.02-0.074
			c-0.025-0.043-0.032-0.11-0.032-0.213c-0.018-0.082-0.025-0.227-0.025-0.419c-0.044-0.142-0.044-0.294,0-0.454
			c0-0.167,0-0.326,0.012-0.472c0.012-0.149,0.02-0.308,0.044-0.468c0.043-0.33,0.092-0.649,0.129-0.976
			c0.057-0.319,0.112-0.639,0.169-0.958c0.064-0.319,0.132-0.639,0.206-0.958c0.069-0.312,0.144-0.631,0.225-0.951
			c0.032-0.16,0.067-0.319,0.099-0.486c0.037-0.16,0.069-0.33,0.114-0.479l0.241-0.944l0.505-1.909c0.1-0.319,0.206-0.638,0.3-0.947
			c0.087-0.312,0.179-0.631,0.28-0.951c0.181-0.632,0.369-1.253,0.562-1.873c0.193-0.632,0.398-1.253,0.615-1.884
			c0.211-0.639,0.404-1.27,0.605-1.884c0.206-0.621,0.419-1.242,0.637-1.866c0.041-0.16,0.08-0.309,0.137-0.454
			c0.05-0.142,0.098-0.284,0.161-0.444c0.106-0.209,0.213-0.404,0.337-0.596c0.119-0.184,0.231-0.404,0.332-0.624l21.842-2.69
			l-0.327,0.944c-0.142,0.401-0.286,0.798-0.428,1.21c-0.145,0.394-0.289,0.806-0.456,1.21
			C253.65,184.028,253.382,184.77,253.1,185.494z M269.325,193.807c-0.068,0.185-0.13,0.362-0.194,0.529
			c-0.181,0.479-0.387,0.951-0.603,1.377c-0.263,0.489-0.537,0.901-0.816,1.245l-0.511,0.49c-0.165,0.142-0.339,0.252-0.52,0.334
			c-0.117,0.036-0.206,0.06-0.241,0.06c-0.037,0-0.064,0.007-0.076,0.007c-0.012,0.018-0.025,0.018-0.044,0.018h-0.149l-0.218-0.06
			c-0.019,0-0.067-0.014-0.144-0.057l-0.1-0.153c-0.035-0.043-0.08-0.124-0.112-0.245c-0.025-0.099-0.037-0.209-0.052-0.302
			c-0.005-0.099-0.018-0.209-0.018-0.337c0-0.099,0-0.209,0-0.326c0-0.128,0.012-0.245,0.037-0.369
			c0.02-0.117,0.037-0.238,0.057-0.362c0.025-0.117,0.052-0.245,0.087-0.362c0.03-0.117,0.05-0.245,0.082-0.362
			c0.025-0.117,0.069-0.245,0.112-0.362l0.23-0.72c0.206-0.54,0.412-1.012,0.642-1.43c0.099-0.22,0.213-0.447,0.342-0.663
			c0.132-0.22,0.27-0.447,0.413-0.674l0.211-0.326c0.036-0.036,0.068-0.085,0.106-0.135c0.025-0.05,0.062-0.11,0.099-0.17
			l0.461-0.571c0.094-0.1,0.181-0.191,0.255-0.27c0.068-0.082,0.156-0.16,0.255-0.241l0.119-0.153c0,0.074,0,0.16,0,0.234
			c0,0.092-0.005,0.16-0.025,0.22v0.515c0.02,0.099,0.025,0.185,0.025,0.259c0,0.067,0,0.153,0,0.259c0,0.078,0,0.159,0.02,0.238
			c0.012,0.081,0.012,0.177,0.012,0.27c0.036,0.16,0.068,0.326,0.092,0.493c0.02,0.178,0.052,0.344,0.089,0.508
			c0.043,0.185,0.085,0.351,0.117,0.511c0.044,0.167,0.094,0.327,0.131,0.486C269.463,193.403,269.394,193.605,269.325,193.807z"/>
	</g>
	<g>
		<g>
			<polygon points="286.701,170.446 276.036,142.958 264.932,169.971 264.492,169.79 276.048,141.676 287.145,170.274 			"/>
		</g>
		<g>
			<rect x="268.677" y="160.002" width="14.318" height="0.475"/>
		</g>
	</g>
</g>
</svg>
