<?xml version="1.0" encoding="utf-8"?>
<!-- Generator: Adobe Illustrator 19.1.0, SVG Export Plug-In . SVG Version: 6.00 Build 0)  -->
<svg version="1.1" id="Capa_1" xmlns="http://www.w3.org/2000/svg" xmlns:xlink="http://www.w3.org/1999/xlink" x="0px" y="0px"
	 viewBox="0 0 300 300" style="enable-background:new 0 0 300 300;" xml:space="preserve">
<g>
	<path d="M283.9,172.8c0-27.6-21.4-52.6-62.8-52.6h-41.1V71.4h-35L131,97.3l-14.7-25.9h-35v57.5c-7.1-6.7-16.6-10.4-26.8-10.4
		c-10.5,0-20.2,3.8-27.3,10.8c-3.5,3.4-6.2,7.4-8.1,11.8c-1.9,4.6-2.9,9.4-2.9,14.4v0.2c0,10,3.9,19.3,10.9,26.2
		c7.1,6.9,16.9,10.7,27.3,10.7c10.5,0,20.1-3.8,27.2-10.8c3.5-3.4,6.2-7.4,8.1-11.8c1.6-3.8,2.6-7.8,2.8-12h19.4v-35.6l19.1,27.3
		l18.5-27.3v35.6h30.1v70.6h40.4c41.7,0,64.1-23.1,64.1-54.3L283.9,172.8z M66.5,155.8c0,6.5-4.2,12.5-12.1,12.5
		c-8.1,0-12.4-6-12.4-12.7v-0.2h0c0-6.5,4.3-12.7,12.3-12.7c8,0,12.2,6.1,12.2,12.9L66.5,155.8L66.5,155.8z M246.3,174
		c0,13.3-10.4,19.1-22.7,19.1h-7.1v-38.5h7c12.4,0,22.8,5.8,22.8,19.1L246.3,174L246.3,174z"/>
</g>
</svg>
