<?xml version="1.0" encoding="utf-8"?>
<!-- Generator: Adobe Illustrator 17.0.0, SVG Export Plug-In . SVG Version: 6.00 Build 0)  -->
<!DOCTYPE svg PUBLIC "-//W3C//DTD SVG 1.1//EN" "http://www.w3.org/Graphics/SVG/1.1/DTD/svg11.dtd">
<svg version="1.1" id="Capa_1" xmlns="http://www.w3.org/2000/svg" xmlns:xlink="http://www.w3.org/1999/xlink" x="0px" y="0px"
	 width="300px" height="300px" viewBox="0 0 300 300" enable-background="new 0 0 300 300" xml:space="preserve">
<g>
	<g>
		
			<linearGradient id="SVGID_1_" gradientUnits="userSpaceOnUse" x1="170.5471" y1="121.0836" x2="143.0363" y2="149.572" gradientTransform="matrix(0.9996 -0.0265 0.0265 0.9996 -3.6975 -0.7514)">
			<stop  offset="0" style="stop-color:#B3B3B3"/>
			<stop  offset="0.0197" style="stop-color:#B6B6B6"/>
			<stop  offset="0.1235" style="stop-color:#C3C3C3"/>
			<stop  offset="0.2631" style="stop-color:#CACACA"/>
			<stop  offset="0.5893" style="stop-color:#CCCCCC"/>
			<stop  offset="0.8076" style="stop-color:#CACACA"/>
			<stop  offset="0.9084" style="stop-color:#C2C2C2"/>
			<stop  offset="0.9849" style="stop-color:#B6B6B6"/>
			<stop  offset="0.9966" style="stop-color:#B3B3B3"/>
		</linearGradient>
		<path fill="url(#SVGID_1_)" d="M150.704,130.565c-0.274-10.363,3.524-19.437,9.288-23.952c-1.238-0.868-2.548-1.536-3.913-1.979
			c-7.826,3.003-13.422,13.633-13.091,26.135c0.331,12.502,6.482,22.82,14.456,25.405c1.339-0.514,2.613-1.251,3.803-2.183
			C155.253,149.788,150.979,140.927,150.704,130.565z"/>
		
			<linearGradient id="SVGID_2_" gradientUnits="userSpaceOnUse" x1="169.0845" y1="161.1069" x2="163.5575" y2="108.5205" gradientTransform="matrix(0.9996 -0.0265 0.0265 0.9996 -3.6975 -0.7514)">
			<stop  offset="0.006" style="stop-color:#CCCCCC"/>
			<stop  offset="0.1096" style="stop-color:#D3D3D3"/>
			<stop  offset="0.2549" style="stop-color:#E5E5E5"/>
			<stop  offset="0.263" style="stop-color:#E6E6E6"/>
			<stop  offset="0.3887" style="stop-color:#E6E6E6"/>
			<stop  offset="0.9457" style="stop-color:#FFFFFF"/>
			<stop  offset="0.9994" style="stop-color:#FFFFFF"/>
		</linearGradient>
		<path fill="url(#SVGID_2_)" d="M164.143,104.301c-1.254-0.368-2.55-0.551-3.874-0.516c-1.45,0.038-2.851,0.336-4.189,0.849
			c1.365,0.442,2.675,1.111,3.913,1.979c5.995,4.203,11.899,11.28,11.946,23.389c0.047,12.337-4.57,21.839-10.691,23.989
			c-1.426,0.501-3.113,1.611-4.656,1.874c1.678,0.707,3.632,0.973,5.082,0.935c1.325-0.035,2.609-0.287,3.842-0.72
			c8.007-2.818,13.774-13.577,13.438-26.263C178.617,117.13,172.288,106.691,164.143,104.301z"/>
		<linearGradient id="SVGID_3_" gradientUnits="userSpaceOnUse" x1="131.3769" y1="116.0698" x2="164.8705" y2="155.9859">
			<stop  offset="0" style="stop-color:#999999"/>
			<stop  offset="0.0127" style="stop-color:#9D9D9D"/>
			<stop  offset="0.0648" style="stop-color:#AAAAAA"/>
			<stop  offset="0.135" style="stop-color:#B1B1B1"/>
			<stop  offset="0.299" style="stop-color:#B3B3B3"/>
			<stop  offset="0.3733" style="stop-color:#999999"/>
			<stop  offset="0.4355" style="stop-color:#808080"/>
			<stop  offset="0.5913" style="stop-color:#808080"/>
			<stop  offset="0.7166" style="stop-color:#838383"/>
			<stop  offset="0.8197" style="stop-color:#8D8D8D"/>
			<stop  offset="0.9146" style="stop-color:#9F9F9F"/>
			<stop  offset="0.993" style="stop-color:#B3B3B3"/>
		</linearGradient>
		<path fill="url(#SVGID_3_)" d="M164.36,155.003c-0.068-0.038-7.287-4.285-9.72-5.884c-2.095-1.376-12.488-8.227-12.73-8.438
			c-1.331-1.162-1.999-2.661-2.065-4.437c-0.01-0.278,1.345-20.385,1.501-22.961c0.002-0.04,0.007-0.079,0.01-0.119
			c0.177-2.434,1.144-4.177,3.223-5.345c-0.621,0.052-0.606,0.081-0.695,0.086c-2.406,0.957-7.159,3.635-7.676,4.111
			c-1.239,1.141-1.886,2.659-2.001,4.565c-0.003,0.049-0.007,0.097-0.01,0.146c-0.067,1.098-1.484,23.314-1.36,23.932
			c0.23,1.15,0.756,2.161,1.603,3.01c0.2,0.201,20.206,13.457,20.441,13.612c1.276,0.845,2.576,1.212,3.895,1.149
			c0.108-0.005,1.348-0.21,1.714-0.364c3.048-1.289,5.505-3.037,5.584-3.089C165.964,155.028,165.172,155.45,164.36,155.003z"/>
		
			<linearGradient id="SVGID_4_" gradientUnits="userSpaceOnUse" x1="119.7869" y1="118.3156" x2="157.0589" y2="155.5876" gradientTransform="matrix(0.9996 0.0288 -0.0288 0.9996 4.1989 1.6628)">
			<stop  offset="0.0138" style="stop-color:#B3B3B3"/>
			<stop  offset="0.1138" style="stop-color:#A8A8A8"/>
			<stop  offset="0.2819" style="stop-color:#999999"/>
			<stop  offset="0.4104" style="stop-color:#979797"/>
			<stop  offset="0.4698" style="stop-color:#8F8F8F"/>
			<stop  offset="0.5148" style="stop-color:#838383"/>
			<stop  offset="0.5217" style="stop-color:#808080"/>
			<stop  offset="0.6547" style="stop-color:#B3B3B3"/>
			<stop  offset="0.9492" style="stop-color:#B3B3B3"/>
			<stop  offset="1" style="stop-color:#B3B3B3"/>
		</linearGradient>
		<path fill="url(#SVGID_4_)" d="M163.41,152.796c-1.092-0.19-7.635-1.287-10.496-1.821c-2.464-0.46-14.697-2.761-15.002-2.863
			c-2.398-0.684-2.854-1.077-3.62-3.294c-0.125-0.365-6.638-19.321-7.49-21.756c-0.013-0.038-0.024-0.076-0.036-0.114
			c-0.778-2.314-0.496-4.377,0.971-6.258c-0.081,0.035-0.161,0.074-0.241,0.113c-1.558,1.74-3.115,3.482-4.678,5.218
			c-0.54,0.6-0.951,1.219-1.244,1.858c-0.702,1.531-0.712,3.181-0.081,4.984c0.016,0.046,0.031,0.092,0.048,0.138
			c0.363,1.038,6.357,18.609,7.123,20.827c0.227,0.659,0.519,1.249,0.871,1.77c0.657,0.972,1.533,1.7,2.642,2.156
			c1.096,0.394,23.837,4.602,24.114,4.654c1.503,0.286,2.844,0.123,4.036-0.446c0.097-0.046,1.012-0.581,1.277-0.876
			c1.057-1.18,3.957-4.949,3.876-4.859C165.055,152.416,164.502,152.986,163.41,152.796z"/>
		
			<linearGradient id="SVGID_5_" gradientUnits="userSpaceOnUse" x1="164.433" y1="71.9411" x2="139.0917" y2="144.1137" gradientTransform="matrix(0.9996 0.0288 -0.0288 0.9996 4.1989 1.6628)">
			<stop  offset="0" style="stop-color:#FFFFFF"/>
			<stop  offset="0.2012" style="stop-color:#FDFDFD"/>
			<stop  offset="0.3083" style="stop-color:#F5F5F5"/>
			<stop  offset="0.3931" style="stop-color:#E7E7E7"/>
			<stop  offset="0.4664" style="stop-color:#D4D4D4"/>
			<stop  offset="0.5315" style="stop-color:#BBBBBB"/>
			<stop  offset="0.5498" style="stop-color:#B3B3B3"/>
			<stop  offset="0.6205" style="stop-color:#F2F2F2"/>
			<stop  offset="0.9992" style="stop-color:#FFFFFF"/>
			<stop  offset="1" style="stop-color:#26B382"/>
		</linearGradient>
		<path fill="url(#SVGID_5_)" d="M154.725,120.448c-0.352-0.105-0.719-0.192-1.104-0.261c-2.692-0.477-20.955-3.645-22.288-3.817
			c-2.957-0.381-3.969,0.379-4.139,0.573c-0.272,0.31-3.072,3.52-4.613,5.275c-0.532,0.606-0.918,1.453-1.203,2.096
			c1.013-1.638,3.147-1.533,4.888-1.261c0.091,0.014,20.813,3.555,22.288,3.817c2.874,0.509,4.843,2.013,5.827,4.949
			c2.218,6.613,4.555,13.188,6.998,19.721c0.048,0.129,0.089,0.256,0.131,0.383c0.043,0.13,0.083,0.258,0.119,0.386
			c0.022,0.077,0.045,0.155,0.064,0.232c0.356,1.373,0.52,2.603-0.011,3.84c-0.334,0.812-0.813,1.15-1.265,1.537
			c0.097-0.048,0.536-0.294,0.908-0.565c0.959-0.698,3.91-4.696,4.042-4.848c0.017-0.019,2.356-4.236,1.051-7.672
			c-2.476-6.52-4.766-13.096-6.984-19.709C158.581,122.581,157.003,121.126,154.725,120.448z"/>
		<g>
			
				<linearGradient id="SVGID_6_" gradientUnits="userSpaceOnUse" x1="875.5049" y1="-621.0751" x2="880.9027" y2="-499.3573" gradientTransform="matrix(0.8952 -0.4456 0.4456 0.8952 -395.3701 992.2294)">
				<stop  offset="0.0095" style="stop-color:#FFFFFF"/>
				<stop  offset="0.0188" style="stop-color:#FDFDFD"/>
				<stop  offset="0.0239" style="stop-color:#F5F5F5"/>
				<stop  offset="0.0249" style="stop-color:#F2F2F2"/>
				<stop  offset="0.606" style="stop-color:#F2F2F2"/>
				<stop  offset="0.7024" style="stop-color:#F2F2F2"/>
				<stop  offset="0.7196" style="stop-color:#EEEEEE"/>
				<stop  offset="0.7352" style="stop-color:#E3E3E3"/>
				<stop  offset="0.7503" style="stop-color:#D1D1D1"/>
				<stop  offset="0.7649" style="stop-color:#B7B7B7"/>
				<stop  offset="0.7668" style="stop-color:#B3B3B3"/>
				<stop  offset="0.8398" style="stop-color:#E6E6E6"/>
				<stop  offset="1" style="stop-color:#FFFFFF"/>
			</linearGradient>
			<path fill="url(#SVGID_6_)" d="M168.014,121.745c-0.284-0.233-18.854-12.097-19.999-12.801c-1.165-0.716-3.148-1.309-4.039-1.071
				c-0.284,0.076-4.265,1.924-6.294,3.082c-1.521,0.869-2.014,1.627-2.014,1.627c1.721-1.012,5.247,0.665,5.325,0.713
				c1.936,1.192,17.587,11.177,18.846,11.988c2.454,1.58,3.689,3.728,3.462,6.817c-0.51,6.956-0.901,13.924-1.167,20.893
				c-0.111,2.896-0.207,3.554-1.483,4.638c-0.367,0.318-1.136,0.618-1.748,0.784c0.108-0.006,0.622-0.081,1.055-0.206
				c0.533-0.154,1.199-0.286,1.745-0.551c1.147-0.556,3.783-2.253,3.804-2.267c2.696-1.761,3.755-3.22,3.866-6.636
				c0.227-6.971,0.666-13.921,1.176-20.877C170.746,125.204,169.853,123.251,168.014,121.745z"/>
		</g>
	</g>
	<g>
		<path fill="#FFFFFF" d="M18.415,189.787h-5.737v5.969H8.853v-20.282c3.187,0,6.374-0.029,9.561-0.029
			C28.324,175.445,28.352,189.787,18.415,189.787z M12.678,186.281h5.737c4.896,0,4.867-7.186,0-7.186h-5.737V186.281z"/>
		<path fill="#FFFFFF" d="M48.373,185.731c-0.058,5.244-3.274,10.488-10.402,10.488c-7.127,0-10.43-5.128-10.43-10.459
			c0-5.331,3.419-10.691,10.43-10.691C44.954,175.068,48.431,180.429,48.373,185.731z M31.308,185.818
			c0.086,3.332,1.883,6.895,6.664,6.895c4.781,0,6.577-3.592,6.635-6.925c0.058-3.419-1.854-7.243-6.635-7.243
			C33.191,178.545,31.221,182.399,31.308,185.818z"/>
		<path fill="#FFFFFF" d="M72.19,195.756h-3.245l-2.521-6.374l-2.144-6.403l-2.115,6.461l-2.463,6.316h-3.245l-7.447-20.282h4.288
			l4.78,14.632l4.926-14.632h2.492l5.071,14.632l4.636-14.632h4.288L72.19,195.756z"/>
		<path fill="#FFFFFF" d="M96.963,195.756H81.78c0-6.751,0-13.531,0-20.282h15.183v3.709H85.576v4.665h10.981v3.564H85.576v4.578
			h11.387V195.756z"/>
		<path fill="#FFFFFF" d="M117.911,195.756h-4.548l-5.91-6.78h-3.68v6.78h-3.824v-20.311c3.216,0,6.433,0.029,9.649,0.029
			c4.78,0.029,7.302,3.216,7.302,6.722c0,2.781-1.276,5.592-5.129,6.374l6.142,6.925V195.756z M103.772,179.038v6.49h5.824
			c2.433,0,3.476-1.623,3.476-3.245c0-1.623-1.072-3.245-3.476-3.245H103.772z"/>
		<path fill="#FFFFFF" d="M119.939,195.756v-20.282h1.536v20.282H119.939z"/>
		<path fill="#FFFFFF" d="M126.633,175.474l13.646,16.776v-16.776h1.535v20.282h-0.609l-13.675-16.747v16.747h-1.565v-20.282
			H126.633z"/>
		<path fill="#FFFFFF" d="M147.899,185.123h11.677v1.477h-11.677v9.185h-1.565v-20.311h13.646v1.564h-12.081V185.123z"/>
		<path fill="#FFFFFF" d="M164.994,175.474v18.804h11.417v1.477h-12.98v-20.282H164.994z"/>
		<path fill="#FFFFFF" d="M193.708,175.474v12.603c0,10.604-15.531,10.634-15.531,0v-12.603h1.536v12.603
			c0,8.721,12.458,8.693,12.458,0v-12.603H193.708z"/>
		<path fill="#FFFFFF" d="M199.502,184.833h11.88v1.42h-11.88v7.996h12.806v1.507h-14.341v-20.282h13.994v1.477h-12.459V184.833z"/>
		<path fill="#FFFFFF" d="M217.06,175.474l13.646,16.776v-16.776h1.536v20.282h-0.609l-13.676-16.747v16.747h-1.564v-20.282H217.06z
			"/>
		<path fill="#FFFFFF" d="M253.511,192.946c-2.028,2.028-4.723,3.042-7.389,3.042c-6.839,0-10.402-4.78-10.431-10.256
			c-0.058-5.418,3.477-10.489,10.431-10.489c2.666,0,5.36,1.014,7.389,3.042l-1.073,0.927c-1.738-1.738-4.027-2.579-6.315-2.579
			c-5.911,0-8.954,4.173-8.925,9.04c0.059,4.752,3.071,8.866,8.925,8.866c2.289,0,4.606-0.869,6.344-2.579L253.511,192.946z"/>
		<path fill="#FFFFFF" d="M258.695,184.833h11.88v1.42h-11.88v7.996h12.806v1.507H257.16v-20.282h13.994v1.477h-12.459V184.833z"/>
		<path fill="#FFFFFF" d="M291.147,195.756h-2.057l-7.012-7.678h-5.534v7.678h-1.565v-20.282c2.985,0,5.94,0,8.925,0
			c4.404,0,6.635,3.158,6.663,6.316c0.029,3.303-2.143,6.201-6.577,6.201L291.147,195.756z M276.544,186.6h7.186
			c3.535,0,5.1-1.999,5.129-4.839c0.029-2.376-1.594-4.839-4.954-4.839h-7.36V186.6z"/>
	</g>
</g>
</svg>
